<?xml version="1.0" standalone="no"?>
<!DOCTYPE svg PUBLIC "-//W3C//DTD SVG 1.1//EN" "http://www.w3.org/Graphics/SVG/1.1/DTD/svg11.dtd" >
<svg xmlns="http://www.w3.org/2000/svg">
<metadata></metadata>
<defs>
<font id="peas__carrotsregular" horiz-adv-x="602" >
<font-face units-per-em="2048" ascent="1536" descent="-512" />
<missing-glyph horiz-adv-x="595" />
<glyph horiz-adv-x="0" />
<glyph unicode="&#xd;" horiz-adv-x="595" />
<glyph unicode=" "  horiz-adv-x="595" />
<glyph unicode="&#x09;" horiz-adv-x="595" />
<glyph unicode="&#xa0;" horiz-adv-x="595" />
<glyph unicode="!" horiz-adv-x="432" d="M16 1214q0 25 84 30t291 5q16 0 17 -14q0 -20 -23 -26.5t-39 -6.5q0 -231 6 -444t6 -443q-6 -14 -16 -21t-20 -7q-25 0 -31 24v-4q-4 0 -19.5 -4t-34 -8t-37 -7t-28.5 -3q-6 0 -8 2q-2 0 -3 -1t-3 -1q-12 0 -19.5 8t-7.5 18q0 16 23 19q-8 211 -29 432t-31 434 q-20 0 -49 1t-29 17zM129 109q0 45 31.5 81.5t103.5 40.5q12 -2 17 -10l8 -16h6q14 0 28.5 -10.5t25.5 -25.5t17.5 -32.5t6.5 -32.5q0 -18 -8.5 -39.5t-24.5 -40t-42 -31.5t-60 -13q-49 0 -79 40.5t-30 88.5zM139 1194q4 -100 11.5 -197.5t15.5 -197.5q-2 57 -2 112.5v104.5 q0 55 1 97t1 65q0 4 -5.5 8t-21.5 8zM172 117q0 -27 16.5 -50.5t49.5 -33.5q-16 20 -27.5 50t-20.5 56q-4 -2 -8 -2t-6 2q-2 -6 -3 -11t-1 -11zM193 440l4 -106q23 2 46 7t48 7v12q-12 0 -17 15l-8 90l-6 -96q-4 -27 -27 -27q-16 0 -24 30.5t-16 67.5zM221 823q4 -59 7 -127 t3 -123q0 33 2.5 65t2.5 67q0 63 -15 118zM225 1188q0 -25 4 -59.5t9 -65.5q0 65 6 131q-18 -2 -19 -6zM233 162l7 -27q0 6 2 13.5t4 15.5q-2 0 -5 -1t-8 -1zM283 131q0 -23 7 -47.5t11 -42.5l14 16q-23 12 -23.5 38t-4.5 55q-4 -12 -4 -19zM295 1090q0 -8 2 -13l6 -102v166 q-4 -14 -6 -27.5t-2 -23.5z" />
<glyph unicode="&#x22;" horiz-adv-x="704" d="M29 1245q0 23 26 31q41 0 76 2t68.5 5t68.5 5t76 2q16 -4 16 -16q0 -16 -19 -23.5t-42 -7.5q8 -59 11 -117.5t3 -117.5q0 -98 -4 -196.5t-4 -197.5q-2 -10 -9 -19t-17 -9q-8 0 -12.5 7t-8.5 7q-14 0 -49 -6t-53 -6t-19 12q0 6 6 16q-16 78 -24 155t-15.5 153.5 t-14.5 153.5t-19 155h-23q-18 0 -18 12zM113 1233q0 -6 1 -11t1 -12q6 16 22 23h-24zM150 1233q2 -2 10 -14q2 -90 11 -175.5t19 -175.5q0 53 -1 107.5t-1 109.5q0 39 2.5 76t6.5 76zM233 643q4 0 8.5 1t8.5 1t12 -4q0 78 -1 159t-2 159.5t-2 151.5t-1 132h-20 q2 -68 2 -135.5v-134.5v-165t-5 -165zM340 1245q0 23 27 31q41 0 75.5 2t68.5 5t68.5 5t75.5 2q16 -4 17 -16q0 -18 -21.5 -24.5t-42.5 -6.5q8 -63 11.5 -124.5t3.5 -123.5q0 -96 -3.5 -190t-3.5 -191q-2 -10 -10 -19t-18 -9q-6 0 -9.5 7t-11.5 7q-14 0 -48 -6t-52 -6 q-20 0 -21 12q0 4 9 16q-16 78 -25.5 155t-15.5 153.5t-13.5 153.5t-19.5 155h-23q-18 0 -18 12zM424 1233q0 -6 1 -11t1 -12q2 14 23 23h-25zM459 1233q6 -4 10 -14q2 -90 11 -175.5t20 -175.5v60v149q0 41 1 80t7 80zM545 643q4 0 8 1t8 1t12 -4q-2 78 -3 159t-2 159.5 t-2 151.5t-1 132h-18q2 -68 2 -135.5v-134.5v-165t-4 -165z" />
<glyph unicode="#" horiz-adv-x="1013" d="M14 707q0 16 23.5 24t56.5 10t68 2h59q-16 201 -18 396q-35 -2 -69 -4t-68 -2q-20 0 -21 14q0 23 27 31q16 0 31.5 1t48 4t92 8t164.5 15q8 4 12 4q6 0 8 -2q4 0 12.5 10.5t20.5 10.5q6 0 18.5 -12.5t12.5 -18.5q0 -14 -15 -24q0 -203 6 -406q78 8 157 18.5t159 20.5 q6 209 18 416q8 23 29 22q14 0 16 -16q-8 -104 -12 -209t-8 -209l129 18q16 -4 16 -14q0 -14 -16.5 -22.5t-40 -13.5t-48 -6t-42.5 -3q-4 -86 -7.5 -168t-5.5 -166l158 17q16 -4 16 -15q0 -16 -20 -23t-48 -11.5t-57.5 -6.5t-48.5 -4q-6 -215 -6 -430q-8 -27 -30 -26 q-12 0 -13 20q0 217 6 430q-72 -8 -144.5 -17.5t-145.5 -15.5l6 -327q-2 -10 -9.5 -19.5t-17.5 -9.5t-16 14v31l-4 -2q-27 -6 -53.5 -15.5t-61.5 -17.5t-82 -15t-113 -9q-18 0 -18 14t15.5 21.5t38 9.5t46 2t39.5 2q-4 51 -6 103t-2 112l-6 86q-31 -2 -61.5 -3t-61.5 -1 q-18 0 -18 14t14 21.5t35.5 9.5t45 2h44.5l-25 323q-47 -2 -95 -5t-95 -3q-18 0 -19 15zM285 1135q0 -6 14 -7v9q0 6 2 8q-16 -6 -16 -10zM291 991q0 -121 6 -243q4 0 7 2t7 2l4 55q-6 78 -11 157.5t-5 161.5h-6q-2 -35 -2 -67.5v-67.5zM299 654.5q0 -25.5 2 -50.5 q2 12 4 26.5t6 28.5v48q-4 0 -7 -1t-5 -1v-50.5zM338 241.5q0 -8.5 2 -16.5q0 -16 2 -43.5t5 -56.5t7 -50.5t8 -21.5q-2 2 -2 6q-4 68 -4 139.5t-4 143.5h-10q-2 -23 -3 -43t-1 -41v-16.5zM342 442q2 -14 2 -28.5v-30.5h2q0 16 -1 33.5t-3 34.5v-9zM369 1126q10 -27 10 -49 q0 -12 -1 -26.5t-1 -36.5v-258q8 0 12 34.5t7 78.5t4 87t1 60q0 35 -8 68.5t-8 60.5q0 4 1 9t1 9zM377 623l6 92q-2 0 -2 -1t-4 -1v-90zM416 530q0 -72 6 -141q6 4 27 4q-4 84 -6.5 164t-4.5 162h-10q-4 -35 -7 -69.5t-3 -69.5q0 -12 -1 -24.5t-1 -25.5zM422 348 q2 -53 3 -113.5t7 -156.5q8 0 12 2h13l-6 272q-8 -4 -15.5 -4h-13.5zM434 774q0 -4 4 -12v35q-2 -6 -3 -11.5t-1 -11.5zM483 725l11 -328q72 8 145.5 15.5t144.5 17.5q2 84 5.5 166t7.5 166q-78 -10 -156 -18.5t-158 -18.5z" />
<glyph unicode="$" horiz-adv-x="770" d="M35 141q0 10 5 21.5t13 11.5q27 -14 60.5 -25.5t67.5 -18.5t64.5 -11t49.5 -4q39 0 86 10q2 72 2 142.5v142.5q-59 70 -119.5 120t-110 96t-80 97t-30.5 127q0 88 28.5 150.5t76 104.5t111 64.5t134.5 28.5v133q0 12 8.5 21.5t18.5 9.5q12 0 16 -16v-146h19q31 0 72.5 -4 t80.5 -14.5t66.5 -26.5t27.5 -41q0 -10 -7 -15t-17 -5q-2 0 -16.5 6t-38 14t-55 14.5t-68.5 6.5q-39 0 -64 -7q-6 -256 -6 -507q139 -102 215 -202t76 -179q0 -76 -71.5 -125t-225.5 -60v-166q-8 -27 -31 -26q-12 0 -12 18v174q-23 0 -79 7.5t-115.5 17.5t-105.5 26.5 t-46 34.5zM141 938q23 35 61 80t77 74l20 14q-45 -16 -82 -51t-76 -115v-2zM147 801q2 -23 10.5 -46.5t31 -53t62.5 -70.5t105 -96q-57 57 -114.5 125.5t-94.5 140.5zM178 897q0 -47 29.5 -93t68.5 -97q6 -10 11.5 -17.5t7.5 -7.5v2q0 2 -2 6l-8 17q-41 43 -66.5 100 t-25.5 117q0 10 1 18t3 19q-18 -35 -19 -64zM272 899q0 -59 32 -117.5t83 -115.5q0 221 6 436q-66 -53 -93.5 -103.5t-27.5 -99.5zM383 512l2 -2zM424 143q31 16 49.5 46t18.5 73q-16 27 -32 50.5t-34 45.5q0 -53 -1 -107t-1 -108zM428 469l45 -51q41 -47 59.5 -91t18.5 -81 q0 -33 -10 -53h4q2 2 5 4t5 6l23 30q0 76 -41 132.5t-109 113.5v-10z" />
<glyph unicode="%" horiz-adv-x="1404" d="M43 750q0 72 20.5 145.5t56.5 132.5t84 97t101 38q35 0 82 -27.5t90 -75.5t74 -114.5t31 -142.5q0 -55 -16.5 -115.5t-52.5 -112t-94.5 -84t-139.5 -32.5q-41 0 -64 8q-90 27 -131 107.5t-41 175.5zM139 834q35 126 78 239q-41 -35 -70 -86h5q16 0 16 -20 q-6 -33 -14.5 -66t-14.5 -67zM166 670q0 -35 5 -69t17 -62l13 -19q6 -2 16.5 -6t20.5 -6l-2 31q-10 37 -29 72.5t-19 72.5q-4 25 -6 49.5t-2 48.5q0 10 1 17.5t1 17.5q-16 -78 -16 -147zM229 870q14 78 43 144.5t76 91.5l-26 16q-10 -4 -22.5 -5t-23.5 -5l-12 -37 q-16 -49 -23.5 -102t-11.5 -103zM256 700q0 -16 2 -34.5t6 -30.5q0 10 -1 19.5t-1 19.5q0 55 6 113.5t21.5 113.5t39 102.5t58.5 77.5l-10 6l-8 -12q-27 -16 -48.5 -63t-36 -104.5t-21.5 -115t-7 -92.5zM291 498h12q-4 4 -6 9t-6 11v-20zM319 696q0 -120 23 -198 q92 14 137 94t45 180q0 78 -26.5 153.5t-79.5 131.5q-27 -20 -45.5 -59.5t-30.5 -87.5t-17.5 -103t-5.5 -111zM383 -96q0 4 2 8q25 66 67 169t92 228t106.5 262.5t108.5 269.5t97 249.5t74 203.5q2 10 10 16.5t16 6.5q14 0 15 -17q0 -16 -10.5 -38.5t-14.5 -38.5l29 57 q10 14 26 14q12 0 13 -14v-6q-43 -92 -98.5 -219t-115 -266.5t-118.5 -280.5t-109.5 -263t-89.5 -213t-57 -128h-2q-10 -16 -25 -17q-16 0 -16 17zM821 315q0 72 20.5 146t56.5 133t82 97t99 38q37 0 85 -27.5t91 -75.5t73 -114t30 -143q0 -55 -16.5 -117t-52.5 -112 t-94 -83.5t-142 -33.5q-39 0 -62 8q-92 39 -131 111.5t-39 172.5zM918 397q16 63 34 124t41 116q-23 -16 -38 -37.5t-31 -48.5h4q18 0 18 -19q-8 -33 -16 -66.5t-12 -68.5zM942 236q0 -35 5 -69t18 -63l12 -20q8 -2 18.5 -6t20.5 -6l-2 32q-10 35 -29.5 72t-19.5 72 q0 23 -4.5 47t-2.5 51q0 10 1.5 18.5t1.5 18.5q-18 -74 -19 -147zM1006 436q16 76 44.5 142.5t75.5 93.5l-26 14q-10 -2 -22.5 -3t-22.5 -7l-13 -35q-16 -49 -24 -101.5t-12 -103.5zM1032 252q2 -14 4 -27.5t6 -23.5q-2 10 -2 22.5v26.5q0 53 6.5 110.5t21.5 111.5t38.5 99 t58.5 74l-10 6l-10 -10q-29 -18 -50.5 -69.5t-34.5 -112t-20.5 -118.5t-7.5 -89zM1069 63h12q-4 4 -6 8.5t-6 10.5v-19zM1096 260q-1 -119 22 -197q92 14 138.5 94.5t46.5 180.5q0 78 -27 152.5t-80 130.5q-27 -20 -46.5 -59.5t-31.5 -88.5t-17 -104.5t-5 -108.5z" />
<glyph unicode="&#x26;" horiz-adv-x="999" d="M25 322q0 74 18 149.5t52 142t79 117.5t100 76q-39 2 -68.5 20.5t-49 45t-29.5 58.5t-10 62q0 53 20.5 101.5t59.5 85.5t93 58.5t120 21.5q41 0 88 -8.5t98 -28.5q6 20 11 41.5t28 21.5q12 0 12 -14v-8q0 -4 -3 -23.5t-6 -44.5t-6 -50.5t-3 -43.5q0 -15 2 -19 q-8 -27 -31 -26q-12 0 -12 18v47.5t2 46.5q-25 23 -58.5 33t-68.5 10q-47 0 -82 -16t-57.5 -42t-33.5 -58.5t-11 -65.5q0 -59 35.5 -106t109.5 -60q41 16 86 26.5t88 10.5q20 0 37.5 -6t17.5 -33q0 -12 -10 -12q-31 -4 -72 -16.5t-83 -35t-77.5 -57t-54.5 -82.5 q-29 -66 -44 -139.5t-15 -146.5q0 -61 10 -123t38 -113t76 -82.5t126 -31.5q66 0 127 21.5t108 61t76 96t29 124.5q0 49 -17.5 105t-56.5 116q-41 -68 -93 -115t-99 -47q-35 0 -62 39t-35 131q0 14 13.5 32.5t37 34t53 25.5t64.5 10q31 0 61.5 -11t57.5 -36q29 37 60.5 75 t66.5 68.5t72 50t73 19.5q33 0 81 -29.5t73 -78.5v-8q0 -18 -23 -25h-4q-20 0 -20 12q0 4 2 6q-18 35 -50 51.5t-67 16.5q-31 0 -52.5 -6t-45 -25.5t-53 -55.5t-76.5 -95q47 -72 69.5 -140.5t22.5 -134.5q0 -80 -31.5 -147.5t-91 -116.5t-143.5 -76.5t-189 -27.5h-22h-21 q-68 0 -141.5 21.5t-135 66.5t-101 116.5t-39.5 174.5zM70 322q0 -55 13 -104.5t42 -78.5q-20 31 -28.5 69t-8.5 81q0 90 24.5 186t47.5 166q-37 -47 -63.5 -137t-26.5 -182zM141 319q0 -10 3 -36.5t10.5 -57t19.5 -59.5t31 -43l-4 27q-8 6 -18.5 32.5t-19.5 57t-15 54.5z M160 993q0 -25 11 -48t36 -42l14 -12q-41 51 -41 110q0 63 49 129q-31 -29 -50 -64.5t-19 -72.5zM166 395q4 16 9 48t13.5 67t16.5 65.5t18 47.5q-16 -12 -27.5 -37t-17.5 -53.5t-9 -59.5t-3 -55v-23zM225 399q0 -43 6.5 -90t18.5 -91t28 -81.5t39 -64.5q-12 14 -27.5 57 t-27.5 97.5t-20.5 112.5t-8.5 105q0 25 2.5 44.5t8.5 33.5q-18 -49 -19 -123zM231 977q0 -47 24 -84t60 -37l-28 25q-55 33 -56 96zM260 698q0 -4 16.5 9.5t39 31t49.5 34t47 22.5q-18 0 -29 2q-27 -2 -49.5 -19.5t-38.5 -37t-25.5 -34t-9.5 -8.5zM537 858l8 4h-4l-2 -2 q0 -2 -2 -2zM573 555q4 -53 21.5 -85t48.5 -32q45 0 94 70l45 61q-43 45 -98 45q-72 0 -111 -59z" />
<glyph unicode="'" horiz-adv-x="395" d="M29 1223q0 8 8 17t18 11q41 0 76 2t68.5 5.5t68.5 5.5t76 2q16 -4 16 -15q0 -20 -18 -25t-43 -5q8 -59 11 -118t3 -118q0 -100 -4 -198.5t-4 -196.5q-2 -10 -9 -19.5t-17 -9.5q-8 0 -12.5 7t-8.5 7q-14 0 -49 -6t-53 -6t-19 12q0 6 6 17q-16 78 -24 154.5t-15.5 153.5 t-14.5 153.5t-19 154.5h-23q-18 0 -18 15zM113 1208q0 -6 1 -11t1 -11q8 20 22 22h-24zM150 1208q4 -2 5 -6t5 -8q2 -90 11 -175t19 -175q0 53 -1 107.5t-1 109.5q0 39 2.5 76t6.5 75zM233 618q4 0 8.5 1.5t8.5 1.5t12 -5q0 78 -1 159t-2 159t-2 149.5t-1 128.5v9h-20 q2 -70 2 -137.5v-133.5v-166t-5 -166z" />
<glyph unicode="(" horiz-adv-x="585" d="M39 578q0 111 30.5 223t91 214.5t148.5 190t203 150.5q12 4 14 4q14 0 15 -17q0 -14 -15 -24q-68 -49 -120 -123t-86.5 -163t-52 -189.5t-17.5 -202.5q0 -125 26.5 -245t82 -220t138.5 -171t195 -97q10 -6 10 -17q0 -10 -9 -17t-21 -7q-164 31 -283 99.5t-196.5 163.5 t-115.5 211t-38 237zM113 573q0 -49 12 -110.5t33.5 -121.5t50 -114.5t63.5 -89.5q-29 39 -54 91.5t-44.5 111.5t-35 119.5t-25.5 113.5zM182 674q0 -37 5.5 -71.5t17.5 -63.5q-6 23 -8 50t-2 60q0 70 6 142.5t10 113.5q-8 -41 -18.5 -103.5t-10.5 -127.5zM211 977l8 -10 l6 43z" />
<glyph unicode=")" horiz-adv-x="585" d="M-129 -109q0 10 8 17q113 27 196 97.5t138 170.5t82 220t27 245q0 102 -17.5 202.5t-52.5 189.5t-87 163t-120 123q-12 8 -12 24t12 17q2 0 14 -4q115 -63 203 -150.5t148.5 -190t91 -215t30.5 -222.5q0 -121 -37.5 -237t-115.5 -211t-197 -163.5t-280 -99.5 q-14 0 -22.5 7t-8.5 17zM301 137q31 33 59.5 84t50 109.5t35 119t13.5 109.5v14q-10 -53 -25.5 -113.5t-35 -119.5t-44 -111.5t-53.5 -91.5zM346 1010l8 -43l6 10zM360 905q4 -43 10.5 -115.5t6.5 -142.5q0 -31 -2 -58t-6 -50q12 29 16 61.5t4 69.5q0 66 -10 130t-19 105z " />
<glyph unicode="*" horiz-adv-x="944" d="M39 801q0 10 7 18t17 8q6 0 15 -4q55 -49 113.5 -97t119.5 -91q-29 25 -62.5 52.5t-62 52t-49 44t-20.5 25.5q0 10 8 17.5t18 7.5h7q53 -35 121.5 -103.5t140.5 -122.5l41 -30l10 303q0 4 -1 6t-1 6q0 25 12 37t27 12q27 0 26 -31q0 -20 -1 -61t-1 -89t-1 -96.5t-3 -84.5 q78 47 156 91t160 85q2 0 3 1t3 1q10 0 17 -5t7 -16q0 -8 -8 -16q-74 -49 -117 -77t-73.5 -48.5t-58 -38.5t-70.5 -49q88 -59 176 -111.5t180 -105.5q8 -6 8 -15q0 -10 -8 -20t-18 -10q-4 0 -9 4q-92 39 -178 83t-172 95q0 -27 -1 -85t-4 -117.5t-9 -104.5t-17 -45 q-14 0 -22 24.5t-11 59.5t-4 73.5t-1 67.5q0 33 1 65.5t1 65.5q-16 -10 -106.5 -72.5t-266.5 -193.5q-31 0 -31 16q0 6 23.5 27.5t59.5 49.5t81 60.5t86 61.5t73.5 51.5t47.5 30.5q-53 -33 -106.5 -70t-101.5 -69.5t-86 -56t-58 -27.5q-20 0 -21 14q0 20 21 27q14 4 54 29.5 t84 55t79.5 55t46.5 32.5q20 12 39.5 26.5t42.5 26.5q-190 129 -367 280q-6 6 -6 15z" />
<glyph unicode="+" d="M29 551q0 10 8 20.5t18 14.5q25 2 89.5 7t140 9t149.5 8t117 6q16 -2 16 -16q0 -16 -34.5 -26.5t-88 -17.5t-116 -11t-116.5 -6t-92 -3t-42 -1h-31q-18 0 -18 16zM262 618.5v122.5v74q0 12 9.5 21.5t19.5 9.5q6 0 11 -27.5t9 -72t6 -97.5t3.5 -105t2.5 -95t1 -66 q0 -47 -1 -83t-28 -36q-12 0 -19.5 58.5t-10.5 137.5t-3 158.5z" />
<glyph unicode="," horiz-adv-x="327" d="M37 164q0 57 33.5 101t95.5 44q37 0 63.5 -20.5t44 -50t26.5 -63.5t9 -62q0 -49 -15 -96.5t-42 -87.5t-59.5 -68.5t-65.5 -36.5q-2 0 -4 -1t-4 -1q-14 0 -25.5 8t-11.5 18q0 16 16.5 20.5t37 10.5t36.5 23.5t16 62.5q0 27 -6 62h-16q-66 0 -97.5 42t-31.5 95zM86 184 q0 -31 9 -46t24 -23q-12 37 -13 71q0 23 7 47l-9 5l-8 -5q-10 -18 -10 -49zM154 70q8 -2 22 -2q0 4 -2 6zM160 256l4 -8q4 8 12 14q-2 0 -5 1t-5 1zM180 201l23 -60q20 25 20 49q0 23 -18 35q-18 -4 -25 -24zM229 39q2 -16 3 -29.5t1 -27.5q10 23 19.5 46t13.5 50 q-10 -25 -37 -39z" />
<glyph unicode="-" d="M29 551q0 10 8 20.5t18 14.5q25 2 89.5 7t140 9t149.5 8t117 6q16 -2 16 -16q0 -16 -34.5 -26.5t-88 -17.5t-116 -11t-116.5 -6t-92 -3t-42 -1h-31q-18 0 -18 16z" />
<glyph unicode="." horiz-adv-x="327" d="M37 166q0 74 43 109.5t86 35.5q59 0 89 -49t30 -106q0 -47 -22.5 -85t-69.5 -42q-4 0 -9.5 -1t-9.5 -1q-74 0 -105.5 44t-31.5 95zM86 184q0 -31 9 -46t24 -23q-12 37 -13 71q0 23 7 47l-9 5l-8 -5q-10 -18 -10 -49zM154 70q4 -2 14 -2q25 0 49 14q-16 -6 -29 -6 q-6 0 -10 2zM154 229q4 8 9 16.5t13 16.5q-2 0 -5 1t-5 1l-6 -12q-6 -4 -6 -23zM178 174q0 -29 15 -41q31 27 30 57q0 23 -18 35q-12 -2 -19.5 -17t-7.5 -34z" />
<glyph unicode="/" horiz-adv-x="620" d="M-16 -96q0 4 2 8q25 66 66.5 169t92 228t106.5 262.5t108.5 269.5t96 249.5t72.5 203.5q4 10 12.5 16.5t16.5 6.5q12 0 12 -14q0 -18 -9 -40t-13 -40l28 57q10 14 27 14q12 0 12 -14v-6q-43 -92 -98 -219t-114.5 -266.5t-119 -280.5t-109.5 -263t-89 -213t-57 -128h-2 q-10 -16 -25 -17q-16 0 -16 17z" />
<glyph unicode="0" horiz-adv-x="868" d="M31 707q0 78 12 145.5t41 118.5q66 123 170 197.5t215 74.5q63 0 128 -33.5t115 -105.5t81.5 -181.5t31.5 -263.5q0 -113 -21.5 -230.5t-66.5 -213.5t-113.5 -157.5t-162.5 -61.5q-102 0 -182 66.5t-135.5 171t-84 230.5t-28.5 243zM76 705q0 -82 13 -169t39 -168 t62.5 -148.5t85.5 -110.5q-23 47 -28 84q-90 106 -119 220.5t-29 237.5q0 70 5.5 141.5t9.5 147.5q-20 -47 -29.5 -107.5t-9.5 -127.5zM143 651q0 -86 13.5 -164.5t48.5 -144.5q-18 74 -25.5 170t-7.5 199q0 98 3 192t7 168q0 4 4 4t12.5 -14t12.5 -25q10 29 24.5 53.5 t36.5 24.5q16 0 17 -12v-4l22 39q-45 -16 -79.5 -40t-67.5 -71q-4 -98 -12.5 -192.5t-8.5 -182.5zM221 825q6 -125 12.5 -210t17.5 -149.5t29.5 -118.5t47.5 -122q-15 40 -17 56q-12 37 -25.5 96t-24.5 130t-18 148.5t-7 153.5t9 144.5t29 121.5q-2 -2 -8 -2 q-10 -41 -18 -82q-8 -35 -15.5 -79t-11.5 -87zM285 735q0 -102 15 -215.5t46 -212t75 -169t101 -85.5q55 14 101.5 70.5t80 140.5t53 187.5t19.5 212.5q0 57 -6 116q-6 51 -26.5 123t-55.5 136.5t-83 110.5t-109 46q-52 0 -113 -43q-51 -61 -74.5 -174t-23.5 -244zM354 78 l8 -8zM410 45h12l-10 8q0 -6 -2 -8z" />
<glyph unicode="1" horiz-adv-x="729" d="M23 868q0 10 8 17q66 47 105.5 77.5t67 53t50 42t51.5 43t70.5 56.5t109.5 84q12 12 23 12q20 0 31 -28q-16 -211 -23.5 -434.5t-7.5 -444.5v-145.5t2 -141.5l180 9q14 -6 15 -17q0 -23 -27 -26q-37 0 -107.5 -4.5t-143.5 -9.5t-132 -9t-74 -6q-12 -12 -24 -12 q-6 0 -16.5 11t-10.5 15q0 14 14 23q23 229 47.5 483t47.5 483q-57 -35 -115 -74.5t-105 -74.5q-4 -2 -12 -2q-25 0 -24 20zM231 37l19 2q8 113 16 241t10 240q-14 -113 -24 -243t-21 -240zM305 133q10 29 16.5 58.5t12.5 60.5q-12 2 -12 14q0 8 12 21q2 23 7 72t8 100t6 91 t3 46q6 92 10.5 201.5t8.5 201.5q-12 -61 -17.5 -132.5t-8.5 -148.5t-9 -155t-20 -151l-3 -78q-2 -31 -6 -89.5t-8 -111.5zM317 946h17l-8 90zM326 43h8l6 43q-10 -18 -14 -43zM373 969.5q0 -54.5 2 -88.5q2 20 4 46.5t5 54.5t5 53.5t6 45.5l-22 -22v-89.5zM377 47l31 4 v18.5t2 26.5q-8 0 -14.5 7.5t-10.5 17.5zM412 352q0 -14 1 -27.5t1 -23.5q4 33 4 90.5v104.5q-4 -4 -5 -21.5t-1 -41v-46v-35.5zM428 1081l2 2l2 2q4 4 8 5l4 2q2 0 4.5 -32t3.5 -80t2 -104.5t1 -105.5t1 -82l1 -33q0 4 1 40t2 87.5t2 111.5t2 112.5t3 89.5t2 41 q-10 -10 -19.5 -17.5t-19.5 -15.5z" />
<glyph unicode="2" horiz-adv-x="937" d="M25 39q0 20 16 53t36.5 65.5t39 58.5t24.5 36q29 51 74 139t88 192.5t74 213t31 198.5q0 27 -4.5 55.5t-12.5 50t-22.5 36t-32.5 14.5q-41 0 -89 -43t-90 -94t-71 -94l-29 -43q-8 0 -15 6t-7 14q0 6 2 8q31 63 76 125t100 111t118.5 78.5t135.5 29.5q84 0 146.5 -53 t62.5 -166q0 -84 -20.5 -177t-51.5 -184t-68.5 -175t-70.5 -150q-4 -6 -18.5 -29.5t-33 -56.5t-39 -68.5t-38 -67.5t-27.5 -54.5t-10 -26.5q27 0 97.5 4t157.5 8t180 8.5t165 4.5q18 -6 19 -19q0 -10 -7.5 -17t-17.5 -7q-31 -2 -105.5 -5.5t-169 -5.5t-195.5 -4t-187 -2 q-121 0 -166 2t-45 31zM70 51l8 2q0 23 29.5 69t58.5 89l37 78q-18 -31 -42 -71t-43.5 -74.5t-33.5 -60.5t-14 -32zM119 57l10 6l-2 3q0 2 1 3t1 3zM168 68q4 29 14.5 55.5t18.5 52.5l-11 -14q-4 -25 -11 -48.5t-11 -45.5zM168 68l2 -2zM276 430l58 115l10 6q18 43 37.5 90 t35 91t26 81t10.5 59v9q0 16 1 39.5t1 52.5q0 49 -5.5 101t-21.5 83l-4 -4q6 -16 11 -33.5t7 -42.5q2 -14 2 -27.5v-27.5q0 -72 -15 -148.5t-37.5 -154.5t-53.5 -151.5t-62 -137.5zM322 188l49 70q29 51 73.5 140t87.5 193.5t74 213t31 196.5v19l-27 -121q-6 -41 -20.5 -80 t-24.5 -80q-29 -104 -65.5 -199.5t-91.5 -181.5l-64 -108q-8 -14 -12 -29.5t-10 -32.5zM336 395q6 4 11 4h9q59 106 100.5 218t69.5 249v28t-1 57.5t-3 72.5t-4 72q2 -35 4 -72t2 -72q0 -20 -4 -39.5t-4 -35.5q0 -6 1 -10.5t1 -8.5q0 -14 -10 -18q-31 -115 -78 -226.5 t-94 -218.5zM500 1165q10 -23 14 -41q0 25 -14 41z" />
<glyph unicode="3" horiz-adv-x="692" d="M20 1130q0 4 7 15q45 55 112.5 79.5t141.5 24.5q84 0 152.5 -20.5t116.5 -58t74.5 -89t26.5 -112.5q0 -55 -17.5 -112.5t-47 -113t-69.5 -105.5t-87 -91q106 -53 151.5 -119t45.5 -133q0 -55 -27 -107.5t-72 -92.5t-104 -63.5t-123 -23.5q-66 0 -130.5 30t-119.5 95 q0 12 8.5 21.5t18.5 9.5t16 -10q37 -45 75 -64.5t73 -19.5q39 0 72.5 20.5t59 53t40 74.5t14.5 85q0 68 -44 126t-151 75h-10q-12 -10 -22 -10q-12 0 -13 14q0 10 7.5 22.5t23.5 16.5q45 33 87 77t74 96t50.5 109.5t18.5 112.5q0 41 -11.5 82t-38 76t-72.5 60.5t-116 37.5 q-45 -8 -83 -22.5t-60 -36.5q-4 -10 -13.5 -13.5t-19.5 -3.5q-14 0 -15 8zM291 541l20 -6q-4 4 -4 6q0 6 10.5 16t24.5 21.5t26.5 20.5t18.5 15q0 6 8 15l13 8l28 59q-4 -6 -25.5 -30.5t-46 -51t-46 -49t-27.5 -24.5zM346 545q17 0 25 2q72 51 132 132t85 173 q-53 -139 -164 -250l-2 -2q-29 -29 -45.5 -40t-30.5 -15zM371 82q41 18 63.5 55t30.5 82q-12 -41 -37 -74.5t-57 -62.5zM375 504l28 -25q4 4 6.5 9.5t6.5 7.5l-33 8h-8zM455 782q16 33 28.5 69t16.5 71q-4 -35 -17.5 -70t-27.5 -70zM471 1165q14 -16 22.5 -35.5t18.5 -42.5 v17q0 16 14 24q-23 20 -55 37zM477 430q14 -23 23.5 -48.5t9.5 -51.5q0 61 -33 100zM500 119q35 35 55 83t20 101q0 63 -28 109q10 -37 10 -72q0 -57 -17 -117.5t-40 -103.5zM520 797q52 102 58 223q0 6 8 14q-10 27 -27 53q0 -70 -4 -131t-20 -112z" />
<glyph unicode="4" horiz-adv-x="880" d="M20 369q1 8 3 12q39 55 92 137t110.5 172t113.5 182.5t100 168t72 127t28 59.5q10 25 30 24q10 0 13 -14q-10 -211 -13.5 -421t-5.5 -419q41 2 58.5 1t44.5 3q23 0 22 -14q0 -20 -24 -27l-101 -6l-8 -303q10 2 14 2h23h26q16 -4 17 -14q0 -16 -45 -25.5t-97.5 -13.5 t-95.5 -5t-37 -1h-23.5t-35.5 1t-33.5 4t-15.5 9q0 20 27 25l26 4q8 14 11 49t4.5 80t0 94t1.5 92h-73t-101.5 2t-89.5 5t-38 10zM84 395h160h82q2 39 7 97.5t9 121t8 122t6 98.5zM360 39q10 0 20.5 1t10.5 17t-2 40t-2 46q0 27 1 66t1 76v34.5t-2 28.5l-4 -2q-4 0 -5 1 t-5 1q0 -43 1 -86t1 -84q0 -45 -2 -81t-13 -58zM375 393q4 0 5 -1t3 -1t4 2l6 309zM424 45q12 0 24.5 3t24.5 5q-4 16 -10 32.5t-10 43.5q-6 -35 -10.5 -49t-12.5 -27zM432 950q4 -2 4 -23.5t2 -27.5q-4 -35 -4 -69.5v-69.5q0 -53 1 -103.5t1 -97.5l19 96v86q0 74 2 144.5 t6 109.5q-8 -12 -16.5 -23t-14.5 -22zM444 369l7 -207l4 2l8 389q0 8 -2 25.5t-2 39.5q-6 -23 -9.5 -26.5t-3.5 -32.5q0 -20 1.5 -47t1.5 -55q0 -25 -1.5 -48.5t-3.5 -39.5zM508 352q2 -31 2 -65.5t1 -67.5t1 -57.5t2 -36.5l4 227h-10zM508 395h10q0 51 1 126t3 154t3 152.5 t1 126.5q-4 -72 -10 -163t-6 -173q0 -23 1 -39t1 -38v-38t-1 -43.5t-2 -39t-1 -25.5zM512 1069q6 -8 10 -15t4 -18q2 18 3.5 35t5.5 33q-4 -10 -10.5 -17.5t-12.5 -17.5z" />
<glyph unicode="5" horiz-adv-x="796" d="M18 1143q0 10 9.5 18t25.5 8q14 2 63.5 8.5t114 15.5t138 18.5t139 17.5t115 13t63.5 5q12 0 12 -10q0 -20 -38.5 -32.5t-91 -19.5t-107.5 -12.5t-86 -9.5q-14 -117 -23.5 -253t-9.5 -251q63 -4 136 -27.5t134.5 -64.5t102.5 -100t41 -135q0 -82 -41 -143.5 t-101.5 -102.5t-129 -61.5t-126.5 -20.5q-80 0 -156.5 29.5t-138.5 89.5q-2 2 -2 8q0 10 7.5 18.5t17.5 8.5q4 0 12 -4q23 -18 46.5 -35t51 -31t61.5 -22.5t79 -8.5q23 0 49.5 2t54.5 9q88 80 88 161q0 55 -35.5 105.5t-94 87.5t-131 60.5t-146.5 27.5q-14 2 -15 16 q0 20 23 25q-14 66 -18.5 139.5t-4.5 149.5t2.5 149.5t4.5 140.5q-18 -2 -37 -3t-37 -1q-20 0 -21 17zM168 825q0 -98 20 -180q-4 33 -6 69t-2 72q0 90 8.5 182.5t18.5 172.5l-12 -2q-10 -90 -18.5 -167t-8.5 -147zM215 553l4 -12q43 -6 93 -19.5t100 -29.5q-95 45 -189 57 q-4 0 -8 4zM229 842l27 260q0 4 1 19.5t3 25.5l-10 -2q-4 -31 -7 -71t-6.5 -81t-4.5 -81t-3 -70zM246 662q2 2 6 2h8q0 18 -1 43.5t-1 53v54.5v43q-2 -16 -4 -43t-3 -54.5t-2 -54t-3 -44.5zM276 754q2 43 9.5 95t15.5 106.5t16.5 106.5t14.5 95l-25 -4q-2 -39 -7 -92 t-10 -108.5t-9.5 -107.5t-4.5 -91zM334 602q2 0 5 1t5 1l18 10q-14 0 -20 2zM453 467q29 -27 54.5 -53.5t43.5 -59.5q-8 49 -29.5 69.5t-68.5 43.5zM465 569q2 0 6 -4q59 -23 104 -47q-47 29 -110 51zM492 80q12 0 24 19.5t31 29.5v4q-8 0 -10 2zM549 481l12 -16 q14 -10 28.5 -21.5t24.5 -25.5v10q0 10 2 14q-27 18 -67 39zM588 238q2 -7 2 -21q14 20 19 39.5t5 38.5q0 43 -24 78q2 -14 2 -28.5v-31.5v-39.5t-4 -35.5zM592 160l31 14q20 31 24 62l-6 -13q-12 -16 -23.5 -32.5t-25.5 -30.5zM662 410q8 -45 19 -84t11 -74v-18.5t-4 -18.5 q14 25 19.5 52.5t5.5 51.5q0 43 -51 91z" />
<glyph unicode="6" horiz-adv-x="813" d="M31 463q0 92 13 191.5t34.5 196.5t46.5 186t49 163l-45 6q-16 0 -16 13q0 10 10 19t20 11l342 -12q14 -6 15 -14q0 -20 -22.5 -24.5t-39.5 -4.5q-33 -102 -55.5 -190.5t-37.5 -175.5t-25.5 -176t-18.5 -189q49 59 123 94t147 35q115 0 163 -52.5t48 -121.5 q0 -47 -16 -96.5t-45 -96.5q-68 -113 -148.5 -169t-191.5 -56q-100 0 -167 36t-107.5 99.5t-58 147.5t-17.5 180zM111 350q0 -57 9 -114.5t36 -106.5q-4 41 -11.5 78t-9.5 72l-6 110l-6 98v30.5t2 31.5l-6 -60q-4 -31 -6 -66.5t-2 -72.5zM154 780q12 59 24 105.5t23.5 89.5 t24 90.5t24.5 108.5q-20 -55 -34.5 -99.5t-25 -88.5t-18.5 -93t-18 -113zM176 438q0 -35 1 -70.5t3 -70.5q2 -59 14.5 -109.5t12.5 -107.5l16 -2q-23 72 -32 144.5t-9 148.5q0 61 6 127l-10 -2q0 -14 -1 -28.5t-1 -29.5zM211 1182q4 4 7 8t7 6h-8q-2 -4 -4 -7t-2 -7z M231 410q0 -82 9.5 -163t31.5 -161q2 0 4 2l11 -6q-12 31 -18.5 64.5t-10.5 62.5t-6 50.5t-2 25.5v2q0 4 -6 12t-6 18q0 16 10 43v43q0 205 44 406t101 383l-24 -4q-51 -186 -94.5 -383t-43.5 -395zM248 1194q4 -4 4 -10q0 -4 -2 -6q6 4 22 16h-24zM287 1192l6 -8q0 4 6 10z M295 293q0 -45 9 -89t27.5 -80t46.5 -57.5t64 -21.5q57 0 110.5 41t94.5 98.5t65.5 117.5t24.5 99q0 29 -13 56.5t-36.5 49t-54.5 35t-66 13.5q-66 0 -132 -34t-101 -79q-20 -27 -29.5 -65.5t-9.5 -83.5z" />
<glyph unicode="7" horiz-adv-x="817" d="M16 1174q0 8 7.5 17t17.5 11q61 4 148 8t183.5 11.5t193 16.5t175.5 22q10 -2 11 -11q0 -6 -9.5 -13t-17.5 -15q-80 -297 -150.5 -587t-166.5 -583l73 -6q14 0 15 -12q0 -8 -8.5 -16.5t-18.5 -8.5l-428 -16q-14 2 -14 12q0 23 28 33l72 -4q33 96 64.5 208.5t62.5 227.5 t56.5 225.5t44 204.5t29.5 166t11 109q-37 0 -84 -1.5t-96 -3.5t-97 -3t-85 -3q-16 0 -17 11zM170 33h25q0 2 -1 3t-1 3t1 5t1 7q2 16 4 33.5t4 36.5zM231 119q4 12 9.5 18t7.5 10l2 17q6 33 15 67.5t18.5 67.5t18.5 61.5t15 49.5q27 96 53.5 188t50 186.5t41 189.5 t23.5 197l-12 -2q-2 -68 -22.5 -165t-50 -210.5t-64.5 -237.5t-62 -245q-10 -47 -23 -99t-20 -93zM287 57l35 6q12 61 28.5 151.5t36 189t42 197.5t44.5 181l39 162q-23 -61 -39 -106t-37 -109q-16 -76 -38.5 -183.5t-46 -210t-41 -181t-23.5 -97.5zM369 94 q16 57 41.5 145.5t54.5 193t57.5 216t53 216t43 194.5t22.5 151q-4 -2 -12 -2h-13q-8 -31 -15 -60.5t-13 -60.5l2 -2q-4 -49 -19.5 -127.5t-36 -173t-45 -196t-47 -195.5t-43 -172t-30.5 -127zM512 1014q20 53 33.5 101t27.5 87l-32 -18q-4 -45 -13.5 -86t-15.5 -84z" />
<glyph unicode="8" horiz-adv-x="800" d="M29 913q0 54 14 109q14 53 45 93t74 65.5t93 38t103 12.5q59 0 116.5 -16.5t103 -47t73 -77t27.5 -105.5q0 -47 -16.5 -93t-43 -90t-60.5 -86t-66 -79l43 -27q45 -29 86 -60.5t71.5 -65t49 -70.5t18.5 -76q0 -88 -51.5 -149.5t-125 -99.5t-156.5 -55.5t-146 -17.5 q-37 0 -81 16.5t-81 45t-61.5 67.5t-24.5 84q0 49 21.5 95.5t56 88.5t76.5 77.5t85 64.5q-49 35 -94 73t-77.5 81t-52 93t-19.5 111zM74 936q2 2 6 2h4q0 8 -2 15.5t-4 17.5zM78 240q0 -47 19.5 -80t51 -53.5t72.5 -30.5t82 -10q49 0 99.5 13t89 36.5t63.5 56.5t25 74 q0 29 -16.5 59.5t-41 58t-54 53.5t-54.5 46q-25 16 -49.5 32.5t-51.5 30.5q-43 -29 -85 -57.5t-75.5 -62t-54 -74.5t-20.5 -92zM98 793q31 -70 90 -119t127 -88q-59 41 -117.5 93t-99.5 114zM121 991q4 -47 26.5 -92t49.5 -84l18 -22q-27 47 -47.5 103t-20.5 110 q0 37 12.5 70.5t41.5 62.5l10 14q-10 -6 -21.5 -10t-21.5 -13q0 -16 -21 -20q-4 0 -8 -16.5t-8 -37t-7 -40t-3 -25.5zM197 1020q0 -33 6 -66q0 29 3 58.5t13 62.5q6 29 25 62q-27 -18 -37 -48t-10 -69zM250 975q0 -109 56 -182.5t134 -126.5q61 47 110.5 101t72.5 126 q12 37 12 72q0 47 -21.5 87t-57.5 69.5t-81 46t-92 16.5q-45 0 -71.5 -23.5t-40 -57.5t-17.5 -70t-4 -58zM358 555l9 -4l8 8t10 6l-4 4q-6 -6 -19 -10zM410 524q72 -43 128 -96.5t76 -112.5q6 -31 7 -57v-17.5t-3 -17.5q0 12 3.5 25.5t3.5 25.5q0 45 -17.5 82t-46.5 68 t-63.5 57.5t-71.5 53.5zM467 567q39 -27 75 -56.5t63.5 -64t45 -75.5t17.5 -90q0 -10 -1 -21.5t-3 -23.5q12 16 20 33.5t8 37.5q0 31 -19.5 65t-50 67.5t-71.5 66t-84 61.5zM594 166l12 10l8 27z" />
<glyph unicode="9" horiz-adv-x="788" d="M33 817q0 37 5 77t14 77t21.5 66.5t26.5 47.5q25 29 50.5 57.5t59.5 52.5t77 38t98 14q57 0 119.5 -23.5t116 -76.5t88 -138t34.5 -210q0 -102 -19 -192.5t-53 -168.5t-77 -144.5t-88 -117.5t-96.5 -87t-99.5 -59.5t-87 -33.5t-59 -10q-23 0 -23 16q0 10 7.5 18.5 t17.5 8.5q2 0 4 -1t4 -1q72 37 128 94t97 125.5t68 145.5t39 153q-72 -23 -154 -23q-61 0 -118.5 15.5t-101.5 49.5t-71.5 90t-27.5 140zM72 829q0 -66 24.5 -123t77.5 -98q57 -43 184 -43q35 0 72 3t78 12q18 86 18 172q0 84 -20.5 157.5t-55 128t-81.5 86t-101 31.5 q-45 0 -81.5 -35t-62.5 -86t-39 -106.5t-13 -98.5zM459 197q88 119 137 255t49 281q-2 31 -2 62.5t-8 62.5l-19 78l-22 70l16 -88q8 -45 11.5 -91.5t3.5 -89.5q0 -147 -40 -281t-126 -259zM473 311q35 61 53.5 125t34.5 129l-14 -4q-16 -68 -30.5 -131t-43.5 -119zM553 596 l14 8q12 63 13 133q0 43 -7 90v-24q0 -53 -5 -104.5t-15 -102.5zM600 1096q12 -25 28.5 -53.5t31 -66.5t23.5 -88t9 -116v-39.5t-2 -36.5q12 61 12 125q0 72 -19.5 136.5t-66.5 119.5q-4 4 -8 9.5t-8 9.5z" />
<glyph unicode=":" horiz-adv-x="327" d="M37 174q0 72 43 108.5t86 36.5q59 0 89 -49t30 -106q0 -47 -22.5 -85t-69.5 -42q-4 0 -9.5 -1t-9.5 -1q-74 0 -105.5 44t-31.5 95zM37 702q0 74 43 110t86 36q59 0 89 -49t30 -107q0 -47 -22.5 -85t-69.5 -42q-4 0 -9.5 -1t-9.5 -1q-74 0 -105.5 44t-31.5 95zM86 193 q0 -31 9 -46.5t24 -23.5q-12 37 -13 72q0 23 7 45l-9 6l-8 -6q-10 -18 -10 -47zM86 721q0 -29 9 -45.5t24 -24.5q-12 37 -13 72q0 23 7 47l-9 4l-8 -4q-10 -18 -10 -49zM154 78q12 -4 16 -4q10 0 23.5 5t23.5 9q-16 -6 -29 -6q-4 0 -6 1t-4 1zM154 236q4 10 9 18t13 16 q-2 0 -5 1t-5 1l-6 -12q-6 -4 -6 -24zM154 606q4 -2 14 -2q25 0 49 14q-16 -6 -29 -6q-6 0 -10 2zM154 766q10 21 22 33q-2 0 -5 1t-5 1l-6 -13q-6 -4 -6 -22zM178 182q0 -12 3 -24.5t12 -18.5q31 27 30 58q0 10 -4 19t-14 17q-12 -2 -19.5 -17t-7.5 -34zM178 711 q0 -29 15 -41q31 27 30 57q0 23 -18 35q-12 -2 -19.5 -17.5t-7.5 -33.5z" />
<glyph unicode=";" horiz-adv-x="327" d="M37 172q0 59 33.5 103t95.5 44q35 0 61.5 -20t45 -50t27.5 -64.5t9 -63.5q0 -49 -15 -96.5t-42 -87t-59.5 -67.5t-65.5 -36q-4 -2 -10 -2q-14 0 -24.5 7t-10.5 18q0 18 16.5 21t37 10.5t36.5 24.5t16 62q0 27 -6 62q-4 0 -9 -1t-9 -1q-66 0 -96.5 43t-30.5 94zM37 702 q0 74 43 110t86 36q59 0 89 -49t30 -107q0 -47 -22.5 -85t-69.5 -42q-4 0 -9.5 -1t-9.5 -1q-74 0 -105.5 44t-31.5 95zM86 195q0 -31 9 -46.5t24 -23.5q-12 37 -13 72q0 23 7 47l-9 4l-8 -4q-6 -10 -8 -23.5t-2 -25.5zM86 721q0 -29 9 -45.5t24 -24.5q-12 37 -13 72 q0 23 7 47l-9 4l-8 -4q-10 -18 -10 -49zM154 80q8 -2 22 -2q0 4 -2 6zM154 606q4 -2 14 -2q25 0 49 14q-16 -6 -29 -6q-6 0 -10 2zM154 766q10 21 22 33q-2 0 -5 1t-5 1l-6 -13q-6 -4 -6 -22zM160 264l4 -6q2 4 12 14q-2 0 -5 1t-5 1zM178 711q0 -29 15 -41q31 27 30 57 q0 23 -18 35q-12 -2 -19.5 -17.5t-7.5 -33.5zM180 209l23 -57q20 25 20 47q0 10 -4 19.5t-14 17.5q-18 -2 -25 -27zM229 47q2 -14 3 -27.5t1 -29.5q10 23 19.5 47t13.5 49q-6 -12 -16 -21.5t-21 -17.5z" />
<glyph unicode="&#x3c;" horiz-adv-x="534" d="M35 532q0 18 44 60.5t103.5 93.5t121.5 100t97 84q6 6 15 7q20 0 20 -23q0 -12 -8 -20q-33 -33 -83 -77t-99 -86t-90 -77t-56 -49l51 -25.5t79 -39t91.5 -44t86 -44t63.5 -38t25 -22.5q0 -23 -27 -23q-6 0 -10 2q-29 12 -79 38t-108.5 54.5t-118 56t-106.5 46.5 q-6 2 -9 9t-3 17z" />
<glyph unicode="=" horiz-adv-x="636" d="M37 461q0 10 8 21.5t18 13.5q23 4 87.5 8t141.5 9t150.5 8t116.5 5q16 -4 16 -14q0 -16 -35.5 -26.5t-89 -18.5t-116 -12t-117.5 -6.5t-94 -3.5t-43 -1h-25q-18 0 -18 17zM37 647q0 10 8 20.5t18 14.5q23 2 87.5 7t141.5 9t150.5 8.5t116.5 6.5q16 -4 16 -17 q0 -14 -34.5 -25.5t-88 -18.5t-116 -11t-116.5 -6t-93 -3t-43 -1h-29q-18 0 -18 16z" />
<glyph unicode="&#x3e;" horiz-adv-x="534" d="M31 332q0 6 24.5 22.5t63.5 38t86 45t91 44t80 38t50 25.5l-56 49t-89.5 77t-99.5 86t-83 77q-8 8 -8 18q0 25 21 25q4 -1 14 -7q35 -33 97.5 -83t123 -101t104.5 -93t44 -61q0 -8 -4.5 -16t-10.5 -10q-47 -18 -105.5 -46t-116.5 -56.5t-108.5 -54t-80.5 -38.5 q-4 -2 -11 -2q-27 0 -26 23z" />
<glyph unicode="?" horiz-adv-x="802" d="M27 1135q0 14 34.5 26.5t86 22.5t109.5 16t105 6q74 0 146 -15t129 -51t92 -94.5t35 -146.5q0 -61 -28.5 -106t-73 -83t-94.5 -69t-94 -61.5t-73.5 -64.5t-31.5 -75q0 -18 8 -32.5t12 -30.5l25 6q16 -2 16 -14q0 -14 -19.5 -24.5t-46 -16.5t-56 -9.5t-48.5 -3.5h-25.5 t-30 2t-23.5 7.5t-9 13.5q0 18 23 22q-29 63 -29 121q0 61 28.5 110.5t72.5 91.5t95.5 78t96.5 71.5t75.5 73.5t34.5 83v21q0 45 -13 75.5t-32 53.5q0 8 -17.5 13t-40 8t-47 5t-38.5 2q-47 0 -96 -5t-94.5 -12t-81 -16.5t-56.5 -15.5q-2 0 -4 -1t-4 -1q-18 0 -18 19zM215 76 q0 29 16.5 61.5t42 60t54 46t53.5 18.5q27 0 46 -12t31.5 -30.5t18.5 -38t6 -31.5q0 -29 -13 -56.5t-34.5 -50.5t-49.5 -37t-58 -14q-16 0 -33 4t-33 14q-47 18 -47 66zM233 487q0 -10 3 -14q0 29 9 63.5t27 57.5q0 6 1 9t1 5q4 10 12.5 16.5t18.5 6.5q35 31 65.5 52.5 t60.5 44t58.5 51t59.5 73.5q-55 -55 -110.5 -91t-101.5 -72t-75 -82t-29 -120zM246 352h2h-2zM274 444q0 -23 7.5 -43t25.5 -43l4 27q-10 18 -19 36.5t-16 41.5q0 -4 -1 -9t-1 -10zM311 553q0 -16 1 -30.5t3 -24.5q4 23 10.5 54.5t18.5 53.5l-31 -31q0 -4 -1 -10t-1 -12z M317 123q0 -41 16.5 -49t39.5 -8q18 0 28 6q-23 10 -45 33.5t-22 50.5v6q2 4 5 8t7 8q-20 0 -24.5 -19.5t-4.5 -35.5zM362 545q27 39 68 68.5t83 58t76 61.5t44 80q-31 -43 -58.5 -65.5t-55 -40t-58.5 -38t-68 -63.5q-14 -12 -20.5 -28.5t-10.5 -32.5zM367 217h10l-2 2 q-4 0 -5 -1t-3 -1zM385 147q6 -10 14.5 -19t18.5 -15q-4 10 -13.5 20t-19.5 14zM399 193q0 -2 2 -3v5zM522 748q45 35 70.5 72.5t30.5 88.5q-10 -43 -40 -86.5t-61 -74.5zM590 1106h2l8 -8h2h2h4l-18 12v-4zM647 1067q16 -39 32.5 -84t16.5 -84q0 -35 -11 -68.5t-30 -62.5 q10 10 17.5 22.5t17.5 24.5q29 51 29 98q0 43 -19.5 82t-52.5 72z" />
<glyph unicode="@" horiz-adv-x="1370" d="M57 514q0 143 57.5 272t156 224.5t228.5 152t275 56.5q61 0 122.5 -11.5t117 -34t101.5 -59.5t79 -86q66 -98 90.5 -191.5t24.5 -179.5q0 -61 -9.5 -122.5t-28 -110.5t-48 -80t-68.5 -31q-31 0 -62.5 14.5t-59 39t-49 56.5t-32.5 66q-27 -10 -55.5 -18t-60.5 -14 q-8 -53 -13.5 -103.5t-9.5 -103.5q25 6 54.5 14t52.5 8q16 0 16 -14q0 -10 -10.5 -18.5t-36 -16.5t-70.5 -16t-112 -17q-8 -4 -13 -4q-2 0 -4 2q-29 -4 -54.5 -6t-47.5 -2q-23 0 -39 4q-12 2 -12 15q0 10 7 18t19 12h53q2 31 16.5 94.5t35 141.5t46 161t52.5 150.5 t50.5 111.5t39.5 44q10 0 20.5 -22.5t20.5 -58.5t20.5 -81t20.5 -88t19.5 -81t19.5 -60q35 14 79 32.5t81 18.5q14 0 14 -12t-16.5 -22.5t-40 -20t-50 -17.5t-49.5 -16q10 -16 28.5 -42t41 -50.5t48.5 -42t48 -17.5q25 0 43.5 28t30.5 70t18.5 92t6.5 93q0 96 -23 184 t-70 160t-120.5 120t-176.5 64q-123 -18 -226 -79.5t-178 -151.5t-118 -200.5t-43 -227.5q0 -78 22.5 -151.5t72 -135t125 -106.5t182.5 -68q20 -4 30 -4q88 14 174 55t187 107h6q16 0 16 -13q0 -16 -16 -26q-106 -80 -218 -132.5t-237 -52.5q-37 0 -74.5 5.5t-78.5 17.5 q-119 35 -203 89t-136.5 122t-76 144.5t-23.5 158.5zM115 432q14 -78 50 -149.5t101 -126.5q-14 18 -25.5 38.5t-21.5 38.5l-14 25q-23 23 -38 37t-17 20zM176 524q0 -41 17 -84q-6 23 -8.5 47.5t-2.5 49.5t2 49t6 49q-6 -23 -10 -47.5t-4 -48.5v-15zM223 551q0 -96 39 -176 q-20 68 -20 143q0 117 41.5 229.5t113.5 210.5q-84 -88 -129 -183t-45 -224zM248 870q39 51 85 84t103 76q16 12 27.5 26.5t28.5 20.5l12 10q-74 -29 -139.5 -80t-116.5 -137zM256 319q14 -23 33 -43t39 -40q-18 23 -30.5 49t-23.5 55q-4 -20 -18 -21zM387 111l31 -11 q-6 6 -14.5 11.5t-16.5 13.5v-14zM659 229h25q2 96 21.5 193.5t42.5 183.5q-35 -109 -59.5 -212t-29.5 -165zM729 233h8v52zM774 348q0 27 8.5 51.5t12.5 51.5q-8 -4 -12.5 -15.5t-6.5 -27t-2 -32v-28.5zM784 492h8.5t8.5 2q8 51 14 101t10 103l-26 -118q-4 -16 -7.5 -39 t-7.5 -49zM842 500q25 6 48 13t46 13q-10 20 -17.5 48t-13.5 56.5t-12 57.5t-14 49q-2 -25 -6.5 -56.5t-10.5 -63t-11 -62.5t-9 -55zM862 803q0 4 4 8l2 2l-4 10q0 -6 -1 -10t-1 -10z" />
<glyph unicode="A" horiz-adv-x="1097" d="M14 37q0 27 28 34t54 7q20 0 40 -2t40 -6l10 55q11 55 27 145t36.5 205t43 238t46.5 241.5t44 216.5q-10 0 -27.5 3.5t-17.5 13.5q0 12 45 23.5t102.5 20.5t112.5 14t76 7q16 -2 16 -14q0 -14 -14 -25q20 -115 48 -258t59.5 -296.5t63.5 -307t58 -289.5q37 2 76 3.5 t78 1.5q16 -4 16 -15q0 -10 -9 -19t-22 -9q-29 0 -51 -3.5t-45.5 -6.5t-51.5 -5t-65 -2h-32.5t-46 2t-42 6t-18.5 13q0 8 8.5 17t18.5 11q12 0 24.5 -1t24.5 -1q6 0 12 1t13 1q-12 35 -25.5 90.5t-26 120t-20.5 131t-10 123.5h-11q-12 -4 -26.5 -6t-28.5 -2l-125 -16 q-29 -119 -50 -227.5t-38 -213.5q0 -25 -6 -35t-57 -10q-8 0 -64.5 2t-121 5.5t-117 7.5t-52.5 10zM340 713l104 452q-6 -2 -10 -4t-6 -14zM344 332l152 663q-16 -45 -37 -93t-41 -99q-16 -92 -34 -187.5t-30 -183.5q-2 -4 -3 -18.5t-7 -81.5zM371 63q8 49 21.5 121 t25.5 138.5t20 114.5t11 55q-6 0 -12.5 -1.5t-12.5 -1.5q-12 -78 -31.5 -187.5t-21.5 -238.5zM438 551l13 8h12q23 125 52.5 254t39.5 262q-37 -129 -65.5 -270t-51.5 -254zM479 1114q11 32 25 57q-25 -6 -25 -20v-37zM535 559q20 1 39.5 1t37.5 -1q12 -1 22 -1q22 0 42 3 l31 4q-4 33 -12.5 84t-18.5 108.5t-19.5 115t-11.5 102.5q-20 -78 -41.5 -156t-42.5 -155zM539 721q23 96 47 189.5t45 189.5q-2 8 -2 16v17zM545 1163l6 17zM606 1192l4 -25q10 0 15 -2q-2 6 -2 14.5v16.5zM770 412q6 -66 13 -139.5t30 -139.5q-4 70 -15.5 140.5 t-27.5 142.5v-4zM852 59h10q0 23 -2 46.5t-6 46.5v-46.5t-2 -46.5z" />
<glyph unicode="B" horiz-adv-x="948" d="M31 1180q0 14 25.5 24t69.5 18.5t104.5 12.5t129.5 4q84 0 178.5 -25.5t174.5 -76t133 -127t53 -181.5q0 -55 -22.5 -96t-61.5 -74.5t-92 -61.5t-113 -52q49 -18 93.5 -46t79 -62t55 -73.5t20.5 -84.5q0 -72 -36 -126.5t-99.5 -90t-150.5 -53t-189 -17.5q-25 0 -81 2 t-114.5 8t-102.5 16.5t-44 28.5q0 10 8 18.5t19 8.5q14 0 33.5 -5.5t33.5 -9.5q-2 18 -2 38v40q0 74 4 154t4 139q0 135 -10 245.5t-10 227.5q0 111 18 240q-4 -2 -10 -2q-12 0 -12 12q0 2 4 14q-18 0 -36 -1t-34 -1q-20 0 -20 15zM195 1128q0 2 2 5v6q0 12 9 21t19 9 t15 -16q0 -70 3 -128t9 -113.5t13 -113t14 -124.5l6 69q-2 57 -4 105.5t-3.5 94.5t-1.5 94.5v107.5q0 12 9.5 21.5t19.5 9.5q12 0 14 -17v-74q0 10 1.5 20.5t1.5 20.5v58l-111 -10q-4 0 -7 -1.5t-5 -1.5q-2 -2 -4 -2v-41zM233 84q8 -4 13.5 -8t13.5 -6q-4 27 -5 58.5 t-1 66.5q0 70 3 129t3 106q0 14 -2 25.5t-2 23.5l-23 4v-399zM233 520l3 2l14 10q-4 35 -8 73t-9 73v-158zM330 733q0 -41 1 -84t3 -84l24 4v54q0 31 -1 50t-3 36.5t-5 38t-5 51.5zM336 479q2 -31 3 -67.5t2 -76.5t1 -77v-68q2 31 4 69t4 77t4 76t2 67h-20zM346 524l12 2 q-4 0 -7 -1t-5 -1zM367 1130q2 -59 5 -116.5t9 -116.5v291h-12v-27.5t-2 -30.5zM377 43h10q4 0 8 -1t8 -1q0 41 -6 69.5t-12 69.5zM424 1174q2 2 6 2q12 0 19 -17v-137.5t1 -124.5t2 -125.5t3 -140.5v-56q27 -2 50 -6t48 -8q59 18 114.5 47t97.5 66t66.5 81t24.5 93 q0 59 -39 117.5t-100.5 105.5t-139 80t-153.5 41v-18zM444 104q4 -16 4.5 -31.5t0.5 -31.5q90 2 158.5 24.5t114.5 55.5t68.5 69.5t22.5 69.5q0 41 -22.5 81t-60.5 75t-87 61.5t-102 40.5l-82 -22q2 -39 3 -85t1 -94q0 -53 -2 -103t-6 -91q-4 -14 -11 -19z" />
<glyph unicode="C" horiz-adv-x="753" d="M35 623q0 129 25.5 246.5t93.5 240.5q39 68 102 101.5t131 33.5q43 0 85 -14t76 -44t56.5 -75t28.5 -104q-2 -10 -10.5 -18.5t-18.5 -8.5q-12 0 -14 14q-2 18 -14.5 51t-31 65t-42 54.5t-47.5 22.5q-39 0 -68 -54.5t-48.5 -136.5t-28.5 -178t-9 -180q0 -94 8 -184 t22.5 -164t34 -126t44.5 -71q43 -35 90 -35q41 0 72.5 21.5t56 48.5t41 48.5t26.5 21.5q14 0 17 -17q-12 -49 -40 -84t-65 -56.5t-80 -31.5t-88 -10q-92 0 -157.5 29.5t-110.5 80t-72.5 116t-42 134t-18.5 137t-4 126.5zM76 633q0 -47 3 -91t7 -87q0 51 2 112.5t8 126 t16.5 127t26.5 115.5q23 59 52.5 112.5t58.5 106.5q-16 -16 -32 -29.5t-28 -29.5q-66 -88 -90 -211t-24 -252zM129 573q0 -203 66 -395h2q12 0 12 -12q0 -4 -2 -9t-2 -16l20 -18q-16 49 -27.5 107.5t-19.5 118t-11 113.5t-3 95q0 49 5 97t13 101.5t16.5 115t12.5 135.5 q-45 -104 -63.5 -213t-18.5 -220zM207 504q0 -33 3 -69t11 -66.5t23 -34.5l14 -21q-4 49 -8 92.5t-9 84t-9.5 82.5t-8.5 90q-2 2 -2 6t2 8v2q-4 20 -4 43q-4 -51 -8 -92t-4 -82v-43zM256 178l2 -4q0 2 -1 2t-1 2zM258 1018q10 51 23.5 97t35.5 77l-43 -23h7q12 0 12 -14 l4 -2q-4 0 -4 -6q-16 -33 -24.5 -64.5t-10.5 -64.5zM260 633v37v-25v-12zM279 84l20 -10l-10 14zM301 221l18 -37q-4 27 -11 57.5t-7 65.5v-86zM342 127l12 -43q10 -14 11 -18q0 -2 -1.5 -3.5t-1.5 -3.5h11v4zM389 1206l6 -6l6 8q-4 0 -6 -1t-6 -1z" />
<glyph unicode="D" horiz-adv-x="1050" d="M16 1202q0 14 9.5 26.5t17.5 12.5h31q31 0 69.5 1t85.5 1q90 0 191.5 -14.5t193.5 -65.5q86 -41 161 -95t129 -118.5t85 -135.5t31 -140q0 -98 -51 -185.5t-134 -161t-184.5 -133t-203 -100.5t-191.5 -63.5t-147 -22.5q-29 0 -48.5 4t-19.5 21q0 6 2 10l10 12q8 12 25 13 q16 0 16 -13v-4l39 6q4 -2 5 15.5t5 36.5q-4 260 -18 538.5t-14 538.5q-16 -2 -33 -3t-31 -1t-20 2q-10 4 -11 18zM154 1186q4 -207 22.5 -429t18.5 -440q0 -106 -7 -206h13q-4 209 -9.5 439t-9.5 439l-8 197h-20zM217 1188q6 -2 8 -14v-220v-172l19 222q-4 45 -5 92t-3 96z M256 356q0 -14 2 -20l16 188q0 20 -1 63.5t-1 63.5zM279 115h10l-4 45zM299 877.5q0 -20.5 2 -43.5q8 88 15.5 179t29.5 175q-10 0 -18.5 2t-16.5 2q0 -43 -6 -109.5t-6 -164.5v-40.5zM319 610q10 -59 19.5 -140t17.5 -140v98l-8 471q-4 -72 -12 -144.5t-17 -144.5zM410 119 q92 31 190 93t179 138t134.5 157t53.5 146q0 33 -11.5 68t-30 68.5t-41 65t-42.5 56.5q-82 98 -186.5 165t-227.5 104q0 -125 -3 -259.5t-6 -271.5t-6 -271t-3 -259z" />
<glyph unicode="E" horiz-adv-x="745" d="M16 575q0 10 8.5 18.5t18.5 10.5h45l8 184q-2 100 -5 202t-3 202q-8 0 -16.5 -1t-16.5 -1q-35 0 -35 16q0 10 8.5 18.5t18.5 10.5h8q8 0 34 1t91.5 2t182 2t307.5 3q14 -2 14 -16q0 -20 -25 -27q-35 0 -77.5 1t-85.5 1q-94 0 -164 -6q4 -33 7 -65.5t3 -65.5 q0 -61 -4 -121.5t-6 -120.5l8 -202q66 6 130.5 15t129.5 19q16 -4 16 -16q0 -16 -32.5 -27.5t-76.5 -17.5t-91 -10t-76 -6q2 -68 3 -140.5t2 -140.5t2 -127t1 -102l-2 -13q70 6 137.5 11.5t134.5 5.5h29t32 -1t26.5 -4.5t11.5 -9.5q0 -16 -15.5 -22t-35.5 -6 q-53 0 -107.5 -3t-119 -7.5t-140.5 -9.5t-170 -9v-8q0 -23 -20 -23t-31 29l-27 4q-18 0 -18 14q0 8 8 16.5t18 10.5h13q-2 10 -2 31q0 23 1 46t3 46l12 395h-49q-20 0 -21 14zM137 305q0 -23 1 -43t1 -43q0 23 1 54.5t1 80.5v209h-4v-258zM139 43h58q-2 49 -2 98v99 q0 72 2 143t6 143q0 4 -1 14.5t-1 24.5h-8l-5 -170q0 -78 -2 -155.5t-4 -155.5l-2 -6q-6 -20 -26 -21q-10 0 -13 9q0 -6 -1 -11.5t-1 -11.5zM141 606v248v-55v-193zM195 608h6q-2 61 -3 153.5t-1 180.5v156v80q0 -6 -1 -46t-1 -98.5v-127v-130v-107.5v-61zM246 537 q0 -98 6 -199.5t6 -214.5v-38.5t-2 -39.5l47 6q-2 2 -2 12q0 4 -1 8.5t-1 10.5l-4 -2q-12 0 -20.5 18.5t-11.5 46t-4 58t-1 53.5v57v39l-10 215q-2 -10 -2 -16v-14zM256 965q0 -33 2 -53.5t6 -18.5q0 -20 -1 -39.5t-1 -40.5q6 29 10 53q0 51 -3 104.5t-3 106.5q0 31 2 61.5 t6 61.5l-18 -2q0 -16 1 -35.5t1 -40.5q0 -41 -1 -82t-1 -75z" />
<glyph unicode="F" horiz-adv-x="935" d="M16 1163q0 6 7 17q2 6 54 19t142 26.5t214 24t267 10.5q98 0 207 -7l2 -2q6 -6 6 -14q0 -18 -43 -24.5t-111.5 -6.5t-152.5 1h-56q-56 0 -110 -1v-131.5t1 -141.5t1 -140.5v-130.5h37h63t80 -1.5t69.5 -6.5t29.5 -13q0 -10 -9 -18.5t-22 -8.5q-61 0 -123.5 3.5 t-124.5 3.5v-115q0 -27 2.5 -50.5t2.5 -47.5q0 -66 -5.5 -132.5t-11.5 -132.5l-4 -84q25 8 45.5 21.5t34.5 13.5h4h6q8 -6 8 -16t-14 -25q-10 -4 -29.5 -13t-56.5 -18.5t-96.5 -16.5t-145.5 -7h-41.5t-46.5 2q-12 2 -12 14q0 10 7 18.5t20 10.5h45q-2 20 -2 39.5v40.5 q0 27 2 50.5t4 48t4 52t2 62.5q0 45 -4 113.5t-10.5 150.5t-10.5 171t-4 175q0 63 3 122.5t12 113.5q-43 -8 -80 -21.5t-41 -13.5q-14 0 -15 16zM188 852q2 -23 5.5 -51.5t6.5 -60t5 -62.5t4 -53q6 0 9 18.5t3 44v52v42.5q0 61 -2 112.5t-4 99.5t-5 94.5t-3 97.5h-12z M195 41h49l-6 22q-6 6 -11.5 55.5t-8.5 109t-5 115.5t-2 79l-6 -135q-2 -23 -1 -43.5t1 -42.5v-73t-4 -75l-4 -8q0 -2 -1 -2t-1 -2zM281 991q0 -41 1 -82t3 -84l6 111q4 63 11 123.5t28 122.5l2 4l8 10l-43 -4q-10 -51 -13 -100.5t-3 -100.5zM303 143q6 -18 11 -37.5 t14 -37.5l6 -5q-6 43 -8 90.5t-3 105.5t-3.5 132t-6.5 168l-10 -215q-1 -10 -1 -23t1 -30t1 -34t-1 -36v-78zM336 885q0 -49 3 -98.5t7 -88.5v9v258q8 27 8 51t-2 51l-10 -51q-6 -55 -6 -131zM384 418l13 -129l4 217q-2 27 -3 55.5t-5 56.5h-8q0 -51 -0.5 -101t-0.5 -99z " />
<glyph unicode="G" horiz-adv-x="870" d="M35 588q0 182 29.5 308t73.5 204t96.5 112.5t99.5 34.5q51 0 116.5 -55t124.5 -137q5 63 15 116q2 10 10 16.5t16 6.5q14 0 15 -16q0 -66 -7.5 -135.5t-9.5 -135.5q-8 -27 -30 -26q-14 0 -15 18v49.5t4 50.5q-12 12 -27.5 30t-30.5 36t-31.5 35.5t-34.5 27.5 q-31 -23 -52.5 -71.5t-36 -114t-20.5 -141.5t-6 -154q0 -92 10 -182t30.5 -164t51.5 -126t74 -71q2 -2 12 -2t36.5 5.5t88.5 21.5q-2 92 -3 190.5t-1 192.5q-47 -2 -92 -3t-90 -1q-20 0 -21 14q0 10 8 18.5t19 10.5l379 14v-2q10 -6 10 -14q0 -18 -23 -27l-147 -10 q4 -127 13 -251t9 -251v-68.5t-3 -82.5t-12 -71t-30 -30q-12 0 -12 11q0 4 2 8q0 74 -1 153.5t-1 151.5q-53 -27 -121.5 -57.5t-140.5 -30.5q-47 0 -86 16.5t-72 41t-57.5 55t-44.5 61.5q-45 63 -64.5 177t-19.5 243zM70 618q4 14 24 23q0 78 4.5 151.5t20.5 159.5 q-25 -78 -37 -162.5t-12 -171.5zM133 356q16 -82 50 -150.5t98 -119.5q-18 20 -35 43t-25 39q-59 84 -88 188zM172 788q0 -43 6 -92q4 66 6 134.5t21 130.5q-18 -43 -25.5 -85t-7.5 -88zM211 500q0 -72 16.5 -143.5t57.5 -153.5v2q-8 23 -10.5 42t-4.5 29l-6 15 q-23 53 -30 122.5t-7 147.5q0 41 1 80t1 78l-8 -35q0 -53 -5 -101t-5 -83zM270 938l9 25q2 10 12 42.5t24 71.5l-14 -14t-14 -12l-2 -2q-4 -29 -7.5 -55.5t-7.5 -55.5zM272 625q0 -98 11.5 -194.5t52.5 -174.5q-4 17 -4 33q-12 80 -23.5 190.5t-11.5 227.5q0 68 5 132 t17 122q-2 -2 -2 -5v-2q-23 -78 -34 -160.5t-11 -168.5zM342 1143q8 10 13.5 21.5t13.5 19.5q-6 0 -10.5 1t-8.5 1q-8 0 -8 -4q0 -2 1 -4t1 -4q0 -20 -2 -31zM352 145q0 -41 36 -62.5t77 -21.5q12 0 18 2q-43 6 -78.5 34t-52.5 59v-11zM373 1110q10 12 22.5 22.5t26.5 20.5 l-23 14q0 -4 -4 -4q-2 -4 -8 -18.5t-14 -34.5z" />
<glyph unicode="H" horiz-adv-x="962" d="M31 1198q0 18 45 28t104.5 14.5t115.5 4.5t81 2q8 0 13 -35.5t8 -94t4 -132.5t1 -147.5t1.5 -142t5.5 -115.5q94 20 187 28t189 10q-2 49 -3 99.5t-1 99.5q0 31 1 61.5t1 61.5q0 66 -2 128t-2 138q0 12 7.5 28.5t21.5 16.5q12 0 18.5 -15t7.5 -37.5t0 -46.5t-1 -40v-59.5 t-5 -59.5q4 -94 7.5 -188t7.5 -187h82q16 -2 16 -14q0 -10 -9 -19.5t-22 -9.5h-63q4 -147 10 -290.5t6 -288.5q-2 -12 -18 -12q-12 0 -20.5 44t-14.5 109.5t-9 141t-5 137.5l-9 159q-96 -2 -189 -9t-187 -27q14 -246 18 -494q41 6 82 20.5t70 14.5q16 0 16 -14 q0 -16 -35 -29.5t-87 -24t-115.5 -16.5t-120.5 -6q-33 0 -65 2t-64 6q-2 -2 -9 -2q-14 0 -14 16q0 18 18.5 24.5t32.5 8.5l-10 668q-10 78 -19.5 170t-9.5 180q0 31 2 61.5t9 59.5h-56q-25 2 -24 14zM174 385q0 -20 1 -62t3 -90.5t3 -93.5t1 -73v-25q0 -2 2 -2v-12h11 q-2 2 -2 10h4v82l-1 29q-1 30 -4.5 71t-6.5 86t-7 78l-4 18v-16zM182 41v25q0 -4 1 -9.5t1 -9.5t-2 -6zM211 1188q8 -2 10 -14q2 -215 7 -428.5t18 -430.5q4 -66 9 -129t15 -123q0 53 -5 109.5t-11 112t-11 107.5t-5 97q0 59 4 114.5t10 113.5l-12 276q-2 47 -4.5 95.5 t-14.5 89.5v10h-10zM281 473q0 -59 10 -130t16 -146q-2 70 -3 141.5t-5 142.5q-4 -4 -9 -4t-9 -4zM315 748q0 -16 1 -31t1 -31l17 -121q0 86 2 170t2 170v85t-4 83q-14 -76 -16.5 -162t-2.5 -163z" />
<glyph unicode="I" horiz-adv-x="661" d="M14 1208q0 8 8.5 17.5t18.5 11.5h6q14 0 50 3l84 7t104.5 7t115.5 3h35t40.5 -1t32.5 -5t13 -12t-7 -16.5t-17 -12.5h-88q0 -152 14.5 -282.5t30.5 -265.5q4 -84 9 -175.5t10 -173.5t9 -147.5t6 -97.5q12 0 37 -2.5t49.5 -8.5t43 -14t18.5 -20q0 -10 -8 -17.5t-19 -7.5 q-16 0 -55 8t-86 8q-43 0 -91 -2t-94 -5t-87 -5t-70 -2t-45 4h-4q-18 0 -19 12q0 14 23 31h10q29 -2 42 -4t20 -2q6 0 6 4t-3 13.5t-3 27.5q0 63 2 129t6 131q-2 31 -2 65.5v69.5q0 123 3 254t5 242q-4 55 -11 110.5t-20 106.5h-104q-18 0 -19 14zM211 220.5 q0 -15.5 4 -30.5q6 68 10 150t7.5 165t4.5 160.5t1 135.5q0 70 -4.5 138.5t-18.5 133.5v-78q4 -49 4 -100v-102v-121v-100.5t-1 -112t-3 -111.5t-4 -98v-29.5zM219 1198l12 -24l29 -168l-12 192h-29zM236 41q10 0 14 2l6 150q-2 -6 -5 -29t-6 -47.5t-5 -47t-4 -28.5z M287 311l6 -260l-2 -4l24 4q-4 6 -8 44t-8 83t-7 84t-5 49zM299 1200q2 -4 4 -35.5t4 -68.5t4 -69t2 -38l2 170q0 10 1 21.5t1 21.5zM313 578l4 -41q4 -47 8.5 -102.5t9.5 -113t9 -111.5t8 -95q-4 72 -8 154.5t-7 166.5t-6 167t-5 155zM360 1065q0 -53 3.5 -100.5t3.5 -98.5 q2 -43 4 -97t4 -110.5t4 -109.5t6 -96l14 28q-6 74 -11 159t-10 173t-8 174t-3 160q-4 -16 -5.5 -38t-1.5 -44zM383 59h14.5t16.5 4v39v80q0 35 -1 85t-5 128q-10 -14 -19 -18q4 -72 7 -145.5t3 -147.5q-2 -8 -7 -14.5t-9 -10.5z" />
<glyph unicode="J" horiz-adv-x="786" d="M4 264v4q0 12 7 22.5t18 10.5q8 0 27.5 -36t47 -80t63.5 -79.5t79 -35.5q29 0 59 24q43 127 57.5 300t14.5 356q0 117 -3 227t-5 209q-52 -13 -95 -33q-4 -2 -10 -2q-14 0 -14 14q0 12 26.5 27.5t73.5 30t114.5 24.5t147.5 10h41t52.5 -3t45 -8t19.5 -15q0 -8 -8 -16.5 t-19 -8.5h-4l-129 2q2 -123 6.5 -245.5t4.5 -245.5q0 -127 -8.5 -252t-30.5 -254q-8 -43 -27.5 -82t-51.5 -67.5t-77 -45t-102 -16.5q-43 0 -85 11.5t-82 41t-78 80.5t-75 131zM395 72q6 -2 11.5 -2t9.5 -2l16 30l10 31q-10 -16 -21 -30.5t-24 -24.5zM412 1145l20 -318 q4 37 6 74t2 74q0 41 -3 88t-25 82zM422 176q18 53 26.5 142.5t8.5 187.5q0 90 -6 176q-2 -2 -2 -23.5t-1 -52.5q-1 -16 -1 -32.5t0.5 -35t0.5 -35.5v-32q-2 -31 -2 -50.5t-2 -19.5q-4 -63 -11 -117.5t-11 -107.5zM451 37q23 12 37 33.5t24 46t16.5 50t12.5 48.5 q14 49 22 108.5t11.5 122t4.5 124t1 114.5q-4 -29 -6.5 -82t-8.5 -117.5t-14 -135t-21.5 -132t-33 -110t-45.5 -68.5v-2zM500 1206q0 -4 2 -4h2q2 -8 4 -38.5t4 -72.5t3 -90.5t2 -91.5t2 -74.5t3 -41.5v395q0 10 6 20q-10 -2 -28 -2zM512 457q4 82 6 156.5t4 113.5l-4 -4 q-2 -2 -4 -2v-66v-145v-31.5t-2 -21.5zM569 690l17 92v262q-4 -10 -6 -63t-4.5 -114.5t-3.5 -114t-3 -62.5z" />
<glyph unicode="K" horiz-adv-x="978" d="M10 33q0 14 23 33h10q23 -2 46.5 -5.5t45.5 -3.5q-10 199 -14 345.5t-4 256.5q0 96 1 171t3 141q-4 55 -11.5 109.5t-21.5 105.5h-59q-18 0 -19 14q0 23 71 37t224 14h27.5t33 -1t26.5 -6t11 -13q0 -20 -22 -29h-21q0 -66 3.5 -139.5t9.5 -150t13 -152.5t15 -144 q35 59 85.5 137t104.5 158t105.5 153t87.5 122q8 12 25 12q16 0 16 -12q0 -8 -4 -15q-31 -43 -75 -108.5t-90 -137t-90 -141t-74 -118.5l-29 -43q-29 -43 -49 -86q6 -53 8 -122t3 -135.5t4 -121t11 -74.5q14 0 39 -2t49.5 -7t43 -14.5t18.5 -21.5q0 -10 -9.5 -17.5 t-19.5 -7.5q-18 0 -56 8.5t-87 8.5q-84 0 -179.5 -6.5t-154.5 -6.5h-31.5t-19.5 5h-4q-18 0 -19 10zM164 236.5q0 -15.5 2 -29.5q12 135 18 270t6 271q0 78 -4 165.5t-20 153.5v-78q4 -47 5 -103.5t1 -115.5v-80t-2 -74q0 -90 -1 -176t-5 -174v-29.5zM170 1192l20 -49l11 49 h-31zM188 57q8 0 15 2l-6 56q-2 -14 -3 -27.5t-6 -30.5zM244 66l22 2q-14 25 -20 61l-2 -61v-2zM250 1194q2 -4 4 -35t3 -75t3 -96t4 -97t3 -77t3 -36l-4 375q0 10 2 21.5t2 21.5zM264 594l6 -41q4 -47 8.5 -102.5t8.5 -112.5t8 -110.5t8 -94.5q-10 141 -14 283.5t-13 285.5 zM315 885q0 -16 1 -36t1 -38q0 -29 3.5 -85t7.5 -128t8 -148.5t8 -148.5t7 -128t5 -85l15 10q-4 39 -9.5 122t-11.5 187.5t-12 219t-11 218t-8.5 183.5t-3.5 115v-258zM506 737q0 12 7 21.5t17 9.5t17 -10l315 -717v-6q0 -10 -7 -18.5t-17 -8.5q-8 0 -15 6zM702 18 q0 10 7.5 18.5t19.5 10.5h207q16 -4 16 -14t-9 -19.5t-21 -9.5h-205q-14 2 -15 14z" />
<glyph unicode="L" horiz-adv-x="765" d="M10 1223q0 8 7.5 17t19.5 11l432 -10q10 -6 10 -16q0 -23 -28.5 -25t-61.5 -2q-6 0 -11 1t-9 1q10 -326 20 -606.5t12 -546.5q86 0 160 1t160 9q29 -4 29 -26q-1 -15 -13 -17q-231 -12 -458 -12q-47 0 -93.5 1t-93.5 1h-18q-12 6 -13 16q0 10 9.5 17.5t19.5 7.5q4 0 9 -1 t10 -1v8q0 135 -2.5 282.5t-3.5 297t-3 296t-2 281.5h-73q-14 0 -15 15zM141 856q4 186 6.5 264t8.5 88h-15v-352zM168 569q0 -31 2 -30l14 198q2 25 4 68t4.5 93t5.5 101.5t5 94.5t3 70.5t3 29.5h-19q-2 0 -4 -38t-4 -96.5t-5 -131t-5 -141t-3 -127t-1 -91.5zM238 469 q0 -35 2 -69.5t6 -69.5v18q2 84 4 184.5t10 204.5l-4 154q-4 -109 -11 -213.5t-7 -208.5zM287 47h14v338zM307 676q4 -102 17.5 -219t21.5 -219l-20 948z" />
<glyph unicode="M" horiz-adv-x="1370" d="M16 -8q0 23 27 31q35 0 68.5 1t68.5 3v12q-4 66 -6 129t-2 127q0 197 10.5 387t10.5 393v96q-20 -4 -47 -16t-46 -12q-12 0 -12 12q0 25 41 42t97.5 28.5t112.5 16.5t87 5q16 0 49 -1t65.5 -5t57.5 -10t25 -19q0 -10 -9.5 -17t-21.5 -7l-55 8l2 -2q47 -131 71.5 -256 t55.5 -246q39 -135 74.5 -258t76.5 -258q29 125 54.5 275.5t46 292t35 254t22.5 159.5h-19q-23 0 -42 5t-19 22q0 10 9 17t20 7q6 0 16 -4t25 -4q20 0 47.5 6t55.5 12.5t51.5 12.5t37.5 6q16 0 17 -14q0 -8 -6.5 -16.5t-16.5 -10.5l-84 -29q2 -45 6 -130t9 -191.5t12.5 -223 t14.5 -225t15.5 -202t18.5 -148.5q0 -8 11 -12t42 -4q23 0 55.5 2t79.5 6q16 -4 17 -16q0 -10 -9.5 -18.5t-21.5 -8.5q-53 0 -88 -2t-65.5 -4t-65.5 -4t-90 -2q-18 0 -19 14q0 8 8.5 17.5t18.5 11.5h82q0 2 -1 2t-1 2q-31 279 -49.5 543t-30.5 544q-10 -70 -26.5 -192.5 t-39 -267t-49.5 -296t-57 -280.5q10 -6 10 -21q0 -12 -10 -24t-23 -12q-23 0 -22 45q-47 152 -90 301t-84 303q-23 90 -43.5 183t-46.5 185v-6q-6 -133 -15.5 -256t-20 -245.5t-18.5 -246.5t-12 -255q10 -6 10 -15q0 -10 -25.5 -16t-66.5 -11t-91 -7t-99.5 -4.5t-92.5 -2.5 h-67q-20 0 -21 15zM231 70q0 2 1 5t1 7v2q0 10 3 14l26 543v111q-6 23 -7 83t-2 128.5t-2 130t-3 84.5q0 -55 -2 -140.5t-3 -187.5t-3 -213t-4.5 -216.5t-3.5 -196.5t-1 -154zM317 31l27 14v2v55q0 119 5 222.5t5 226.5v65.5t-2 69.5q-10 -88 -16 -169t-10 -158.5 t-6.5 -158.5t-2.5 -169zM403 301q4 -27 6.5 -52.5t4.5 -51.5q6 37 12 119.5t13 188t14.5 221.5t14.5 214t13 168t11 86h-5q-4 0 -7 -1t-7 -1t-8 2l-10 -184q-2 -18 -6.5 -72.5t-9.5 -127.5t-10 -155t-10 -154.5t-9 -128t-7 -71.5z" />
<glyph unicode="N" horiz-adv-x="1177" d="M14 53q0 10 7.5 17.5t17.5 7.5q4 0 41 -12.5t100 -12.5q0 293 5 573.5t5 575.5v10q-14 0 -37.5 -1t-46 0t-39 5.5t-16.5 12.5q0 23 27 31q109 0 216 -6.5t216 -6.5q16 -4 16 -16q0 -10 -9 -19.5t-21 -9.5h-19q39 -135 98.5 -292.5t126 -309t132 -285t116.5 -221.5 q-16 151 -16 302v33q2 167 2 321q0 117 1 231.5t1 218.5v6h-125q-14 0 -14 13q0 16 15 23t35.5 8t42 0t34.5 -1h62t82 -2t70.5 -7t30.5 -15q0 -16 -24 -27q-37 0 -77 2t-85 6q0 -106 -1 -220t-1 -228q0 -76 1 -174.5t3 -199.5t5 -196.5t7 -169.5v-6q0 -10 -7 -18t-17 -8 t-17 10q-39 63 -101 179t-130 252t-130 278.5t-103 259.5l6 -420v-66q0 -53 -1 -109.5t-3 -109.5t-3 -101t-1 -81q12 -6 12 -17q0 -12 -10 -18q-2 -18 -71 -25.5t-200 -7.5h-43h-24q-53 0 -97.5 10.5t-44.5 32.5zM223 53q10 0 18.5 1t18.5 1q-6 88 -8 194.5t-2 219.5 q0 123 2 241.5t4 218t4 170t2 95.5q0 6 2 8q-10 0 -14 2t-12 2q6 -158 6 -301q0 -139 -2 -263t-2 -228v-47q0 -82 -6.5 -155t-10.5 -159zM307 57q10 0 17.5 1t17.5 1q-6 20 -8 75.5t-2 133.5q0 70 1 150t3 155.5t3 142t1 109.5v39q-2 -35 -4 -101.5t-5 -148.5t-6 -171 t-7 -166.5t-6.5 -137t-4.5 -82.5zM401 1196q2 -25 2 -104.5t1.5 -189t1.5 -231.5t1 -228.5t4 -182.5t7 -92q0 14 -1 62.5t-1 117v151.5v171v171v157.5t1 125t1 74.5q-8 -4 -12 -4q-3 2 -5 2z" />
<glyph unicode="O" horiz-adv-x="929" d="M35 606q0 47 2 102.5t9 108.5t18.5 101t29.5 83q59 117 154.5 188t206.5 71q53 0 104 -19.5t100 -60.5q53 -47 82 -110.5t52 -129.5q37 -109 65.5 -221.5t28.5 -222.5q0 -86 -30 -176.5t-90 -163t-149.5 -118.5t-207.5 -46q-78 0 -146 22q-63 23 -105 79.5t-67.5 124 t-37 133t-13.5 106.5q-2 10 -4 50t-2 99zM94 563q0 -98 15.5 -194.5t58.5 -184.5q16 -31 40.5 -50t51.5 -42q-43 27 -72.5 85.5t-49 127t-30 138t-14.5 120.5zM160 719q0 -43 6 -86t16 -94q-6 55 -6 108q0 117 27.5 217.5t87.5 194.5q6 10 10 17t10 14q-59 -23 -89 -82 t-42 -125q-20 -88 -20 -164zM162 1004q37 78 111.5 121.5t170.5 60.5q-16 4 -31.5 8t-31.5 4q-4 0 -9.5 -1t-9.5 -1q-31 -6 -61.5 -23.5t-57 -43t-48 -58.5t-33.5 -67zM252 348q12 -66 29 -119l22 -45l19 -16l-15 29q-16 31 -30.5 69.5t-24.5 81.5zM266 717q2 -74 5 -135.5 t11.5 -120t24 -115.5t39.5 -123q0 -4 2 -6q-6 35 -14 85t-15.5 108.5t-12.5 123t-5 130.5q0 129 24.5 243.5t92.5 182.5l6 6q-41 -18 -68.5 -65.5t-47 -105t-30 -114.5t-12.5 -94zM352 604q0 -127 14.5 -243.5t36.5 -194.5q8 -29 23.5 -51.5t24.5 -51.5q86 31 151.5 87.5 t108.5 129t64.5 155.5t21.5 169q0 88 -23 174q-8 31 -29.5 84t-53.5 105.5t-76 90.5t-99 38q-47 0 -77.5 -48.5t-50 -121t-28 -158.5t-8.5 -164zM573 1171q41 -35 69 -64.5t46.5 -57t31.5 -53t25 -50.5q-31 76 -72.5 138.5t-90.5 95.5h-2zM651 94q16 10 30 21.5t26 25.5 q68 70 100.5 160t36.5 188q-4 -18 -8.5 -34.5t-14.5 -26.5q-18 -82 -59 -156.5t-100 -134.5v-10q-2 -10 -4.5 -17.5t-6.5 -15.5zM745 946q2 -2 1.5 -4t1.5 -2v2q0 2 -1.5 2t-1.5 2z" />
<glyph unicode="P" horiz-adv-x="933" d="M16 -2q0 14 16.5 21.5t40 9.5t50.5 2t47 2q0 129 4 275.5t9 296t9.5 292.5t4.5 268v19q-31 -4 -61.5 -7.5t-61.5 -5.5q-18 0 -19 15q0 8 8.5 17t18.5 11q49 2 96 8.5t99.5 12.5t109.5 11t127 5v-2q66 -8 133.5 -43t122.5 -89t91 -121.5t36 -141.5q0 -102 -100.5 -161.5 t-284.5 -104.5l8 -148q4 -57 7 -130.5t3 -143.5q0 -27 -1 -51.5t-3 -46.5q35 4 70 5t70 5q16 -2 16 -17q0 -20 -23 -28q-4 0 -10 1t-12 1q-23 0 -60.5 -5t-105.5 -12.5t-173 -16.5t-261 -17q-20 0 -21 14zM231 37q12 0 15.5 1t15.5 1q-4 53 -5 114.5t-1 127.5v128t2 115 q-8 -168 -13 -261t-7 -140t-3.5 -61.5t-3.5 -24.5zM305 547q0 -86 2 -180.5t2 -182.5v-73.5t-2 -67.5l51 8q-14 154 -27.5 306.5t-23.5 291.5q0 -25 -1 -49.5t-1 -52.5zM313 1198q2 -4 5.5 -28.5t5.5 -57.5t4 -64.5t2 -48.5l6 21q4 20 5 47t2 50.5t2 43t3 25.5v2q2 0 5 5 t9 9l5 4zM399 1206l13 -178v182zM436 727l6 -106q12 0 17 2v68.5t4 66.5q-4 47 -6 107.5t-4 109.5zM444 575q4 -84 7.5 -185t3.5 -197q0 -35 -1 -69t-1 -65q4 4 10 2t10 2q-4 43 -6 97.5t-4 114t-3 121t-1 116.5v66q-4 0 -7 -1.5t-8 -1.5zM506 754l4 -121q102 20 168.5 44.5 t104.5 51.5t53.5 57.5t15.5 67.5q0 63 -30.5 121.5t-80 105.5t-110 79t-117.5 42z" />
<glyph unicode="Q" horiz-adv-x="964" d="M33 569q0 113 26.5 234t82 219t137 161.5t192.5 63.5q104 0 175 -45t114 -118.5t61.5 -168t18.5 -190.5q0 -23 -1 -44.5t-3 -43.5q2 -25 3 -50.5t1 -51.5q0 -78 -12.5 -159t-41.5 -153q59 -66 106.5 -130t72.5 -111q2 0 8 -7l-6 -2v-4q0 -10 -7.5 -17t-17.5 -7t-10 4 l-2 -2l-6 8q-49 45 -91 93t-79 102q-27 -43 -56 -72q-45 -47 -101 -63.5t-114 -16.5q-113 0 -196.5 52t-140 134t-85 183.5t-28.5 201.5zM94 543q0 -86 21.5 -163t72.5 -142q-39 90 -55 168.5t-16 168.5v37t2 39q-4 23 -4 43v43q-10 -51 -15.5 -99t-5.5 -95zM164 905 q53 102 129 176t178 76q6 0 8 2q-23 6 -49 6q-51 -2 -90 -22.5t-67.5 -49t-48.5 -62t-34 -60.5q-8 -16 -15 -31.5t-11 -34.5zM184 666q0 -68 18.5 -115.5t53.5 -110.5q-25 78 -40 172.5t-15 175.5v25q-10 -47 -13.5 -83t-3.5 -64zM219 418q4 -18 14.5 -63.5t30 -93.5t48 -89 t69.5 -53q-35 45 -77 116.5t-85 182.5zM254 717q0 -100 25 -182v14q0 74 1 130t8 108.5t22 108.5t44 130q-53 -59 -76.5 -141t-23.5 -168zM342 670q0 -98 9 -179t20 -116q6 -27 24.5 -73t44 -90t58 -76t67.5 -32q29 0 60.5 31t64.5 103q-8 10 -20.5 27.5t-12.5 27.5 q-39 41 -71.5 73.5t-61.5 55.5q-6 6 -6 14q0 10 7 17.5t18 7.5q10 0 31.5 -16.5t46 -41t50 -52t46.5 -50.5q29 76 47 161t24 171q-2 47 -8 87t-16 79t-24.5 79t-34.5 87q-8 18 -29 44.5t-48.5 51t-58 41t-57.5 16.5q-33 0 -53 -26q-35 -33 -57.5 -80t-36 -103.5t-18.5 -118 t-5 -120.5zM586 1165q14 -14 30.5 -26.5t38.5 -22.5l-8 10q-24 23 -61 39zM594 66q39 23 75 50t58 68q-6 6 -7 13.5t-5 11.5l-8 -21q-14 -45 -49 -72t-64 -50zM745 281l11 -21q12 35 19 74t11 80z" />
<glyph unicode="R" horiz-adv-x="837" d="M18 6q0 12 21 19l102 12q-6 37 -9 113.5t-5 174t-3 204t-1 204.5v146.5t2 115.5l-33 199q-4 0 -7 -1t-7 -1q-23 0 -37 6t-14 16q0 12 29.5 21.5t69.5 13.5t80 6t60 2q150 0 241 -25.5t140 -65.5t65.5 -86t16.5 -85q0 -47 -17.5 -95t-47 -94t-65.5 -88t-73 -75v-2 q29 -78 63 -168t64.5 -173t55 -150.5t36.5 -102.5v-6q0 -27 -22 -27q-10 0 -26.5 33t-38 86t-45 118.5t-46 131.5t-43 126t-35.5 99q-16 -12 -27 -20t-20.5 -13.5t-18.5 -11.5t-22 -14l-8 -72v-45q0 -92 -3 -189.5t-5 -185.5q14 -2 14 -14q0 -14 -14 -25q-33 -6 -84 -11 t-103.5 -10t-96.5 -7t-62 -2q-20 0 -21 18zM172 496q0 -59 2 -145.5t10 -221.5q4 25 7.5 81t3.5 128q0 49 -1 101.5t-3.5 102.5t-6.5 94t-8 77q0 -53 -2 -98.5t-2 -118.5zM240 1167l6 -563v-98.5t2 -126t4 -123.5t8 -92q4 63 4 129.5v136.5q0 174 -5 353.5t-13 349.5z M305 858q12 -135 12 -289h11q-4 59 -6.5 119t-4.5 119q0 10 -1 23.5t-1 27.5q0 37 1 75t3 66q-4 47 -6 92.5t-2 92.5h-6v-326zM313 393q0 -78 3 -171t3 -171q8 2 23 2q-2 109 -5 231t-7 230l-15 -6q0 -29 -1 -57.5t-1 -57.5zM362 999l25 -399q8 2 29.5 16.5t46 35t51.5 42 t45 37.5q31 47 52.5 110.5t21.5 125.5q0 96 -60.5 153.5t-201.5 63.5q-6 -41 -7.5 -87t-1.5 -98zM608 6q0 14 20.5 22.5t49.5 14.5t59.5 11t50.5 16q4 0 5.5 1t3.5 1q14 0 14 -15q0 -16 -14 -26q-74 -33 -168 -39q-20 0 -21 14zM659 840q16 25 25.5 61.5t9.5 71.5t-10 61 l-25 41q4 -18 6.5 -42.5t2.5 -51.5q0 -45 -4.5 -85t-4.5 -56z" />
<glyph unicode="S" horiz-adv-x="854" d="M39 -72v424q0 12 9 20.5t20 8.5q12 0 14 -14v-220q25 -16 60.5 -29.5t73.5 -23.5t72 -15t56 -5q39 0 76 7t64.5 24.5t45 45t17.5 70.5q-66 111 -143.5 189.5t-145.5 149.5t-114 144.5t-46 174.5q0 98 35 166.5t91.5 109.5t130 59.5t151.5 18.5q115 0 209 -33v90 q0 12 9 21.5t19 9.5t15 -16q0 -53 2 -99.5t4 -90.5t4 -91t2 -100q-2 -10 -10 -18.5t-19 -8.5q-6 0 -10 29.5t-8 68.5t-6 78t-2 57q0 23 -40 32t-87 9q-76 0 -126 -27.5t-80 -66.5t-42 -79t-12 -66q0 -63 35.5 -125t90 -121t117 -117.5t116.5 -114t90 -108.5t36 -102 q0 -29 -14 -56q-47 -96 -135.5 -135t-198.5 -39q-92 0 -189.5 20.5t-193.5 53.5v-154q-2 -10 -11.5 -18t-17.5 -8q-14 0 -14 20zM197 971q23 35 61.5 81t75.5 72l20 15q-43 -18 -80.5 -53t-76.5 -113v-2zM203 834q2 -23 10 -46.5t30.5 -54.5t62.5 -71.5t106 -96.5 q-57 59 -114.5 128t-94.5 141zM233 928q0 -47 30 -93.5t69 -95.5q6 -10 11 -17t7 -7q0 6 -10 24q-41 43 -66.5 100.5t-25.5 114.5q0 10 1 18.5t3 18.5q-18 -35 -19 -63zM432 477q29 -27 53.5 -51t42.5 -49q78 -96 78 -172q0 -33 -10 -53h4q2 2 5 4t5 6l23 31 q0 92 -58.5 156.5t-142.5 127.5zM686 375q23 -41 42.5 -79t27.5 -73q0 4 1 6t1 7q0 37 -27 74.5t-45 64.5z" />
<glyph unicode="T" horiz-adv-x="987" d="M14 1221q0 10 6.5 20t16.5 12h899q18 -4 18 -22q0 -10 -7 -20.5t-17 -10.5h-281q-2 -135 -6 -277.5t-8 -286.5t-8 -286.5t-4 -275.5q25 2 32 4t12 3t13 2t33 1q16 -4 16 -14q1 -23 -24 -29q-86 -23 -196 -30t-261 -21q-18 0 -19 14q0 23 23.5 27t38.5 4q8 0 14 -1t14 -1 t18.5 1t24.5 3q-14 86 -15 182t-5 176q-10 190 -20.5 402.5t-16.5 402.5h-274q-16 0 -17 21zM369 922q0 -25 2.5 -48.5t0.5 -46.5l5 131q0 12 1 33t2 43.5l2 45t1 40.5q0 6 -1 12.5t-1 10.5v8q-4 0 -8 4q-2 -55 -3 -114.5t-1 -118.5zM397 446q0 -53 3 -106t8 -104 q4 117 10 231.5t10 230.5l4 400l-10 -135q-6 -123 -15.5 -254t-9.5 -263zM453 199q0 -29 4 -29t7 18.5t3 67.5q0 18 -1 45t-3 66q-4 -10 -4 -19.5v-19.5q-2 -16 -4 -57.5t-2 -71.5zM479 883q4 -123 10.5 -256t18.5 -256q2 27 3 56.5t1 59.5q0 74 -4 155t-8 164t-8.5 165 t-6.5 155zM498 47v234q10 -10 13 -42t3 -69q0 -23 -1 -43.5t-1 -36.5v-35zM551 1200q4 -27 10 -54.5t6 -55.5v110h-16zM565 66l15 2l-5 157q0 -8 -1 -31.5t-2 -50t-3 -49t-4 -28.5z" />
<glyph unicode="U" horiz-adv-x="1015" d="M14 1171q0 8 8.5 17.5t18.5 11.5q8 0 24.5 2t60.5 7t130 13.5t236 24.5h6q16 0 16 -14q0 -8 -6 -16.5t-16 -10.5q-31 -8 -46.5 -47t-20.5 -97t-5 -130v-144q0 -111 8 -234.5t34.5 -228t77 -172t134.5 -67.5q55 0 88 35t49 93t21.5 132t5.5 152q0 86 -5.5 177t-12.5 179 t-14 169t-11 148q-49 -8 -78 -26q-4 -2 -10 -2q-16 0 -17 16q0 25 36 39t84 22.5t96 11.5t71 3q16 -2 16 -16t-13 -21.5t-34.5 -10.5t-50.5 -5t-57 -4q10 -154 26.5 -312.5t16.5 -318.5q0 -98 -8.5 -191.5t-30.5 -185.5q-8 -37 -45 -69.5t-89.5 -55t-117 -36t-127.5 -13.5 q-90 0 -167 27.5t-112 91.5q-55 125 -75.5 260t-20.5 276q0 131 11.5 261t19.5 253l-86 -8q-18 0 -19 14zM145 618q0 -45 3.5 -88t11.5 -86q2 4 8 5q-12 53 -16.5 112.5t-4.5 120.5q-2 -16 -2 -31.5v-32.5zM150 1026l30 141l-18 2zM176 240q10 -27 21.5 -50.5t25.5 -46.5 q33 -47 80 -73q-37 31 -59.5 55.5t-34.5 43.5t-19.5 35.5t-13.5 35.5zM188 776q0 -68 5 -139.5t16.5 -140t32 -129t51.5 -101.5l-4 23q-31 51 -50.5 123.5t-29.5 151.5t-13 158t-6 140q0 -20 -1 -41.5t-1 -44.5zM233 999q0 -59 3.5 -129.5t7.5 -137t9 -122t11 -82.5 q2 -12 4 -23t6 -24v66q-6 37 -11 87t-10 103.5t-8 104.5t-5 90l-7 69v-2zM262 244q27 -45 58.5 -81t66.5 -59l-6 11q-16 20 -40 37.5t-34 42.5q-20 18 -45 49zM272 1104q0 -72 5.5 -126t9.5 -79q4 66 7 130.5t3 129.5q0 9 6 21h-16q-6 -23 -10.5 -36.5t-4.5 -39.5zM313 674 q0 -49 3 -88t12 -64q-4 23 -4 49.5v55.5q0 66 3 135t7 127q0 8 4 46t12 86t17.5 94t21.5 73l-55 -6l6 -8v-11q-2 -37 -6 -95t-9.5 -124.5t-8.5 -137.5t-3 -132zM362 586q0 -113 22 -201t58 -162l-12 37q-37 84 -47 198.5t-10 231.5v51q-4 -41 -7.5 -79.5t-3.5 -75.5z M442 223q0 -4 2 -6q0 4 -2 6z" />
<glyph unicode="V" horiz-adv-x="1087" d="M18 1214q0 23 27 27q23 -2 74 -3t112 -1q78 0 158 4t131 14h8q14 0 15 -12q0 -23 -32 -32t-56 -13l10 -18q33 -74 65.5 -178.5t63.5 -219t58.5 -226.5t49 -202t37 -145t19.5 -55q2 0 8 72.5t12 184t13.5 241.5t14.5 246t13 199t10 97h-67q-12 0 -12 12q0 10 7 19.5 t17 11.5h273q16 -4 16 -14t-9.5 -19.5t-21.5 -9.5h-166q0 -2 1 -2t1 -4q-4 -133 -12 -277.5t-18.5 -290t-21.5 -285.5t-21 -265v-2q0 -6 4 -11q23 6 48 19.5t42 13.5q14 0 14 -14t-14 -25q-8 -4 -33 -15t-73 -22.5t-121.5 -20.5t-182.5 -9h-29.5h-38t-32.5 3t-14 9 q0 8 9 18.5t19 14.5h37q-20 68 -33.5 138.5t-27.5 135.5q-18 76 -42 159t-48.5 167t-49 166t-45.5 155q-16 61 -34.5 124t-53.5 118l-2 2q-23 2 -29.5 3t-33.5 1q-12 4 -13 16zM233 1196l101 -223q-25 102 -43 213zM336 879q37 -106 66.5 -202t60.5 -192q-20 113 -52 203 t-75 191zM342 1186q4 -12 22.5 -69.5t44 -139.5t55.5 -176t57.5 -178t49 -146.5t33.5 -81.5q-20 94 -49 193.5t-61.5 201t-63 201t-53.5 193.5q-6 2 -17 2h-18zM358 592q14 -55 31 -137t33 -165t30.5 -155t26.5 -106h43q-14 16 -30.5 61t-34 102.5t-32.5 122t-28.5 122 t-24 99.5t-14.5 56zM492 979q8 -43 22 -94t31.5 -104.5t35 -105.5t29.5 -97q-8 45 -22.5 97t-31.5 105.5t-33.5 104.5t-30.5 94zM512 494q8 -31 23.5 -85.5t33 -115t33.5 -114.5t29 -85l-6 60q-8 25 -23.5 71.5t-32 98t-33 98.5t-24.5 72z" />
<glyph unicode="W" horiz-adv-x="1503" d="M14 1180q0 10 8.5 18t20.5 10q106 2 172 5.5t112 8.5t85 11t96 14q25 0 24 -16q0 -10 -11 -19.5t-21 -9.5l162 -950l180 854q8 20 24 20t19 -28l213 -965q10 123 24.5 260t30.5 276.5t30.5 274.5t24.5 258q-27 0 -45 -6t-30 -6q-14 0 -15 14q0 2 -2 8.5t7.5 13.5t37 13 t84.5 6h40t83 -3t83 -8t38 -17q0 -10 -10.5 -19.5t-22.5 -9.5q-33 4 -91 9t-114 5q-10 -135 -26.5 -285.5t-33.5 -306t-33.5 -306t-27.5 -286.5q-6 -20 -24 -20q-12 0 -19 16l-229 957l-186 -899q2 0 3 -1t3 -1q4 0 9 1t9 1q14 -2 15 -17q0 -18 -14.5 -22t-30.5 -4 q-37 -2 -53.5 -2t-47 -2t-91 -7.5t-183.5 -15.5q-18 0 -19 12q0 14 12.5 20t30 8.5t39 1.5t39.5 1q-27 88 -41 180t-30 183q-16 98 -35 196t-35 197l-12 61q-6 29 -13.5 69t-16.5 81t-22.5 81t-33.5 70q-31 2 -60.5 2t-60.5 2q-18 0 -19 13zM240 1165q6 -18 14 -56t17.5 -81 t17.5 -82.5t14 -62.5q-2 12 -5 37.5t-5 57.5t-4 66.5t-2 67.5v30.5t2 26.5q-10 -2 -29.5 -1t-19.5 -3zM340 1178q4 -16 10 -75t14.5 -139.5t19.5 -179t28 -194.5q0 37 -5.5 115.5t-9.5 168t-8 173t-4 135.5zM369 569q20 -121 35.5 -236.5t52.5 -234.5v25q0 49 -9.5 104.5 t-21.5 110.5t-26.5 108.5t-24.5 100.5zM430 1186q8 -68 21.5 -163t27 -196.5t26.5 -195.5t23 -162q-10 117 -19 233.5t-32 231.5zM453 500q0 2 1 2t1 2q0 -23 8 -70t19.5 -105.5t23.5 -122t22 -120.5q-2 98 -24.5 199.5t-46.5 212.5q-4 0 -4 2zM549 631q8 -72 13.5 -141.5 t15.5 -135.5q0 -8 6 -28.5t14 -49t17.5 -63.5t19.5 -72z" />
<glyph unicode="X" horiz-adv-x="1165" d="M-2 1212q0 8 9 16.5t20 10.5h30q57 0 141.5 4t170.5 8t162.5 8.5t123.5 4.5q14 -6 15 -16q0 -14 -16.5 -20.5t-39 -8.5t-49 -1t-45.5 1q14 -51 34.5 -113t42 -121t43.5 -112.5t38 -86.5q57 90 112.5 203t116.5 209l-57 -4q-12 0 -17.5 7t-5.5 16q0 20 15 22q59 2 127.5 5 t128.5 4q14 -2 14 -15q0 -18 -20.5 -25.5t-47 -8.5t-50 0t-29.5 1q-35 -53 -70 -113.5t-68.5 -123t-65.5 -122t-61 -110.5q35 -102 67 -182t65.5 -155t72.5 -153.5t86 -177.5q72 0 111 -3t39 -27q0 -14 -17 -15q-2 0 -4 -1t-34.5 -2t-111.5 -3t-235 -2q-35 3 -74 3 q-20 0 -40.5 -1t-39.5 -1q-39 0 -73 3q-12 4 -12 15q0 10 9 18t19 8l134 4l-164 330q-51 -94 -94.5 -173t-96.5 -177q10 0 25.5 -1t30 -4t24.5 -7t10 -11q0 -10 -10 -18t-25 -10q-23 4 -42 4h-41q-29 0 -59 -1t-58 -3q-12 0 -12 10q0 14 11 22.5t28.5 11.5t36 4t32.5 1v2 q59 111 109.5 205t103.5 194q-84 166 -157.5 351.5t-151.5 408.5h-144q-20 0 -20 14zM207 1188q0 -2 2 -2h2q4 -20 22.5 -68.5t43 -109t53 -127t54.5 -127t46.5 -107.5t28.5 -67q-6 20 -23.5 68t-40 108.5t-47 128t-46 129t-36 109.5t-16.5 71zM344 1196q12 -43 38 -109.5 t54.5 -138t57 -137.5t47.5 -109l4 5q-18 55 -44 120.5t-51.5 130t-50 126t-41.5 110.5zM416 1200q12 -33 46 -119t80 -198.5t98 -236.5t100 -235.5t87.5 -196.5t55.5 -116q-8 23 -30 77t-52.5 128t-67.5 162t-74.5 179t-75.5 179t-70 163t-56.5 131.5t-34.5 80.5zM430 788 q10 -23 36 -80t57.5 -130.5t67.5 -155.5t69.5 -154.5t60.5 -129t41 -79.5h35q-16 16 -42 63.5t-56.5 113t-66.5 142.5t-71 152.5t-68.5 143t-62.5 114.5z" />
<glyph unicode="Y" horiz-adv-x="1128" d="M-25 1245q0 14 15 19l493 -15q16 -4 17 -16q0 -10 -9.5 -17.5t-21.5 -7.5h-20q23 -47 64.5 -130t86.5 -166t82 -148.5t49 -77.5l205 520q-41 0 -81 -2t-75 -18q-4 -2 -10 -2q-14 0 -14 12q0 18 23.5 28.5t63.5 15.5t92 7t109 2q35 0 56.5 -1t21.5 -17q0 -12 -11 -18.5 t-26.5 -9.5t-33 -3h-31.5q-10 0 -20.5 1t-20.5 1l-223 -624l14 -531q59 0 117.5 2t118.5 2q16 -6 16 -16q0 -20 -17.5 -24.5t-58.5 -4.5q-23 0 -52.5 1t-66.5 1q-82 0 -198.5 -2t-274.5 -10q-20 0 -20 16q0 8 8 16.5t18 10.5q35 0 69 -1t69 -1l-39 545q-12 18 -38 65 t-57.5 107.5t-67.5 129t-72 131t-66.5 114t-53.5 77.5l-10 4q-12 2 -12 13l-92 2q-14 6 -15 20zM246 1196q12 -10 32.5 -44t46 -81t54.5 -103.5t58.5 -109.5t56 -99t47.5 -75q-4 4 -22.5 44t-45.5 95.5t-56.5 119t-56 116.5t-46 89t-23.5 36q-6 6 -21 6h-8q-8 0 -16 6z M250 1085q12 -16 28.5 -45.5t34 -62.5t34 -65t28.5 -50q-12 20 -27.5 52t-33 65t-34 61.5t-30.5 44.5zM422 1147q57 -127 101 -219t77 -156.5t55.5 -104.5t36.5 -65l2 -2q4 0 5 15.5t1 29.5q-6 10 -36.5 62.5t-71.5 126t-86 158.5t-84 159v-4zM532 553q6 -82 11.5 -160 t7.5 -164q0 92 1 143.5t3 79t3 41t1 29.5zM580 39l24 2q-4 12 -5 45t-2 72t-2 77t-1 56q-2 -16 -3 -51t-3 -74t-4 -75t-4 -52zM657 57l29 9q-4 4 -6 37.5t-4 83t-3 106.5t-2 107.5t-2 88t-3 46.5q0 -4 1 -15.5t1 -30.5q0 -43 -2 -109.5t-3 -131t-3.5 -115.5t-2.5 -61v-15z " />
<glyph unicode="Z" horiz-adv-x="880" d="M43 20q0 8 8 16.5t21 10.5h51q16 86 51 209t77 259t87 273.5t84 251.5q10 35 16 72t17 74q-49 -2 -97.5 -3t-95.5 -1q-39 0 -77 1t-76 3q0 -41 1 -83t1 -83q0 -23 -3.5 -45.5t-25.5 -22.5q-14 0 -14 21v47q0 47 -1 91t-1 91v41t2 41q2 10 10 19.5t18 9.5q14 0 15 -17 l-2 -67q70 0 138 -2t140 -2q29 0 56.5 1t56.5 1h20q53 0 104.5 7t88.5 7q55 0 57 -33q-25 -92 -55.5 -198.5t-64.5 -218t-69.5 -221t-67.5 -207t-58.5 -177.5t-44.5 -129q96 6 192 16.5t197 32.5q-2 20 -3 39t-1 39v32t2 36t8 28.5t18 12.5q14 0 19 -19q-2 -16 -2 -32.5 v-32.5q0 -45 2 -88t2 -88v-26.5t-2 -28t-8.5 -22.5t-20.5 -9t-14 20q0 12 1 24.5t1 24.5q0 10 -1 22.5t-1 24.5h-2q-94 -23 -263 -40t-387 -17h-29.5t-34.5 1t-28.5 4t-11.5 9zM195 45h43q4 14 22.5 68.5t45 135.5t61 181t69.5 207.5t68 215.5t59 202zM285 444 q66 164 107.5 262.5t64.5 157.5l108 316v4q0 4 -4 4t-11 -1t-13 -1q-31 -92 -67 -188.5t-72 -191.5t-65.5 -187.5t-47.5 -174.5zM289 57l14 2q2 8 14.5 56.5t27.5 104.5t28.5 103.5t15.5 57.5q-2 -10 -16.5 -58.5t-31.5 -104.5t-32.5 -104t-19.5 -57zM342 55l27 2 q2 0 18 47.5t41 124t57.5 175t65.5 203t64.5 206.5t56 184t40 137.5t15.5 65.5q0 2 -2 2t-2 -2l-4 -8l-2 -6q-12 -35 -42 -123t-68 -201.5t-80 -241.5t-79.5 -242t-65.5 -201t-40 -122z" />
<glyph unicode="[" horiz-adv-x="606" d="M25 1348q0 8 8 17t18 11h27q106 0 222 14.5t226 20.5q16 -2 17 -16q0 -29 -65.5 -34t-166.5 -9q0 -168 2 -346.5t4 -359.5t4.5 -360.5t6.5 -344.5q113 12 231 18q16 -4 16 -14q0 -23 -24 -29q-115 -16 -192.5 -24.5t-129 -12.5t-80.5 -5t-45 -1q-20 0 -20 14q0 10 8 18.5 t19 10.5h14q-2 2 -6 12q-18 166 -27.5 344.5t-12.5 358.5t-3 358t-2 344h-31q-18 0 -18 15zM119 893q2 -207 7 -412t21 -401q-2 16 -2 29.5v29.5q0 35 1 68t1 65v35zM141 -84l76 12q-10 47 -15 116t-9 132q-2 -47 -4.5 -92t-12.5 -92l2 -4l-2 -4q-10 -18 -12 -19q-2 0 -8 8 l6 -30q-4 -20 -21 -27zM152 1333q0 -230 12 -463q2 41 6 80t8 80q-12 150 -12 305q-4 -2 -14 -2zM250 868q0 -141 4 -285.5t4 -295.5v-99q0 -74 6 -161q2 -23 6 -45.5t4 -47.5h11q-4 168 -6.5 347.5t-4.5 360.5t-4 360.5t-4 347.5q-4 0 -7 -1t-7 -1q-2 -125 -2 -243v-237z " />
<glyph unicode="\" horiz-adv-x="618" d="M-6 1282q0 12 12 12t27 -14l30 -57q-6 16 -16 39.5t-10 40.5q0 14 14 14q8 0 16.5 -6.5t12.5 -16.5q29 -86 73 -203.5t96 -249.5t108.5 -269.5t106.5 -262.5t92 -228.5t67 -168.5v-8q0 -16 -15 -17q-16 0 -22 17h-4q-18 37 -57.5 128t-89.5 213t-109.5 263t-117.5 280.5 t-113.5 266.5t-98.5 219q-2 4 -2 8z" />
<glyph unicode="]" horiz-adv-x="606" d="M27 -98q0 8 30.5 14t71.5 8t82 3t63 1q2 244 3.5 510.5t1.5 528.5v372q-51 -4 -78 -6t-43 -2h-31h-22.5t-34.5 -2q-25 4 -25 25q0 12 18 18q111 4 227 6t222 13l27 4q27 -4 26 -27q0 -14 -18 -16l-33 -4q2 -127 3 -258.5t1 -266.5q0 -225 -6 -448t-29 -434q-4 -10 -6 -13 l15 2q29 -4 28 -26q0 -15 -20 -17q-14 0 -38 -2t-62 -4t-94 -4t-136 -2q-14 0 -37.5 -1t-47.5 0t-41 7t-17 21zM317 -72h11q0 63 7 123t7 113q0 29 -1 54.5t-1 53.5q0 78 3 165t3 167q0 186 -3 366.5t-7 372.5q-2 -2 -4 -2q-4 0 -5 1t-5 1q0 -98 1 -200.5t1 -208.5 q0 -256 -2.5 -513t-4.5 -493zM385 -72l74 -2q-16 8 -19 23l4 33q-4 -8 -4 -9l-2 -2q-4 0 -6 5.5t-6 11.5l-2 4v2q0 2 1 2t1 2q-10 43 -12 88t-4 92q-4 -66 -9.5 -134.5t-15.5 -115.5zM414 1032q4 -39 9 -76.5t7 -78.5q4 96 6 190t2 190v82q-4 -2 -8 -2t-6 2v-51 q0 -63 -3 -126.5t-7 -129.5zM453 283q0 -41 1 -81t1 -81v-35q14 199 18 404.5t4 412.5l-24 -588v-32z" />
<glyph unicode="^" horiz-adv-x="632" d="M33 500q0 2 4 10q16 29 48 76t67.5 101t69.5 109.5t57 98.5q6 10 22 10q18 0 55 -48t81 -113.5t88 -134t75 -109.5q4 -8 4 -13q0 -18 -22 -18q-10 0 -34 25.5t-51.5 64.5t-59 86t-57.5 88t-45.5 71t-23.5 36q-10 -14 -30.5 -47t-47 -74t-55 -85t-53.5 -80t-44.5 -58.5 t-25.5 -22.5q-8 0 -15 8t-7 19z" />
<glyph unicode="_" horiz-adv-x="731" d="M29 45q0 10 8 20.5t18 14.5q16 2 60.5 5t102.5 6t127 6t131.5 5t114.5 5.5t81 3.5q16 -4 16 -15q0 -23 -24 -28q-80 -12 -172.5 -19.5t-178.5 -11.5t-157.5 -6t-108.5 -2q-18 0 -18 16z" />
<glyph unicode="`" horiz-adv-x="436" d="M37 1618q0 8 9 25.5t23.5 33t31 27.5t30.5 12q6 0 28.5 -21.5t52.5 -54t62.5 -71.5t60 -75t45 -63.5t17.5 -35.5q0 -10 -8 -17.5t-20 -7.5q-6 0 -9 2q-8 4 -39.5 24.5t-76.5 51.5t-97.5 71t-101.5 85q-8 8 -8 14zM86 1626q57 -51 121 -90q-25 27 -52.5 52.5t-58.5 45.5 l-5 -5t-5 -3z" />
<glyph unicode="a" horiz-adv-x="917" d="M8 20q0 23 27 23q4 0 10 -1t10 -1q10 0 26.5 1t57.5 3v8q0 25 11.5 92.5t29 160.5t39 207t42 230.5t38.5 231.5t29 211q-6 -2 -21 -2q-16 0 -32.5 6t-16.5 20q0 29 27 29q4 0 12 -4l2 -6q16 6 51 11t77 9t87 6t80 2q47 0 59.5 -3t12.5 -13q0 -18 -21 -29h-4q6 -2 8 -14 q2 -74 9.5 -154.5t17.5 -162.5t23.5 -163t27.5 -151l51 11h8q12 0 13 -13q0 -8 -5.5 -16t-15.5 -12l-45 -11l90 -467h58q16 -4 16 -14q0 -20 -22.5 -25.5t-54.5 -5.5t-66 -1t-54 -13q-8 -4 -10 -4q-16 0 -16 20q0 8 13 15.5t29.5 12.5t34 9t23.5 4l-98 461q-41 -6 -89 -10 t-89 -4l-19 -117v12q-6 -37 -13 -82t-14.5 -91t-13.5 -91t-8 -82h23q16 -4 16 -16q0 -20 -25 -27l-16 -6h-414q-6 6 -6 16zM182 43h19q8 92 22.5 194.5t32.5 207t42 205t50 190.5q20 92 21.5 178t5.5 176h-4zM246 41h12q2 45 11.5 102.5t20.5 110.5t21.5 95t14.5 59l14 188 l-10 -61q-23 -127 -39.5 -248t-44.5 -246zM332 41l16 80l-12 -8zM360 373q0 -2 2 -2l3 2v-2q0 -2 1 -3t1 -3v-7q18 63 25 124t16 126l-27 -141l-19 -80q0 -4 -1 -6t-1 -4v-4zM375 45l8 2q2 45 12 92v11q-4 -29 -9 -54.5t-11 -50.5zM389 711q4 25 11.5 58.5t14.5 70.5 t13 72.5t10 62.5q-8 -31 -15 -60.5t-15 -60.5zM416 1133h10l4 59q0 4 3 7t5 7h-10q-6 0 -9 -8t-3 -20.5v-24.5v-20zM436 401q4 27 8.5 51.5t4.5 51.5zM453 537l12 8l33 184q6 41 11 93t11 106.5t14.5 106.5t20.5 93v11q-16 -49 -30.5 -108.5t-26 -121t-20.5 -121t-15 -110.5 q6 -4 6 -12q0 -18 -6 -53t-10 -76zM471 1202v4v-4zM496 1081q8 23 16 46.5t16 46.5q10 14 23 14v12q-10 -4 -22.5 -10t-22.5 -10q0 -2 1 -2t1 -4zM508 547q35 2 80 6t78 8q-12 57 -22.5 125t-20 137.5t-16.5 137t-13 126.5q-4 -31 -9 -60.5t-7 -55.5l-15 -101l-22 -133 q-6 -49 -14.5 -96t-18.5 -94z" />
<glyph unicode="b" horiz-adv-x="970" d="M23 33q0 10 9 17t19 9q10 0 21.5 -1t21.5 -1q0 4 -1 8.5t-1 8.5q0 10 1 18t1 17v331q-10 41 -15 120t-5 173q0 80 3 162t9 149.5t13 110.5t16 43h-13h-11t-20.5 2t-20.5 6t-9 11q0 29 35 29.5t86 0.5q59 0 135 -2t152 -10q178 -20 262 -105.5t84 -205.5q0 -80 -38 -169 t-110 -177q57 -10 109.5 -34t92.5 -57.5t62.5 -75.5t22.5 -87q0 -53 -38 -108.5t-126 -106.5q-111 -63 -224.5 -84t-236.5 -23q-66 0 -133 4t-139 10q-14 6 -14 17zM127 1196q2 0 5 -4t5 -8l2 -140q2 0 6.5 -38.5t8.5 -87t7 -90.5t5 -44l-4 416q-10 0 -17.5 -2t-17.5 -2z M137 453q8 -68 13.5 -148t9.5 -145l6 -10q-8 119 -18.5 242.5t-10.5 230.5q0 14 1 27.5t1 27.5h-2v-225zM154 51h20v4q0 6 -2 9.5t-2 7.5l-14 8q0 -10 -1 -16.5t-1 -12.5zM207 1200q6 -35 8 -71.5t2 -75.5q0 -68 -4 -136.5t-4 -134.5v-112q10 61 14 123.5t4 126.5 q0 70 -3 139t-5 141h-12zM211 588l6 -80q-2 20 1 39.5t1 40.5h-8zM244 252q0 -90 6 -166q12 -4 14 -4q-2 20 -2 39.5v40.5q0 35 1 67.5t3 67.5l-8 281q-6 -78 -10 -161t-4 -165zM270 1198q2 -14 2 -29.5v-29.5q2 0 4 2v59q-2 -2 -6 -2zM311 287q0 -23 1 -60t3 -71.5t6.5 -61 t12.5 -26.5h8q-4 53 -5 95t-1 83t-2 90t-6 117q-8 0 -13 4q-2 -35 -3 -85t-1 -85zM319 549q1 2 3 2q-2 2 -3 4v-6zM319 1143q2 0 3.5 1t5.5 1q2 0 3 -1t3 -1q2 16 5 29.5t7 29.5h-27v-59zM356 813q0 -102 6 -207v385q-6 -90 -6 -178zM395 59q78 4 165 25.5t161 57.5t122 81 t48 99q0 37 -23.5 71.5t-61.5 63t-89 50t-107 34.5q-47 -45 -98 -73t-104 -28q-4 -86 -6.5 -190.5t-6.5 -190.5zM408 494q8 -2 22 -2q37 0 71 15t64 42q-53 6 -100 6q-16 0 -29.5 -1t-27.5 -3v-57zM408 1196q0 -154 1 -303.5t1 -302.5q10 2 17 3t17 1q39 -2 79 -4t81 -8 q72 74 108 158.5t36 166.5q0 59 -20.5 112.5t-62.5 92.5t-106.5 61.5t-150.5 22.5z" />
<glyph unicode="c" horiz-adv-x="737" d="M29 600q0 102 22.5 216t68.5 209t115.5 156.5t161.5 61.5q33 0 74 -11t81 -32.5t73.5 -52.5t56.5 -70v-8q0 -14 -11.5 -21.5t-21.5 -7.5q-12 0 -14 7q-41 43 -77 73.5t-77 53.5q-45 -18 -76.5 -83t-53 -154t-32 -195.5t-10.5 -209.5q0 -113 11.5 -209t33.5 -153 q47 -70 73 -86t42 -16q18 4 55 24.5t74 44.5q43 29 92 64q12 0 12 -17q0 -12 -27.5 -39.5t-67.5 -58.5t-83 -56.5t-71 -29.5q-14 -2 -27.5 -3t-30.5 -1q-53 0 -106 17.5t-88 60.5l-17 20q-53 61 -84.5 147.5t-46.5 172.5q-24 73 -24 178v8zM72 643q8 57 25.5 125t41 136.5 t51 131t58.5 109.5q-49 -43 -81 -102.5t-52.5 -126t-29.5 -137t-13 -136.5zM158 503.5q0 -24.5 2 -46.5q2 25 6 77t9 110t11.5 110.5t14.5 72.5q0 49 13.5 104.5t25.5 108.5q-49 -111 -65.5 -237.5t-16.5 -251.5v-47.5zM174 354q6 -74 33 -139t86 -102q-45 35 -69.5 99 t-49.5 142zM244 635q0 -61 5 -135t21 -119q-6 49 -10 102.5t-4 108.5q0 137 24.5 271t77.5 233v4q-16 -25 -30 -64l-29 -73q0 -2 -4 -7q-2 -2 -2 -4q-27 -86 -38 -163.5t-11 -153.5z" />
<glyph unicode="d" horiz-adv-x="964" d="M18 1214q0 14 12.5 20.5t31 9.5t39 3h34.5q92 0 191.5 -23.5t193.5 -64.5t177 -100.5t141 -128.5q92 -143 92 -281q0 -92 -36 -174t-96.5 -152.5t-139 -127t-165.5 -96.5t-176.5 -61.5t-169.5 -21.5q-20 0 -30.5 2t-10.5 13q0 23 18.5 23t37.5 9q-8 27 -12.5 59 t-6.5 63.5t-2 58v43.5q0 35 1 69.5t1 75.5q0 92 -2 194.5t-4 204t-4 198.5t-4 177l-100 -10q-4 0 -7.5 6t-3.5 12zM182 240q0 -23 2 -41.5t6 -28.5l7 -61q0 82 -13 161q0 -8 -1 -15t-1 -15zM197 909q0 -43 1 -108.5t3 -135t4 -135t6 -108.5q6 -66 17.5 -139.5t11.5 -145.5 q10 0 10 -16q0 -6 -1 -9t-3 -14q4 -4 10 -7t16 -5q-14 76 -24 173t-18.5 205.5t-16.5 222.5t-16 222zM219 1192q2 -84 7 -190.5t11.5 -219t15.5 -220t19 -189.5v92v34.5v61.5t1 61.5t1 34.5l-2 35t-6 89.5t-8 119t-8 122.5t-7 102t-3 59zM285 1169q2 -74 12 -151l4 147 q-4 0 -16 4zM312 248v-7q0 -16 3 -32q0 -12 1 -25.5t3 -29.5q-6 74 -6 137q0 -23 -1 -43zM326 104l2 -6q-2 2 -2 6zM340 729q-1 -35 -1 -70q0 -69 3 -137q4 -100 12 -182v311q0 70 -1 131.5t-1 122v120.5v126h-6q-2 -88 -4 -197.5t-2 -224.5zM387 639q0 -49 1 -103.5 t2 -104.5t3 -77q0 27 -1 77t-2 104.5t-2 104.5t-1 77v-78zM416 1151q10 -33 14 -98.5t4 -151.5q0 -76 -2 -160t-5 -166.5t-5 -160.5t-2 -140q0 -57 3 -96t9 -51q88 25 169 78t142.5 125.5t97.5 157.5t36 171q0 84 -40 160t-104.5 140.5t-147.5 113.5t-169 78z" />
<glyph unicode="e" horiz-adv-x="747" d="M18 1217q0 10 6.5 17t16.5 7q18 0 31.5 -1t31.5 -1q-2 2 -2 6q0 10 7.5 15.5t15.5 5.5t15 -5.5t10 -21.5q86 -2 176 -7t164.5 -11.5t121.5 -14.5t47 -16q0 -10 -9 -18.5t-21 -8.5q-68 2 -137.5 6.5t-137.5 8.5l-8 -123v-441l191 11q20 -2 20 -21q0 -14 -18 -22l-205 -15 v-96q0 -10 2 -76.5t2 -148.5q0 -53 -2 -102.5t-6 -88.5q94 6 187 9.5t188 5.5q16 -2 16 -17q0 -18 -23 -26l-655 -23q-18 0 -18 14q0 8 8 17.5t18 11.5h23q0 143 4 291.5t8 294t8 287t4 272.5v4h-51.5t-28.5 21zM119 47l16 6v19q0 51 3 113.5l6 125t6.5 124t3.5 114.5h-27 q-2 -53 -3 -115.5t-2 -128t-2 -129t-1 -117.5v-12zM137 592h17q-2 76 -2 172v184t-1 155.5t-4 88.5l-10 -399v-201zM203 799q6 90 12 193.5t8 189.5l-20 2q2 0 2 -4q0 -88 -1 -191.5t-1 -189.5zM247 471q1 -18 1 -29v-68.5t1 -79.5t2 -102.5t1 -138.5q0 -2 2 34t3 91t2 121 t2 123t2 97t1 42q-10 -4 -13 -19.5t-4 -33.5v-18.5v-18.5zM256 602q6 0 10 2q6 63 12.5 155.5t12.5 179.5t10 150.5t4 69.5v2q0 4 6 10v3h-18q0 -51 -6 -137.5t-13.5 -173.5t-12.5 -158.5t-5 -94.5v-8z" />
<glyph unicode="f" horiz-adv-x="882" d="M20 -8q0 10 11.5 19t27 16.5t34 11.5t32.5 8q-2 16 -2 33.5v34.5q0 35 1 67.5t1 67.5v330h-12q-18 0 -19 14q0 8 8.5 17.5t18.5 11.5h4v569h-55q-18 0 -19 12q0 23 27 31h86q12 8 20 8q10 0 13 -8q23 0 77 -1t121.5 -2t140 -2t135 -2t105.5 -2t51 -1q16 -4 17 -15 q0 -10 -9.5 -19t-21.5 -9q-98 0 -195.5 1t-195.5 3q-4 -104 -10 -236.5t-15 -249.5q0 -16 1 -32.5t1 -32.5q53 4 108.5 6t108.5 4q16 -4 17 -14q0 -16 -26.5 -23.5t-64.5 -10.5t-77 -3t-64 -2q8 -129 13.5 -254t13.5 -256q12 0 25.5 1t25.5 1q16 -4 17 -14q0 -16 -37 -25.5 t-89.5 -15.5t-109.5 -9.5t-98 -9.5q-8 -8 -19 -8q-4 0 -6 2q-29 -4 -52.5 -11t-39.5 -11q-4 -2 -12 -2q-12 0 -13 12zM174 59l23 4v517h-7q-4 -129 -8 -259.5t-8 -261.5zM190 623h17q0 119 2 231.5t2 228.5q0 18 -1 34t-5 20l-4 4q-4 -123 -5 -259.5t-6 -258.5zM264 72h2 q4 129 9.5 256t13.5 254h-19q-6 -252 -6 -510zM270 625l21 4l10 295q-2 66 -2 131v133q-10 -2 -15 -19.5t-8.5 -43t-4.5 -57.5t-1 -62q0 -35 1 -66t1 -49v-133t-2 -133zM311 78h11q0 66 -1.5 131t-3.5 133q-2 -68 -4 -133.5t-2 -130.5z" />
<glyph unicode="g" horiz-adv-x="864" d="M29 625q0 100 22.5 209.5t68.5 200.5t114.5 150.5t160.5 59.5q78 0 141.5 -41t137.5 -114l16 94q6 18 25 18q14 0 18 -18l-47 -252q-4 -18 -22 -19q-20 0 -21 25l16 92q-33 39 -77.5 76t-100.5 72q-45 -18 -76.5 -81t-53 -151t-32 -190.5t-10.5 -202.5q0 -111 11.5 -205 t33.5 -151q47 -70 73 -86.5t42 -16.5q14 2 43 16.5t59.5 33t58 38t44.5 35.5q-8 88 -15.5 176t-9.5 176l-221 -28q-18 0 -18 14q0 23 26 31q96 12 189.5 23.5t189.5 15.5q16 -2 16 -15q0 -20 -22 -28l-117 -7q2 -31 6 -89t9.5 -129.5l11.5 -149.5t10 -147.5t8 -122t4 -72.5 q-4 -18 -20 -19q-14 0 -21.5 36t-11.5 87t-6 107.5t-6 99.5q-35 -27 -64.5 -53.5t-61.5 -49t-69 -36.5t-86 -14q-53 0 -106 17t-88 60l-17 21q-53 61 -84.5 147t-46.5 172q-24 73 -24 177v8zM72 621q8 57 25.5 128.5t41 144.5t51 139.5t58.5 113.5q-49 -43 -81 -105.5 t-52.5 -134t-29.5 -146.5t-13 -140zM158 529q0 -23 2 -46q2 25 6 74t9 102.5t11.5 101.5t14.5 68q0 47 13.5 103.5t25.5 109.5q-49 -111 -65.5 -228.5t-16.5 -238.5v-46zM174 381q6 -76 33 -140.5t86 -101.5q-45 35 -69.5 99.5t-49.5 142.5zM244 653q0 -57 5 -127.5 t21 -117.5q-6 49 -10 101t-4 105q0 133 24.5 259t77.5 225v4q-10 -14 -17 -29.5t-13 -32.5l-29 -75q0 -4 -3 -5.5t-3 -5.5q-27 -86 -38 -158.5t-11 -142.5z" />
<glyph unicode="h" horiz-adv-x="817" d="M12 8q0 23 16.5 26t41.5 7q-10 49 -13.5 100.5t-3.5 104.5q0 242 15.5 473t23.5 473q-16 -4 -32.5 -4h-32.5q-14 2 -15 14q0 10 7.5 18.5t19.5 12.5q10 0 50 3t91 5t105.5 4t95.5 2q33 0 50.5 -3t23.5 -7t6 -9v-9q0 -16 -26.5 -17.5t-61.5 -1.5q-10 0 -17.5 1t-15.5 1 q-4 -6 -5 -17t-3 -26q0 -123 5 -254t5 -299q92 0 182 2t183 13q12 309 18 612q8 22 29 22h2q14 0 16 -16q-2 -154 -7 -307.5t-9 -306.5q16 0 16 -21q0 -20 -18 -22q-2 -66 -3 -140.5t-2 -152.5t-1 -154v-139q-2 -10 -12.5 -18.5t-20.5 -8.5q-14 0 -15 19v141.5v153t1 153.5 t4 142q-90 -10 -180.5 -12.5t-182.5 -2.5q0 -123 7 -241.5t7 -237.5l-2 -4l58 4q16 -4 16 -14q0 -23 -25 -29q-18 -4 -56 -10t-83 -12.5t-94 -11.5t-90 -7l-49 -4q-18 0 -19 12zM98 170q0 -4 2 -4q-2 2 -2 4zM131 508q0 -21 2 -41q2 -72 11.5 -169t9.5 -189q0 -16 -1 -29.5 t-1 -28.5h12q-6 291 -8 573.5t-2 571.5q-6 -2 -21 -2q6 -51 8 -101.5t2 -103.5q0 -109 -6 -217t-6 -223v-41zM197 821.5q0 -186.5 4 -377.5q10 184 13 382t11 380v4h4q8 18 25 19q10 0 12 -8h4v-9q4 -66 7 -146.5t8 -143.5v104t4 102v66q0 6 2 8q-23 0 -46.5 -1t-47.5 -3 v-376.5zM215 57l33 6v214.5t-2 214.5l-8 -152q-4 -66 -6.5 -139.5t-16.5 -143.5zM291 70l22 2q-4 53 -6 105.5t-4 107.5q-4 39 -7 76.5t-5 78.5v-370z" />
<glyph unicode="i" horiz-adv-x="616" d="M16 1198q0 8 8.5 16.5t18.5 10.5q33 4 88 9t117.5 9t124 7t108.5 3q29 0 49.5 -1t20.5 -17q0 -8 -7 -16.5t-18 -10.5l-53 -8q-10 -182 -16 -378.5t-6 -389.5q0 -184 6 -352q14 0 36.5 -1t43 -3t35 -7t14.5 -14q0 -16 -13 -24q-18 -4 -79.5 -8.5t-135 -7.5t-146.5 -5 t-112 -2q-18 0 -18 12q0 23 31 27q29 4 44 6t22 3t12.5 3t13.5 4q-23 281 -27 563.5t-4 557.5v2q-35 -2 -68.5 -3t-68.5 -1q-20 0 -21 16zM219 1188q4 -31 4 -63.5v-65.5v-74v-49q4 -109 11.5 -217.5t13.5 -218.5q0 -4 5 -44t9 -97.5t8 -122t4 -115.5q0 -12 -1 -24.5 t-1 -22.5l7 4q-8 281 -27 559t-23 551h-10zM272 1141q4 -135 14.5 -273.5t18.5 -273.5q8 -127 9 -251t8 -249q4 -2 4 -5t2 -7v-4h4q0 43 2 85t6 83q-10 180 -27.5 358.5t-25.5 356.5q0 33 -1 85t-14 95zM340 1171q2 -4 4 -44t4 -97t4 -123.5t4 -125t4 -99.5t2 -45l-6 537z M377 80q10 -2 19.5 -2h19.5q-4 141 -10.5 279.5t-10.5 279.5q-18 -276 -18 -557zM416 891q0 -21 2 -41q4 82 8 161t4 160q-8 -59 -11 -118.5t-3 -120.5v-41z" />
<glyph unicode="j" horiz-adv-x="765" d="M18 203q0 12 9.5 23.5t19.5 11.5q6 0 8 -2q25 -27 58.5 -50.5t66.5 -41t62.5 -29t46.5 -15.5q31 49 52 142.5t35.5 207t22 237.5t7.5 233q0 76 -3.5 139t-9.5 108q-20 -2 -37.5 -4t-33.5 -2q-15 0 -23 2q-18 0 -18 13q0 8 9 16t21 10q14 2 71.5 10.5t123 17.5t126 16 t83.5 7q26 0 26 -19q0 -7 -5 -13.5t-15 -8.5l-96 -16q10 -94 15 -200.5t5 -217.5q0 -98 -4 -195.5t-12 -183.5t-20.5 -156.5t-26.5 -119.5q-23 -68 -68 -95.5t-102 -27.5q-51 0 -107.5 18.5t-110 46t-98.5 60.5t-71 63q-6 6 -7 15zM332 59l14 -4q0 2 6 2l-10 17zM389 106 q25 35 41 68q14 49 25 107q-16 -47 -36 -96.5t-30 -78.5zM403 45q35 0 58.5 22.5t37 58.5t21.5 82t12 93q-8 -31 -18 -67.5t-24.5 -72.5t-36 -67t-50.5 -49zM408 274q4 12 9 26.5t9 31.5q4 14 8 58t9.5 106.5t10.5 137.5t9 150.5t6 145t2 123.5q0 33 -1 56.5t-3 37.5l-3 12 t-1 8q0 2 2 4h-8h-8q0 -57 2 -116.5t2 -120.5q0 -160 -8.5 -328t-36.5 -332zM520 225q18 76 25.5 172.5t10.5 191.5q2 71 2 135v41v50q0 47 1 78q2 18 3 36.5t1 37.5q0 31 -9 82t-9 120q0 17 2 25l-23 -6l8 -4l3 -4l-3 -9q4 -127 10.5 -265t6.5 -279q0 -104 -6 -206 t-23 -196z" />
<glyph unicode="k" horiz-adv-x="1032" d="M18 1186q0 8 8.5 17t18.5 11l475 89h6q16 0 17 -19q0 -27 -22.5 -30t-47.5 -13q2 -12 3 -32.5t1 -51.5q0 -43 -1 -107.5t-1 -156.5v-95t2 -110l381 440q8 6 21 7q23 0 22 -19q0 -8 -6 -14l-391 -459l-27 -61q0 -129 1 -256t3 -269q8 0 16.5 1t16.5 1q20 -2 21 -20 q0 -23 -21 -27q-14 0 -51 -2t-90.5 -5t-119 -5t-134.5 -2q-20 0 -21 14q0 14 11.5 20t28 8.5t34.5 1.5t33 1q-2 10 -2 18.5v18.5q0 18 1 35.5t1 31.5v5q-4 29 -4 55t-4 53q-6 125 -13.5 234.5t-15.5 217t-15.5 218t-9.5 235.5q0 6 3.5 11.5t7.5 9.5q-29 -4 -57.5 -8 t-57.5 -7q-20 0 -21 15zM180 1188l2 4zM209 1196l8 -12q0 -33 1 -65t3 -64q-2 35 -2 71.5v71.5zM236 719q4 -78 5 -160t5 -174v-203q2 -23 4 -37t8 -41q2 -27 14 -49v39q0 158 -12 313.5t-20 313.5q-2 -2 -4 -2zM262 1208q2 -66 4 -130t6 -128l4 4q2 66 5.5 129.5t7.5 128.5 v2zM315 590q0 -8 1 -16.5t1 -14.5h5q8 0 10 -8l-15 186q0 -39 -1 -75.5t-1 -71.5zM332 1225q2 -12 6 -64.5t8 -115t7 -119t5 -76.5v-10l9 389q-14 0 -35 -4zM362 201l9 -148l12 2q-4 37 -10 73t-11 73zM403 361.5q0 -82.5 7 -154.5l14 -88q-10 111 -11 211t-1 198l-9 -6 v-160.5zM403 582l9 8v194t-2 209l-4.5 -193.5t-2.5 -217.5zM410 1235l2 -207q6 76 9 118t5 61.5t2 22.5v7q-8 0 -8 -1t-10 -1zM563 743q0 12 7.5 21.5t17.5 9.5t16 -8q8 -39 46 -124t85 -186.5t95.5 -207t78.5 -182.5v-7q0 -10 -6 -19t-16 -9q-8 0 -17 8q-31 80 -79 183.5 t-96 203.5t-85 186t-47 131zM705 25q0 20 26 28q66 2 128.5 7.5t127.5 7.5q16 -4 17 -15q0 -23 -25 -28q-66 -2 -127 -7.5t-127 -7.5q-20 0 -20 15z" />
<glyph unicode="l" horiz-adv-x="675" d="M10 1208q0 10 8.5 18.5t20.5 10.5l199 6q4 0 7 1t7 1t6 -2l143 8q14 -6 15 -18q0 -20 -27 -25h-41q-2 -37 -2 -74.5v-78.5q0 -242 4 -465t12 -471l7 -51l266 6q18 -4 18 -19q0 -18 -20 -24q-41 -2 -118 -3t-158 -4.5t-150.5 -6.5t-93.5 -9q-4 -31 -29 -31 q-14 0 -20.5 11.5t-18.5 11.5q-18 0 -18 14q0 10 8 18.5t18 10.5q-6 61 -6 137q0 59 2 105.5t4 50.5l-2 94q-2 70 -3 142.5t-1 148.5q0 121 3 239.5t9 233.5q-4 0 -6 -1t-6 -1t-9 1t-9 1q-18 0 -19 14zM129 424q4 -43 8 -95.5t8.5 -103.5t8.5 -95t6 -75h18l-37 320 q-12 123 -12 250v-201zM137 551q0 -47 4 -94q6 178 17.5 369.5t21.5 369.5l-20 -2q-10 -129 -16 -269.5t-7 -277.5v-96zM211 549q0 -2 2 -38t4 -89t5 -114.5t5 -115t4 -89t2 -37.5q-4 -2 -4 -3q2 0 8.5 1.5t8.5 1.5q0 2 -3 37.5t-6.5 88t-7.5 114t-8 114.5t-7 90t-3 39z M221 635l2 -25v-22v24.5t-2 22.5zM260 1036q0 -100 3 -203.5t7 -195.5q12 -135 12 -273q0 -6 -0.5 -11.5t-0.5 -11.5q0 -138 12 -273q14 0 22 2q-10 135 -20 278.5t-10 302.5v234q0 78 -2.5 154.5t-10.5 148.5q2 6 3 10t4 8q-4 -4 -15 -4q-2 -41 -3 -82t-1 -84z" />
<glyph unicode="m" horiz-adv-x="1226" d="M10 4q0 10 8.5 18.5t20.5 10.5q10 0 21.5 -1t23.5 -1q4 0 10 1t12 1q23 293 53.5 577.5t59.5 575.5l-57 -4q-23 4 -23 20q0 12 19.5 18.5t63.5 9.5t117 5t181 4q12 -4 12 -14t-8 -19q35 -119 61.5 -237.5t51.5 -237.5t50.5 -237.5t55.5 -237.5l218 942l-136 -12l-4 2 q-14 0 -14 14q0 10 5 19.5t13 13.5l2 -2l242 18q14 -2 14 -14q0 -8 -8 -16.5t-18 -10.5l-51 -4q10 -295 40.5 -593t43.5 -586l88 12q20 -6 20 -23q0 -16 -18 -20l-228 -27q-4 -2 -10 -2q-14 0 -14 15q0 12 12 22l102 14q-20 242 -32.5 489t-42.5 484l-201 -821 q0 -10 -12.5 -20.5t-22.5 -10.5t-12 11l-205 876q-14 -76 -26.5 -165t-22.5 -185t-18.5 -193.5t-16.5 -189.5q0 -39 1 -78t1 -78v-38.5t-2 -39.5l94 4q14 -6 15 -16q0 -8 -7.5 -16t-17.5 -13l-485 -26q-18 0 -19 12zM150 37h10q14 184 40.5 366.5t43.5 368.5l8 127 q-29 -217 -57.5 -431t-44.5 -431zM203 39l18 2v63v129q-4 -49 -9 -97t-9 -97zM262 375q33 207 61.5 409.5t45.5 407.5h-2q-16 -141 -44 -278.5t-47 -278.5l-14 -199v-61zM266 47l13 -2l6 184q-6 -47 -10.5 -91t-8.5 -91zM287 1184q2 0 6 4zM303 1188q12 -4 12 -17l-4 -90 l11 111zM319 471h3q4 20 6 39.5t6 40.5zM352 129.5q0 -16.5 2 -33t6.5 -29t10.5 -12.5q8 0 12 2q-4 20 -4 40v42q0 59 3 121t7 121q4 100 9 191.5t11.5 186.5t13.5 200.5t13 236.5q-18 -217 -38.5 -433t-35.5 -435q-4 -49 -6 -91t-4 -83v-24.5z" />
<glyph unicode="n" horiz-adv-x="1009" d="M16 1225q0 20 48.5 28.5t181.5 8.5q45 0 77.5 -5.5t36.5 -15.5q49 -133 104.5 -276.5t117 -289t127 -287.5t133.5 -269q-2 119 -5 258t-6.5 282.5t-5.5 282.5t-2 258v8q-37 -2 -73.5 -4t-75.5 -2q-18 0 -19 15q0 23 27 30q78 0 157 4t156 4q16 -2 17 -14 q0 -16 -15.5 -22.5t-38 -8.5t-48 -1t-44.5 1q0 -70 3 -173t6.5 -222t7.5 -242.5t8 -232.5t6 -194t2 -128q0 -27 -4 -38t-25 -11q-10 0 -16 8q-117 231 -199 410.5t-140 316t-96 231.5t-67 161q6 -133 13.5 -260t14.5 -253t13 -252t10 -259q27 4 51.5 8t51.5 8q18 -2 18 -22 t-16 -25l-451 -43q-18 0 -18 14q0 12 7 18.5t18.5 8.5t25.5 2t29 2q0 152 2 297t5 289.5l6 289t3 295.5q-47 -6 -84 -6q-35 0 -35 17zM162 45h8q0 6 -1 13.5t-1 15.5q0 35 6 76q-2 33 -2 59.5v52t-1 52t-3 59.5q-2 -92 -4 -164t-2 -164zM188 852q0 -109 6 -210t11 -206 q4 82 12 164q-10 104 -15 213t-5 217v48v65t3 57.5t9 28.5q-10 -104 -15.5 -196.5t-5.5 -180.5zM233 53l13 2l-6 164q0 -47 -1 -92t-6 -74zM258 645q0 -4 3 -43t6 -95t8.5 -120.5t9.5 -121t7 -94.5t5 -42v10q0 23 -2 79t-4 124t-4 132.5t-2 103.5t2 38q-4 98 -7.5 193.5 t-3.5 194.5q0 -29 -4 -55.5t-2 -55.5zM285 299q0 -59 1 -119.5t3 -120.5h16q-6 51 -7 102.5t-9 112.5q-4 12 -4 25zM328 672q2 -78 4 -146.5t4 -137.5t5 -141.5t7 -160.5v-18h10q-2 82 -5 155.5t-7 146t-8 147.5t-10 155z" />
<glyph unicode="o" horiz-adv-x="940" d="M45 627q0 86 12.5 169t38 156.5t63.5 134t87 99.5q37 29 86 44t102 15q68 0 126 -23.5t99 -68.5q231 -262 232 -551q0 -156 -70 -317q-39 -61 -82 -114.5t-91 -93.5t-100 -62.5t-108 -22.5q-102 0 -176 57t-123 148.5t-72.5 204t-23.5 225.5zM98 602q0 -86 15.5 -169 t50.5 -154q-31 74 -42 163.5t-11 188.5q0 39 2 75.5t8 71.5v25.5t2 23.5q-2 2 -2 9q0 31 14.5 65.5t36 71.5t45 70.5t41.5 62.5q-37 -41 -66.5 -97.5t-50 -122t-32 -138t-11.5 -146.5zM158 664q0 -43 2 -87.5t8 -80.5q2 39 6 85t8 90t8.5 81.5t10.5 60.5v62.5t2 58.5 q-27 -63 -36 -123.5t-9 -146.5zM238 637q0 -74 4 -152.5t16 -144.5q-4 35 -6 81t-2 99q0 80 6 171t19.5 176t36 155t57.5 111h-11q-29 -33 -50 -88.5t-37.5 -122t-24.5 -141t-8 -144.5zM256 1014q2 10 3 19t5 18l8 10q2 6 11.5 10t19.5 8t17.5 8.5t7.5 8.5q0 10 -12.5 13 t-12.5 9q0 8 10 8q-20 -27 -33.5 -54t-23.5 -58zM293 518q0 -47 2 -87t6 -75q2 -20 15.5 -68t37 -97.5t57 -87t76.5 -37.5q59 0 106.5 25.5t83.5 62t62.5 79.5t44.5 80q29 72 45.5 143.5t16.5 147.5q0 86 -25 182q-18 55 -47 117t-66.5 115t-88 94t-113.5 57 q-63 -37 -104.5 -109.5t-66 -163.5t-33.5 -190.5t-9 -187.5zM328 115q2 -5 12 -9q-6 4 -10 15q-2 -2 -2 -4v-2z" />
<glyph unicode="p" horiz-adv-x="786" d="M10 4q0 20 21 29h12q12 0 24.5 -1t24.5 -1q6 0 13.5 1t13.5 1v112q0 229 -5 477t-5 476v112l-64 -10q-20 8 -20 23q0 10 20.5 17t57 11t86 6.5t106.5 2.5q76 0 155.5 -11.5t144 -44.5t105.5 -89t41 -148q0 -94 -33.5 -167t-86 -122t-112.5 -76t-116 -29q4 -125 9.5 -261 t5.5 -265q16 4 30.5 4h30.5q16 -6 16 -16t-9 -16.5t-22.5 -9.5t-27.5 -4t-23 -1q-2 2 -2 4q-94 -4 -190 -10t-186 -6h-7q-8 2 -8 12zM160 688q2 -98 2 -223v-248v-184q6 0 13 2t15 2q-8 53 -10 150.5t-2 236.5l-14 262q-2 0 -2 1t-2 1zM193 1219l36 -476l-10 471 q-12 0 -14 2.5t-12 2.5zM266 686q2 -223 12.5 -366.5t10.5 -219.5q0 -18 -1 -33.5t-3 -25.5q6 0 14 1t16 1q-2 72 -8 156t-13 169t-15.5 167.5t-12.5 150.5zM309 1112q0 -94 8.5 -186t22.5 -185q2 0 4 2q-10 117 -14 236t-8 240h-9q-2 -27 -3 -53.5t-1 -53.5zM342 702 q2 -23 4 -64.5t4 -86.5t3 -86t1 -66q0 -29 -1 -64.5t-1 -74.5q0 -43 2 -86t13 -80q0 63 -2.5 143t-5.5 163t-7 162.5t-6 142.5q-4 -2 -4 -3zM369 1212q0 -16 1 -66t2 -116.5t3 -139.5t5 -134.5t7 -101.5t8 -40q37 0 89.5 19.5t99.5 60.5t79.5 102.5t32.5 145.5 q0 72 -24.5 121t-67.5 80t-103 47t-132 22zM375 53l8 -6q-4 6 -8 6z" />
<glyph unicode="q" horiz-adv-x="944" d="M45 627q0 86 12.5 169t38 156.5t63.5 134t87 99.5q37 29 86 44t102 15q68 0 126 -23.5t99 -68.5q231 -262 232 -551q0 -156 -70 -317q-39 -61 -82 -114.5t-91 -93.5t-100 -62.5t-108 -22.5q-102 0 -176 57t-123 148.5t-72.5 204t-23.5 225.5zM98 602q0 -86 15.5 -169 t50.5 -154q-31 74 -42 163.5t-11 188.5q0 39 2 75.5t8 71.5v25.5t2 23.5q-2 2 -2 9q0 31 14.5 65.5t36 71.5t45 70.5t41.5 62.5q-37 -41 -66.5 -97.5t-50 -122t-32 -138t-11.5 -146.5zM158 664q0 -43 2 -87.5t8 -80.5q2 39 6 85t8 90t8.5 81.5t10.5 60.5v62.5t2 58.5 q-27 -63 -36 -123.5t-9 -146.5zM238 637q0 -74 4 -152.5t16 -144.5q-4 35 -6 81t-2 99q0 80 6 171t19.5 176t36 155t57.5 111h-11q-29 -33 -50 -88.5t-37.5 -122t-24.5 -141t-8 -144.5zM256 1014q2 10 3 19t5 18l8 10q2 6 11.5 10t19.5 8t17.5 8.5t7.5 8.5q0 10 -12.5 13 t-12.5 9q0 8 10 8q-20 -27 -33.5 -54t-23.5 -58zM293 518q0 -47 2 -87t6 -75q2 -20 15.5 -68t37 -97.5t57 -87t76.5 -37.5q59 0 106.5 25.5t83.5 62t62.5 79.5t44.5 80q29 72 45.5 143.5t16.5 147.5q0 86 -25 182q-18 55 -47 117t-66.5 115t-88 94t-113.5 57 q-63 -37 -104.5 -109.5t-66 -163.5t-33.5 -190.5t-9 -187.5zM328 115q2 -5 12 -9q-6 4 -10 15q-2 -2 -2 -4v-2zM473 512q0 12 8 21.5t19 9.5q6 0 31.5 -34t55 -77t57.5 -85l40 -60q63 -82 122.5 -166t113.5 -174l4 -4l-4 -2q0 -10 -7.5 -18.5t-17.5 -8.5q-8 0 -14 6 q-70 74 -121 159t-109 169l-174 252q-4 6 -4 12z" />
<glyph unicode="r" horiz-adv-x="903" d="M23 1159q0 16 18 27l86 47v18q0 12 9 21.5t20 9.5q10 0 14 -16v-15q23 8 53.5 12.5t77.5 4.5q197 0 286 -66.5t89 -163.5q0 -63 -33 -130.5t-92 -133.5q0 -2 1 -3t1 -3q0 -10 11 -51t30.5 -103.5t43.5 -137.5t48.5 -151.5t47 -147.5t40.5 -124v-6q0 -10 -7 -19.5 t-17 -9.5t-17 13q-18 51 -40.5 120.5t-47 144.5t-48.5 149.5t-43 136t-31.5 102.5t-12.5 49q-23 -25 -35 -35l-24 -20l-35 -29q8 -150 16 -298t12 -296q23 2 45.5 3t45.5 1q16 -4 16 -14q0 -8 -7 -16.5t-18 -12.5q-39 -2 -82 -7t-96 -11t-118.5 -12.5t-145.5 -12.5 q-18 0 -18 15q0 8 8 17t18 11l62 7q-4 4 -4 6l-9 436q-4 2 -4 10t4 14q-4 174 -9 348.5t-5 350.5l-80 -41q-4 -2 -10 -2q-14 0 -14 14zM180 719q0 -33 1 -65.5t3 -65.5q0 -14 2 -29.5t2 -34.5l7 4q-4 61 -7.5 123t-5.5 123q0 -14 -1 -27.5t-1 -27.5zM190 481 q2 -29 4.5 -53.5t6.5 -42.5l-6 98q-2 0 -2.5 -1t-2.5 -1zM207 1219q4 -160 12 -330t17 -328l2 2q2 47 3 94.5t1 94.5q0 86 -3 172t-14 178q-4 16 -6 33.5t-2 35.5v13.5t2 15.5zM248 356l16 -323l27 4l-4 22q-6 14 -12.5 57.5t-10.5 92.5t-9 91t-7 56zM287 522q0 -39 3 -94 t7 -115l6 101q-4 37 -5 71.5t-5 69.5q-7 -7 -7 -14zM301 248l18 -232q0 8 -2 34t-5 59.5t-6 70.5t-5 68zM311 1223q8 -25 8 -66q0 -23 -1 -44t-1 -38l9 -219q6 -47 12 -95t10 -97q6 2 11.5 4t11.5 6q-8 131 -13.5 261t-9.5 263q0 8 3 13.5t7 9.5q-10 0 -22 1t-25 1zM350 555 q0 -43 2 -115.5t6 -148.5t8.5 -140.5t10.5 -91.5q4 18 4 66.5v114.5q0 90 -2 192.5t-6 183.5l-21 -16q-2 -2 -2 -45zM389 1219q0 -4 2 -5q0 -2 2 -2q2 -129 7.5 -258t13.5 -256q39 33 77.5 72t69.5 83t50.5 92t19.5 102q0 63 -64.5 110t-177.5 62zM645 2q0 8 8.5 17.5 t18.5 11.5q51 4 97 19.5t97 17.5q16 -4 17 -15q0 -23 -25 -28l-194 -37q-18 0 -19 14z" />
<glyph unicode="s" horiz-adv-x="817" d="M37 266v27q0 12 8 21.5t18 9.5t15.5 -40t8.5 -95.5t5 -114t2 -97.5q-2 -10 -10 -18t-18 -8q-8 0 -14.5 43t-9.5 97t-4 105.5t-1 69.5zM55 928q0 57 32 113.5t86 101.5t127 72.5t153 27.5q61 0 127.5 -15.5t111.5 -49.5l-2 88q0 12 8.5 21t18.5 9t14 -16l12 -334 q-2 -10 -11 -18t-17 -8q-14 0 -15 18l-4 143q-14 33 -41.5 63t-87.5 30q-47 0 -90 -19.5t-77.5 -53.5t-55 -77t-20.5 -88q0 -57 32.5 -116.5t85 -121t117 -124t127.5 -123.5q41 -41 61.5 -92.5t20.5 -104.5q0 -68 -25.5 -114t-69.5 -75.5t-102.5 -43t-121.5 -13.5 q-55 0 -111.5 9.5t-109 24.5t-95.5 37.5t-74 49.5l4 74q43 -66 117 -100.5t148 -34.5q37 0 70.5 10t61 31.5t44 54.5t16.5 80q0 43 -20.5 85t-52 82t-68.5 75.5t-68 64.5q-33 31 -77 71t-83.5 88t-67.5 103t-28 115zM127 932q0 -74 49 -149.5t141 -137.5q-35 35 -66.5 67.5 t-56 65.5t-40 68t-15.5 72q0 39 18.5 81t59.5 91q16 23 39 40t47 29q-176 -90 -176 -227zM240 944q0 -61 25.5 -112.5t59 -92.5t67.5 -69.5t50 -44.5q-16 12 -36.5 29.5t-43 46t-47 72.5t-49.5 112q-8 23 -8 49q0 53 32 103t79 91q-29 -4 -53.5 -24.5t-41 -48t-25.5 -58 t-9 -53.5zM315 1167q10 0 13 -2l6 4q-14 0 -19 -2zM442 1200q8 -2 21 -8l10 6q-8 2 -31 2zM500 84q29 25 51 56.5t22 70.5q0 16 -6 39q0 -41 -18.5 -86t-48.5 -80zM532 561q29 -29 59 -66.5t53.5 -78.5t37.5 -85t14 -87q0 -41 -15 -74t-40 -70q29 18 49.5 50t24.5 79v19 q0 43 -18.5 88t-46 87t-59.5 78t-59 60zM569 401l31 -47q23 -41 31 -66.5t8 -45.5q0 -29 -12.5 -56.5t-32.5 -74.5l-2 -2q29 18 42 55t13 69q0 47 -21.5 88t-56.5 80z" />
<glyph unicode="t" horiz-adv-x="854" d="M14 1186q0 23 19 33q25 2 83 5t134 7t161 7t162.5 6t140 5t93.5 2q12 -2 17 -9t5 -15q0 -20 -18 -21q-41 0 -90 -7t-103 -7q6 -53 7 -117q0 -260 -8.5 -503.5t-8.5 -501.5l41 -4q16 -2 17 -17q0 -18 -23 -26q-31 -2 -83 -6.5t-109.5 -9.5t-111.5 -8t-89 -3q-18 0 -19 12 q0 14 11.5 21.5t28 9.5t35 2h30.5v82t-2 82q-10 248 -10 489.5t-11 487.5q-63 -4 -137 -8.5t-143 -4.5q-18 0 -19 17zM356 1192q0 -23 1 -44.5t1 -43.5zM391 535.5q0 -54.5 4 -111.5l45 770q-10 0 -18 -1t-14 -1q-6 -143 -11.5 -275.5t-5.5 -273.5v-107.5zM399 47h17.5 t15.5 4q-4 23 -7 67t-5 93t-4 96t-2 76q0 -35 1 -91t1 -112q0 -41 -2 -73.5t-6 -51.5l-5 -2q0 -6 -4 -6zM469 55q10 0 17.5 1t13.5 1q0 16 -3 71.5t-6.5 132.5t-7.5 162t-7 162t-5 132t-2 71q0 -20 1 -82.5t1 -143.5t1 -171t1 -166v-113t-4 -57zM539 711q0 -164 5 -326 t11 -322q8 2 11 52.5t3 115t-2 125t-2 82.5q0 186 -1 372.5t-5 373.5v8l-6 -23q-8 -115 -11 -228.5t-3 -229.5z" />
<glyph unicode="u" horiz-adv-x="866" d="M23 1225q0 10 9 17t19 9q6 0 16.5 -1t46.5 -2t105.5 -4t194.5 -7q16 -4 16 -14t-9 -19.5t-22 -9.5h-45q-2 -39 -5 -95.5t-6 -123t-6 -141t-3 -150.5q0 -94 5 -186t18.5 -171t37 -138.5t58.5 -90.5q10 -8 20 -8t21 -4q74 41 121 102.5t74.5 137t37.5 161.5t10 177 q0 143 -18.5 282t-28.5 246q-29 -4 -54.5 -4h-47.5q-23 0 -23 18q0 20 21 27l243 10q18 -6 19 -20q0 -20 -19 -23l-92 -6q6 -47 15.5 -117.5t17.5 -150.5t14.5 -162t6.5 -150q0 -117 -28 -226t-80 -194t-127 -137.5t-171 -52.5q-68 0 -117 29.5t-83.5 80t-57.5 117t-35 139 t-17 147.5t-5 140q0 141 10 283.5t16 265.5q-20 2 -46.5 1t-26.5 18zM127 733q0 -74 2 -146.5t6 -138t13.5 -121t21.5 -94.5q-4 31 -7 68t-9 84q-10 86 -13.5 183.5t-3.5 199.5q0 117 3 227.5t7 206.5q-4 0 -5 2t-3 2q-4 -88 -8 -213t-4 -260zM188 1133q6 33 27 67h-25z M190 471l6 -72q2 -41 7.5 -79.5t16.5 -74.5t30.5 -67t52.5 -55l-6 20q-10 6 -16 17q-39 74 -59.5 151.5t-31.5 159.5zM221 928q0 -37 1 -67t1 -36v-34q0 -88 7.5 -210t25.5 -253l-33 678q0 -18 -1 -38t-1 -40zM246 1174l6 -9q0 12 10 33h-2l-4 -6q-8 -8 -10 -18zM276 733 q0 -66 3 -160t9.5 -182t22 -152.5t41.5 -70.5q-23 61 -35 120.5t-17 120t-6 123t-1 132.5q0 141 7 278t11 254h-20q0 -25 -3 -71t-5 -107.5t-4.5 -134t-2.5 -150.5zM301 78l10 -6q16 -12 29 -15q-10 12 -23 35q-2 -10 -16 -14zM356 121q23 -20 32 -45t34 -25q2 0 3 1t5 1 l-8 6q-16 10 -28.5 26.5t-22.5 39.5q-8 -4 -15 -4z" />
<glyph unicode="v" horiz-adv-x="1169" d="M23 1217q0 8 7 16t17 10q117 0 229.5 13.5t229.5 13.5q16 -4 16 -17q0 -23 -21.5 -25.5t-35.5 -2.5v-13q23 -102 50.5 -245.5t58 -292t61.5 -281.5t57 -215q6 16 20.5 76.5t35 149t44 195t48 215t48 208.5t42.5 178q-20 -2 -40 -2h-40h-40t-40 2q-18 0 -18 14 q0 10 8 18.5t18 10.5q20 -2 39 -2h39q43 0 86 1t86 1q14 0 34.5 1t40 0t33 -5t13.5 -12q0 -20 -23 -29l-151 2q-18 -94 -44 -212t-53.5 -239.5t-53 -238.5t-47 -210t-35 -151.5t-13.5 -62.5l78 27h6q16 0 16 -15q0 -18 -27.5 -33.5t-72.5 -25.5t-100.5 -18.5t-108.5 -12.5 t-99 -7t-75 -3q-18 0 -18 14q0 18 16 23.5t33 5.5h47q-39 143 -82 307t-82 321.5t-68.5 297t-39.5 233.5l18 6q-66 -6 -129 -6q-18 0 -18 17zM264 1177q0 -12 1 -21t3 -21.5t6 -36.5l101 -434l-21 133q-16 100 -42 198.5t-36 198.5q0 10 5 18h-17v-35zM274 1085l5 -24 q0 4 -5 24zM317 1214q10 -23 15.5 -42t13.5 -39q0 10 -1 20t-1 21q2 4 2 6t2 4q-2 8 -2 22q0 6 2 13zM332 743q18 -104 41.5 -201.5t52.5 -199.5q-23 123 -47.5 227.5t-46.5 173.5zM389 1219q6 -102 26.5 -203t47 -200t53.5 -199.5t45 -200.5q33 -162 68 -239t45 -89 q-82 256 -146.5 532.5t-117.5 593.5l-21 7v-2zM410 745q4 -33 9 -64.5t11 -64.5q0 10 8 17l-22 92zM432 600q25 -133 56.5 -272.5t60.5 -268.5l26 9l-2 20q-39 115 -71.5 250t-69.5 262zM453 154l20 -97l21 -2q-12 20 -22.5 48t-18.5 51z" />
<glyph unicode="w" horiz-adv-x="1325" d="M16 1180q0 20 27 28q33 2 101.5 11.5t140 18.5t134 16.5t85.5 7.5q18 0 18 -15q0 -8 -6 -16t-16 -10l-31 -11q2 -72 5.5 -138t8.5 -134q0 -16 2 -23q2 -6 4 -10h-4q14 -127 33 -248.5t36 -223t32.5 -175.5t23.5 -104q2 27 10.5 86t18.5 140t22.5 175t24.5 191.5 t24.5 189.5t20.5 168q4 10 12.5 17t16.5 7q10 0 14 -16q2 -16 12.5 -72.5t26.5 -138.5t35.5 -180t38 -198.5t37 -196t30.5 -166.5q12 94 28.5 222t35 267t36 281.5t31.5 265.5q-16 0 -39.5 -1t-45 0t-38 4t-16.5 13t7.5 18.5t19.5 10.5h82h110.5t96.5 -4t41 -14t-8.5 -18.5 t-20.5 -8.5h-144q-35 -299 -73.5 -596t-77.5 -598q-6 -10 -23 -10q-16 0 -20 10q-6 41 -28.5 153.5t-50.5 253t-55.5 283t-43.5 244.5l-113 -891h43q20 -2 21 -22q0 -20 -21 -21q-25 0 -44 -1t-61 -2t-120 -3t-215 -4q-18 2 -19 14q0 23 27 27h31q-6 29 -13.5 64.5 t-9.5 62.5q-27 166 -53.5 312t-40.5 312v4q0 6 -1 10.5t-1 10.5q-10 86 -16.5 175t-10.5 179l-104 2q-20 0 -21 15zM209 879q0 -31 6 -62q8 -96 22.5 -189t32 -189.5t35 -197t35.5 -210.5l16 2l-59 350q-23 123 -41 247t-47 249zM217 1174q2 -43 6.5 -92.5t9.5 -92.5 q0 2 -1 9.5t-1 13.5q0 4 2 4q31 -168 56.5 -316.5t56.5 -314.5q-10 96 -26.5 187.5t-31 182.5t-24.5 182t-10 185q0 14 1 27.5t1 28.5zM305 1184q18 -104 24.5 -193.5t24.5 -187.5q-8 41 -9 83t-5 87q0 20 1 48t1 56q0 29 -8.5 54.5t-14.5 54.5q-4 -2 -14 -2zM371 547 q10 -72 20 -145.5t17 -145.5v-8q0 -20 5 -70.5t5 -97.5v-20.5t-2 -20.5l39 2q-10 25 -17.5 81t-13.5 114.5t-9 105.5t-3 55q0 2 -1 4t-1 7zM385 1196q8 -29 8 -57.5t4 -51.5q23 -186 42.5 -362t66.5 -358q2 -14 9 -58.5t22 -87.5q-35 166 -53.5 321.5t-34.5 323.5 q-14 78 -22.5 167t-10.5 169zM494 225q4 -25 7 -53.5t7 -54t7 -45t7 -25.5l-18 -2l24 2q-4 10 -12 63.5t-22 114.5z" />
<glyph unicode="x" horiz-adv-x="1126" d="M20 1229q0 18 19 17h4h47t80 1.5t94 2.5t93 3t75 4.5t39 4.5q16 0 23.5 -8.5t7.5 -16.5q0 -16 -17 -16l-26 -2q16 -49 33.5 -95.5t35.5 -87.5l95 -215q63 119 120.5 225.5t110.5 194.5q8 14 29 14q14 0 14 -14v-8q-55 -98 -117.5 -215t-132.5 -248q41 -96 85 -195.5 t90 -194.5t93.5 -181t94.5 -154l67 -4q23 -6 23 -23q0 -16 -17 -16l-442 2q-25 0 -25 19q0 14 19 18q12 -2 25.5 -2h27.5q-23 41 -41 81t-37 75l-125 270l-221 -426q-10 -18 -28 -19q-16 0 -17 17q0 6 2 10l242 467l-270 584l-56 100q-16 0 -35.5 1t-38 4t-31 9.5 t-12.5 16.5zM37 33q0 20 22 24q29 -4 86.5 -4t114.5 -2t100 -6t43 -14q0 -18 -21.5 -21.5t-51.5 -3.5q-57 0 -132 4t-141 8q-20 0 -20 15zM190 1196l33 -80q8 -10 13.5 -22.5t11.5 -24.5q-12 35 -22.5 64.5t-20.5 62.5q-2 -2 -8 -2q-4 0 -7 2zM250 1206q18 -20 36.5 -46.5 t30.5 -47.5l-20 90q0 6 2 6zM276 1102q43 -104 96.5 -209t108.5 -215q-25 63 -51 124t-49 124q-20 45 -48 89t-57 87zM377 1219q23 -27 46 -70t43.5 -87t35 -81t20.5 -49l78 -154q-29 57 -53.5 115.5t-46.5 114.5q-27 49 -45.5 92t-30.5 88q0 8 -2 12l-6 10q-6 0 -18.5 4.5 t-20.5 4.5zM412 1075l57 -137l10 -12q16 -51 41 -100.5t49 -100.5l9 12l-41 84q-33 66 -60.5 127.5t-64.5 126.5zM467 948h2v-2zM586 512q23 -49 57.5 -117.5t68 -137.5t59.5 -128t32 -90h33q-59 88 -108.5 188.5t-90.5 196.5q-14 20 -27.5 41.5t-23.5 48.5v-2zM592 672 q35 -80 77 -178.5t111 -212.5q2 -4 5 -9.5t12 -9.5l2 -14l28 -43q-53 106 -110.5 232t-114.5 249zM713 1237q0 8 7 16.5t17 10.5q20 -2 40 -3t40 -1q45 0 88 2t88 2q16 0 36 -1t20 -18q0 -10 -6.5 -17t-16.5 -7q-12 0 -24.5 1t-24.5 1q-43 0 -85 -3t-85 -3q-18 0 -38 1 t-38 3q-18 0 -18 16zM721 80l20 -41l11 -2zM883 96q4 -12 9 -25.5t5 -23.5v-4l8 -2q-2 12 -8 26.5t-14 28.5z" />
<glyph unicode="y" horiz-adv-x="1099" d="M20 1202q0 23 27 31q29 -2 58.5 -2h60.5q61 0 119.5 2t107.5 5t83 7t44 8h6q16 0 17 -14q0 -20 -23 -27l-76 -14q61 -143 130 -289.5t114 -265.5q14 57 42 134t60.5 157t64.5 155.5t54 131.5q8 12 25 12q14 0 14 -16v-7q-23 -57 -55.5 -135t-66 -161t-62.5 -163.5 t-39 -142.5l4 -12q0 -135 4 -268t4 -269l125 4q16 -6 17 -18q0 -20 -25 -27l-498 -18q-12 0 -18 7t-6 16q0 10 6 18t16 10l84 -4q0 133 -12 262t-12 260l-25 54q-29 61 -62.5 134.5t-72.5 149.5t-78 147.5t-76 127.5q-2 2 -2 4l-65 2q-12 2 -13 14zM154 1184l12 -15 q4 10 18 15h-30zM193 1184q4 -4 8 -4l24 -35q-2 6 -2 12q2 10 13 25zM262 1182q2 0 2 -1t2 -1q8 -57 30.5 -120t51.5 -125.5t61.5 -120.5t63.5 -109q-23 45 -48.5 98t-48 108.5t-42 109.5t-31.5 103v8.5t2 8.5l-16 30q-2 2 -2 9zM375 784q16 -35 33.5 -69.5t40.5 -69.5 q14 -27 32.5 -47t32.5 -47h2q2 0 2 1t2 1q-35 59 -72.5 115.5t-72.5 115.5zM395 1192q2 0 2 -6t10.5 -25.5t23.5 -44t27.5 -50.5t22.5 -46q16 -39 32.5 -84t34 -91t38 -90t43.5 -81q-20 49 -47 116.5t-57.5 138t-62.5 137.5t-61 118q-2 2 -2 10q-2 0 -2 -1t-2 -1zM440 879 q35 -74 74 -145.5t78 -141.5q10 -20 26.5 -43t26.5 -45q-8 47 -40 98t-52 90q-27 47 -53.5 96.5t-55.5 96.5zM471 481q2 -74 2 -147.5t4 -151.5q4 53 8 105.5t4 105.5q0 25 -4 48.5t-14 39.5zM535 51h26q0 8 1 35t1 63.5t1 79.5t1 84q0 61 -2 110.5t-8 59.5q-8 16 -10 25z M600 492q4 -23 5 -68t1 -98v-68l15 49q-8 47 -9.5 92.5t-11.5 92.5zM604 53l12 -2q0 16 1 33.5t4 36.5q-12 16 -15 43zM631 662l10 -17q-4 4 -5 10.5t-5 10.5v-4zM672 569l2 -2zM676 244q6 -41 10 -85t4 -102h2l-6 353q-4 -12 -8 -21q0 -10 1 -21.5t1 -23.5q0 -25 -1 -50.5 t-3 -49.5zM682 551l4 -19v15zM756 1217q0 10 7 18t19 12q25 -2 74 -2t97 -2t85 -6t37 -12q0 -10 -9.5 -18.5t-21.5 -8.5h-72.5t-96 1t-84 4t-35.5 14z" />
<glyph unicode="z" horiz-adv-x="858" d="M20 35q0 8 7.5 14t17.5 8h23q12 47 42.5 148.5t70.5 219.5t81 232.5t72 190.5q25 76 45 154.5t31 160.5l4 8q-14 2 -51 4.5t-84.5 3.5t-100.5 1t-98 2q2 -47 3 -95.5t1 -95.5q-2 -10 -10 -18t-19 -8q-8 0 -12 36.5t-5 87t-1 100.5v77q0 12 8 21t18 9q12 0 17 -16v-55h117 q74 0 140 1t133 2t135.5 4t146.5 7q16 -2 16 -14q0 -18 -25 -29q-4 2 -5 1t-5 1l-276 -864l-82 -268q80 4 157.5 8t157.5 4h72q-4 47 -6 96t-2 98q0 12 9 21.5t19 9.5q8 0 13.5 -42t9.5 -97t6 -110.5t2 -82.5q-2 -10 -9 -19t-18 -9q-8 0 -12 10t-5 24.5t-1 30v25.5h-51 q-63 0 -155.5 -3t-185.5 -6.5t-175 -6.5t-125 -3q-35 0 -45.5 5.5t-10.5 15.5zM123 51l29 2l2 6q47 152 82.5 303.5t78.5 303.5q-27 -72 -52.5 -145.5t-45.5 -149.5q-10 -35 -17 -77t-17.5 -85t-25 -84t-34.5 -74zM197 53l24 13l31 131q10 41 21.5 72.5t22.5 62t21.5 65.5 t18.5 82l2 2q0 2 -1 2t-1 2q-33 -94 -61.5 -187t-59.5 -189zM264 59l21 4l28 168l-37 -135zM356 219l15 45q23 70 44 144.5t50 146.5q35 111 63.5 213t57.5 195q-31 -92 -68 -189.5t-69.5 -194t-58 -188.5t-34.5 -172zM362 532q37 109 77 218.5t81 220.5q8 18 17.5 47 t20.5 59.5t23.5 60t24.5 54.5h-14q-8 -37 -32.5 -100.5t-52.5 -130t-50.5 -121t-28.5 -68.5q-23 -59 -36 -119.5t-30 -120.5zM373 707q23 55 47 111t49 114q29 61 44 125.5t46 124.5l-41 -2q4 -4 4 -15q-37 -117 -74.5 -230.5t-74.5 -227.5zM414 987l65 193l-30 -2 q2 -2 2 -13q0 -12 -5.5 -33.5t-11.5 -47l-12 -51t-8 -46.5zM621 1083q10 16 19 37t17 43l-2 29q-10 -25 -17 -53.5t-17 -55.5z" />
<glyph unicode="{" horiz-adv-x="739" d="M33 535q0 14 23.5 21t55 10t63.5 6t46 14h2q20 12 33.5 35.5t21 52t9.5 59.5t2 58q0 100 -13.5 175.5t-13.5 151.5q0 45 7 91t30 100q10 23 42 39t75 26t89 15.5t85 5.5v-2l76 8q16 -2 16 -17q0 -20 -16.5 -24t-41 -6t-54 -5t-54 -20.5t-41 -55.5t-16.5 -106 q0 -86 15 -182t15 -188q0 -74 -20 -135.5t-80 -96.5q39 -4 69.5 -27.5t51 -57.5t31 -70.5t10.5 -67.5q0 -59 -12.5 -128t-12.5 -128q0 -33 6.5 -61.5t22.5 -49t45 -33t74 -12.5h14q16 -2 17 -16q0 -16 -36 -26.5t-79 -16.5t-80 -8l-37 -2q-45 0 -72.5 17.5t-44 45 t-22.5 64.5t-6 75q0 59 7 118t7 98q0 33 -2 55t-7 41.5t-15.5 38t-28.5 45.5q-16 25 -58.5 33t-86.5 13t-77.5 9t-33.5 21zM279 588h32q10 10 12.5 43t2.5 53v27q-10 -76 -47 -123zM291 522q14 -10 19 -18t20 -23q0 20 16 27q-10 4 -22.5 6t-22.5 8q-4 0 -4 2zM297 1141 q0 -43 6 -92q0 80 10.5 151.5t46.5 114.5q-10 -4 -15 -11.5t-11 -11.5q-20 -29 -28.5 -67.5t-8.5 -83.5zM354 1184q10 29 24.5 56.5t37.5 55.5l6 9l4 4q-35 -14 -51.5 -42t-20.5 -83zM362 61q0 -29 5.5 -54t19.5 -46q-6 23 -8 50.5t-2 56.5q0 41 2 82.5t4 80.5 q-6 -45 -13.5 -88t-7.5 -82zM375 483q0 -6 2 -10v6q0 2 -1 2t-1 2zM377 1059q0 -84 16.5 -164t20.5 -150q0 16 2 33t2 33q0 90 -10.5 178t-12.5 176q0 12 9.5 20.5t19.5 8.5q2 16 4 33.5t8 36.5q-35 -47 -47 -99.5t-12 -105.5zM381 463q10 -25 21.5 -57.5t21.5 -63.5 q-4 31 -10 57.5t-17 51.5l-12 8q-2 0 -2 2t-2 2zM410 512l14 -27q49 -51 58.5 -134t9.5 -175q4 37 8 67.5t4 59.5q0 33 -2 55.5t-7.5 41t-15.5 37.5t-28 46q-16 23 -41 29zM420 23q0 -15 4 -35q-2 10 -2 19v22v22t2 27q-2 -14 -3 -27.5t-1 -27.5zM436 1311q8 0 15 -4 q2 12 8 26q4 4 4 6t4 7q-4 0 -6 -1.5t-6 -1.5v-4q0 -6 -7.5 -17t-11.5 -11zM467 -23q2 -39 10 -50t31 -11q-14 12 -23.5 28.5t-17.5 32.5zM522 -84h19l-6 6z" />
<glyph unicode="|" horiz-adv-x="409" d="M150 -397q2 475 7 941t7 939q4 8 10 14v21q0 12 8 21t19 9q14 0 16 -16q2 -477 14.5 -950t14.5 -951q-2 -10 -10.5 -18t-18.5 -8q-12 0 -14 12l-6 563q-2 -143 -3 -285.5t-1 -283.5q-2 -10 -11.5 -18.5t-17.5 -8.5q-14 0 -14 19z" />
<glyph unicode="}" horiz-adv-x="737" d="M27 1346q0 14 14 16l78 2v2q2 0 2 -1t2 -1q23 2 46.5 3t47.5 1q63 0 120.5 -12.5t74.5 -44.5q29 -59 38 -110.5t9 -104.5q0 -61 -7.5 -127t-7.5 -146q0 -25 3.5 -59.5t10.5 -67t22.5 -60.5t39.5 -40h2q18 -6 32.5 -9t33.5 -3q25 0 49.5 3t46.5 3q10 0 19.5 -7.5 t9.5 -17.5q0 -16 -34 -23t-78 -15.5t-86 -21.5t-56 -40q-29 -47 -37 -77t-8 -69q0 -18 4 -48.5t9 -67.5t9 -79t4 -85q0 -39 -7 -74t-25.5 -61.5t-51 -42t-84.5 -15.5q-25 0 -59.5 -1t-67 0t-55 7.5t-22.5 22.5q0 12 16 16l14 3q84 10 113 53t29 102q0 33 -6.5 69t-12.5 71.5 t-12 71.5t-6 67q0 37 10 73.5t30.5 69.5t48 56.5t62.5 31.5q-68 31 -90 99.5t-22 154.5q0 76 8 156t8 151q0 74 -18.5 133.5t-77.5 71.5q-29 -2 -52.5 -3t-43.5 -1q-16 0 -27.5 4t-11.5 21zM231 -106q20 2 35 3t23 6t11 18t3 42q-2 -6 -6 -17.5t-10 -22.5t-13.5 -20 t-15.5 -9t-20 8zM244 1329q2 -2 6 -10q8 -12 10 -27q6 6 14 6q-4 0 -12 8.5t-8 16.5q0 2 1 3t1 3h-8h-4zM252 317q0 -29 5 -74.5t15 -103.5q-2 35 -4 71t-2 71q0 57 11.5 107t48.5 85l10 31q-29 -15 -37 -35q-31 -47 -39 -77t-8 -75zM276 1251q8 -18 10.5 -35.5t4.5 -33.5h4 q10 0 18.5 -7.5t8.5 -17.5v-51q0 -66 -4.5 -129.5t-4.5 -128.5q0 -29 4.5 -55.5t4.5 -55.5q0 66 11 139.5t11 149.5q0 59 -13.5 116.5t-54.5 108.5zM285 1296l2 -4l2 2l8 -6q45 -55 65 -106q-6 51 -23 77.5t-54 36.5zM330 330q10 33 20 67.5t19 57.5q-2 0 -2 -1t-5 -1 l-10 -11q-10 -25 -14 -52.5t-8 -59.5zM340 104q2 -10 2 -19v-19v19t-2 19zM342 66q2 -18 3 -35t1 -33v-21v25q0 16 -1 31.5t-3 32.5zM348 1309q39 -35 53.5 -107t16.5 -151q2 16 2 34.5v34.5q0 53 -9 97t-34 75q-6 4 -12.5 9.5t-16.5 7.5zM371 469q2 2 2 10q0 -2 -1 -2 t-1 -4v-4zM375 223q4 -47 10 -98t6 -98q0 -39 -6 -70q18 33 18 84q0 41 -9 88t-19 94zM399 506q18 -10 19 -25q6 4 14 20.5t23 24.5h-4q-1 -2 -7 -2q-10 -8 -22 -10t-23 -8zM414 692q0 -23 3 -56.5t15 -45.5l33 2q-45 49 -51 119v-19z" />
<glyph unicode="~" horiz-adv-x="569" d="M27 469q2 25 13 57.5t30.5 62t46 49t57.5 19.5q45 0 67.5 -29.5t39 -64.5t35 -64.5t55.5 -29.5q39 0 61.5 34t35.5 74.5t23.5 74.5t26.5 34q12 0 17 -16q0 -25 -12.5 -67t-33 -84t-49 -71.5t-63.5 -29.5h-8h-9q-41 0 -67.5 29.5t-47 66.5t-40 66.5t-45.5 29.5 q-12 0 -28.5 -14t-30 -34.5t-22.5 -43.5t-9 -41q-2 -10 -11.5 -18t-17.5 -8q-14 0 -14 18z" />
<glyph unicode="&#xa1;" horiz-adv-x="432" d="M20 -12q0 23 23 26.5t39 3.5q0 117 -2 223.5t-4 212t-4 213t-2 222.5q12 27 36 26q20 0 31 -22v2q4 0 20.5 4t35 8t37 7.5t28.5 3.5h6h6q10 0 18.5 -7.5t8.5 -17.5q0 -16 -23 -19q8 -213 29 -424.5t31 -422.5q20 0 49 -1t29 -18q0 -12 -18.5 -19t-62.5 -10.5t-116 -4.5 t-178 -1q-16 0 -17 15zM55 1096q0 18 8.5 39.5t24.5 41t41 33t59 13.5q51 0 81 -40t30 -87t-31.5 -83t-103.5 -40q-12 2 -17 8l-8 18q-4 -2 -8 -2q-16 0 -29.5 10.5t-23.5 26t-16.5 31.5t-6.5 31zM113 1145q23 -12 23.5 -37t4.5 -53q2 6 2 20q0 20 -6 44t-10 44zM125 82 q2 16 5 28.5t3 22.5v10l-8 105v-166zM137 842q14 0 17 -15l8 -88l6 97q2 10 9 17t18 7q16 0 25 -29.5t16 -68.5l-5 106q-23 -2 -46 -7t-48 -7v-12zM182 1040q2 0 5 1t8 1l-7 27q0 -8 -2 -15.5t-4 -13.5zM184 29q18 0 19 4q0 23 -4 59.5t-9 67.5q0 -68 -6 -131zM190 1169 q18 -20 29.5 -48.5t18.5 -57.5q2 2 8 2q4 0 6 -2q4 12 4 22q0 27 -16.5 50.5t-49.5 33.5zM195 471q2 -16 5 -34.5t7 -37.5q-4 59 -7 117t-3 115q-2 -41 -2 -80v-80zM262 45q0 -6 5.5 -10t21.5 -6q-4 100 -11.5 197.5t-15.5 197.5q2 -59 2 -114.5v-102.5q0 -55 -1 -97t-1 -65 z" />
<glyph unicode="&#xa2;" horiz-adv-x="815" d="M39 549q0 152 93 260.5t257 148.5q0 23 -1 43.5t-1 42.5q0 43 1 86.5t1 88.5q0 12 9.5 20t19.5 8q12 0 14 -14q0 -45 -1 -90t-1 -92q0 -23 1 -44.5t1 -43.5h25q12 0 32.5 -2.5t41 -8.5t36 -14t15.5 -20q0 -27 -27 -27q-16 0 -42 13.5t-58 13.5h-23q0 -133 3 -265.5 t5 -267.5q63 -39 125 -39q45 0 90 18.5t93 53.5q8 6 16 6q12 0 12 -14q0 -16 -14 -27q-74 -61 -155 -107.5t-167 -68.5q2 -72 2 -145.5v-145.5q-2 -10 -11 -18.5t-17 -8.5t-11.5 38t-4.5 89.5t-1 102.5v78q-37 -6 -71 -7q-59 0 -110.5 25t-91.5 71t-62.5 112.5t-22.5 150.5z M109 449q10 -35 27.5 -69t43 -61.5t57 -45t70.5 -17.5q-66 31 -117 82t-81 111zM111 614q0 -59 23.5 -113.5t63.5 -99.5t91 -78t108 -49q-111 39 -171 114t-74 173q-10 27 -17.5 57.5t-7.5 63.5q0 35 21.5 59.5t27.5 57.5q-25 -29 -41 -73t-22 -79q8 -2 8 -14q0 -2 -3 -10.5 t-7 -8.5zM186 655q0 -45 9 -77q-2 16 -2 30.5v30.5v45t2 45q-4 -16 -6.5 -35.5t-2.5 -38.5zM240 778q8 29 19 56.5t30 50.5l-23 -8q0 -23 -13 -40.5t-13 -58.5zM270 700q0 -78 32 -155.5t83 -118.5q2 -4 5 -5t7 -5q-2 125 -5 247.5t-3 247.5q-4 -14 -14 -18q-55 -27 -80 -79 t-25 -114zM369 381q2 -4 2 -10q6 -8 26 -17v6zM440 248q8 2 28.5 8t20.5 10q0 2 -12 6q-16 -8 -37 -8v-16zM549 305l12 -6l8 6h-20z" />
<glyph unicode="&#xa3;" horiz-adv-x="948" d="M41 127q0 49 25.5 77.5t64.5 43t85 18.5t87 4l-14 101q-6 66 -13.5 120t-13.5 110t-9 118.5t-3 146.5q0 59 11 121.5t46 99.5q55 57 121 86t131 29q55 0 107.5 -21.5t93.5 -62.5t67.5 -104.5t30.5 -145.5q-8 -23 -31 -22q-12 0 -14 12q0 55 -19.5 107.5t-50 92.5 t-67.5 63.5t-72 23.5q-37 0 -62.5 -27.5t-40 -74t-20.5 -109t-6 -129.5q0 -135 14.5 -284.5t24.5 -280.5q49 -10 91 -26.5t85 -33t91 -29t110 -14.5q23 -4 22 -20q0 -10 -12 -17.5t-35 -7.5q-33 0 -81 12.5t-98 29t-95 32.5t-72 24q0 -10 1 -15t1 -9q0 -43 -21.5 -74 t-56 -51.5t-81 -30.5t-97.5 -10q-43 0 -84 8t-71.5 23.5t-50 40t-19.5 55.5zM92 129q0 -23 33 -38t80 -15q35 0 65.5 15t36.5 50q0 4 1 9.5t1 11.5q0 27 -2 43t-49 16q-29 0 -58.5 -4t-53 -15.5t-39 -28.5t-15.5 -44zM137 551q0 8 8.5 17.5t18.5 11.5q51 2 123.5 9t149.5 16 t154 18.5t138 17.5h6q14 0 24.5 -6t10.5 -17q0 -12 -62.5 -25t-154.5 -24.5t-199.5 -19.5t-197.5 -12q-18 0 -19 14zM307 813q0 -129 15.5 -274.5t25.5 -274.5l6 -45v19q2 16 2 32.5v32.5q0 57 -5 123t-12 134.5t-12 138t-5 135.5q0 76 10 142t39 116q8 16 21.5 22t29.5 16 q-29 -10 -48.5 -23.5t-27.5 -33.5q-23 -49 -31 -115.5t-8 -144.5zM342 104q10 0 10 23q-4 -6 -5 -12t-5 -11zM399 195q0 10 1 19t1 19t-1 20.5t-1 20.5v-79zM403 823q0 -63 4.5 -128.5t10.5 -127t12 -113t8 -85.5l4 -23q2 -35 8.5 -69.5t6.5 -69.5q0 -31 -8.5 -62.5 t-30.5 -66.5q49 16 55 63v25l-4 104l-14 101q-10 92 -21.5 177t-11.5 177q0 29 2 84t9 113.5t19.5 108.5t32.5 71q-23 -4 -39 -29.5t-25 -65.5t-13.5 -88.5t-4.5 -95.5zM449 1139q4 -4 4 -11l41 17q-12 -2 -23.5 -2t-21.5 -4z" />
<glyph unicode="&#xa4;" horiz-adv-x="919" d="M43 1057q0 12 8 21t19 9q4 0 12 -4q43 -59 86 -114.5t90 -112.5l-27 -43q-47 59 -93 118.5t-93 119.5q0 2 -1 3t-1 3zM88 517v34q0 88 26.5 161.5t74 127t110.5 83t137 29.5q59 0 124 -21.5t130 -68.5q94 -59 133 -134t39 -153q0 -72 -29.5 -139t-75.5 -120.5t-103.5 -87 t-114.5 -35.5q-43 -23 -99 -23q-59 0 -117.5 24.5t-107.5 67.5t-83 100.5t-40 120.5q-4 16 -4 34zM92 35q0 2 4 10q41 59 84 120.5t86 127.5l53 -8q-18 -27 -46.5 -72t-58.5 -89t-56.5 -76t-38.5 -32q-27 0 -27 19zM162 582q0 -92 35 -174q-33 78 -33 163q0 137 84 246 q-45 -45 -65.5 -107.5t-20.5 -127.5zM209 580q0 -41 10 -88q0 55 8.5 112.5t26.5 108.5t48 90t73 55q2 0 4 1t4 1q14 0 14 -16t-12 -28.5t-23 -27.5q-16 -31 -29.5 -100.5t-13.5 -150.5q0 -90 20.5 -176.5t74.5 -129.5q8 4 12 5q10 -2 19.5 -4.5t17.5 -8.5q4 0 7 1t7 1 q-20 16 -38.5 31.5t-28.5 40.5q-31 63 -53.5 144t-22.5 165q0 35 7 77t23.5 81t42 70.5t64.5 44.5q-8 2 -16.5 2h-18.5q-14 0 -29.5 -1t-31.5 -3q-14 -2 -28.5 -6.5t-27.5 -8.5v-8q0 -10 -4 -16q-53 -53 -79.5 -120t-26.5 -138zM262 471q0 -41 5 -64.5t13.5 -42t15.5 -35 t11 -40.5q0 -14 -4 -23q16 -8 27 -10l16 -10q-45 78 -60.5 157.5t-15.5 147.5q0 80 21 149q-16 -53 -22.5 -115.5t-6.5 -113.5zM377 596q0 -59 12 -116.5t33.5 -104.5t53.5 -83t73 -52q121 41 190.5 131t69.5 192q0 68 -36 133.5t-114 118.5q-2 0 -1 5t-1 5 q-29 14 -56.5 19.5t-53.5 13.5q-20 -6 -41 -10t-39 -19q-47 -35 -68.5 -97t-21.5 -136zM631 862l166 254q10 10 22 10q10 0 18.5 -6t8.5 -16q0 -4 -4 -12q-41 -59 -82 -125t-84 -131zM684 281l37 30l127 -131q4 -8 4 -12q0 -10 -8 -17.5t-19 -7.5q-8 0 -27.5 16.5t-41 39 t-41 45t-31.5 37.5z" />
<glyph unicode="&#xa5;" horiz-adv-x="1157" d="M31 1192q0 14 14 18l494 -14q16 -4 16 -14t-9 -18.5t-22 -8.5h-20q23 -47 58.5 -122t72.5 -147.5t68.5 -130t44.5 -69.5l188 488q-41 0 -81 -2.5t-75 -16.5q-4 -2 -12 -2q-12 0 -12 12q0 18 24.5 28.5t65.5 15.5t94 7.5t111 2.5q33 0 52 -1t19 -18q0 -12 -11 -18 t-26.5 -9.5t-34 -3.5h-30.5q-10 0 -20.5 1t-20.5 1l-207 -593l14 -531q59 0 118 2t118 2q16 -6 16 -16q0 -20 -17 -24.5t-58 -4.5q-23 0 -52.5 1t-66.5 1q-82 0 -199 -2t-274 -10q-20 0 -21 14q0 10 8.5 18.5t18.5 10.5q35 0 68.5 -1t68.5 -1l-37 545q-14 18 -36.5 61 t-50.5 98.5t-58.5 117t-62 117.5t-59.5 103t-50 74l-10 4q-12 2 -13 12l-92 2q-14 6 -14 21zM229 373q0 8 8.5 17t18.5 11q35 2 93.5 6.5t129 9.5t147 10t149.5 11t135.5 12.5t103.5 12.5h6q14 0 24.5 -6t10.5 -17q0 -10 -42 -19t-110.5 -17.5t-156 -15.5t-177.5 -12 t-174 -10.5t-147 -7.5q-18 0 -19 15zM229 553q0 8 8.5 17.5t18.5 11.5q35 2 93.5 6t129 9t147 10t149.5 11.5t135.5 12.5t103.5 12h6q14 0 24.5 -6t10.5 -16t-42 -19.5t-110.5 -18t-156 -15.5t-177.5 -12t-174 -10t-147 -7q-18 0 -19 14zM301 1143q18 -14 48 -71.5 t66 -130.5t73.5 -143.5t70.5 -113.5q-4 6 -20.5 41t-38 85t-46 106.5t-47 103.5t-40 78.5t-21.5 31.5q-6 6 -20 7h-9q-8 0 -16 6zM305 1032q27 -35 43 -83t45 -87q-25 41 -42 89t-46 81zM477 1096q57 -129 95 -213t65 -138.5t43.5 -86t30.5 -56.5l2 -2q4 0 4 15.5v29.5 q-6 10 -30.5 54t-58.5 107.5t-73 140.5t-78 151v-2zM549 553q8 -82 12 -160t6 -164q0 92 1 143.5t3 79t3 41t1 29.5zM596 39l25 2q-2 12 -3.5 45t-2.5 72t-2 77t-3 56q-2 -16 -3 -51t-3 -74t-4 -75t-4 -52zM674 57l28 9q-4 4 -6 37.5t-4 83t-3 106.5t-1 107.5t-1 88t-3 46.5 v-27q0 -35 -2 -103.5t-3 -138t-3 -126t-2 -68.5v-15z" />
<glyph unicode="&#xa6;" horiz-adv-x="409" d="M150 -397q0 109 1 211t2 201.5t3 201.5t4 211q16 16 30 16q16 0 39 -16q2 -104 4.5 -201.5t5.5 -195t5 -195.5t2 -205q-2 -10 -10.5 -18t-18.5 -8q-12 0 -14 12l-6 563q-2 -143 -3 -285.5t-1 -283.5q-2 -10 -11.5 -18.5t-17.5 -8.5q-14 1 -14 19zM160 610l4 873 q4 8 10 14v21q0 12 8 21t19 9q14 0 16 -16q0 -229 2 -454.5t6 -454.5q-10 -8 -22.5 -13.5t-22.5 -5.5q-12 0 -20 6z" />
<glyph unicode="&#xa7;" horiz-adv-x="774" d="M33 449q0 57 23.5 101t61.5 76.5t87 55.5t102 35l35 -33l-27 -8q-4 -20 -12 -30.5t-8 -33.5q0 -55 27.5 -96t62.5 -74l43 -32q41 -29 86 -54.5t86 -52.5t74 -57.5t51 -69.5l4 -14q2 -10 2 -27q0 -43 -22.5 -68.5t-59.5 -40t-84 -19.5t-98 -5q-47 0 -120 4t-141.5 14.5 t-117.5 28t-49 43.5q0 10 7 18.5t17 8.5q6 0 15 -4q12 -16 45 -27.5t77 -20t93 -12.5t96 -4l82 4q-6 20 -14 41t-25 37l-43 41q-49 35 -110.5 59.5t-117 52t-92 64.5t-36.5 99zM33 899q0 88 54 145.5t131 91t161 46t141 12.5q14 0 34.5 -5t38 -13.5t30 -20.5t12.5 -27 q0 -4 -8.5 -23.5t-28.5 -19.5q-16 0 -16 17q0 2 4 10q-14 43 -92 43q-39 0 -76 -6t-103 -23q-4 -23 -12 -33t-8 -32q2 -53 26.5 -95t63.5 -73l43 -35q41 -29 86 -53.5t86 -52t74 -58t51 -69.5l4 -15q2 -10 2 -26q0 -41 -22.5 -66.5t-59.5 -40t-84 -19.5t-98 -5q-37 0 -74 1 t-67 5l-23 51q20 -2 42 -4t44 -6l82 6q-10 47 -39 76l-43 41q-49 37 -110.5 61.5t-117 52t-92 64.5t-36.5 98zM68 479q0 -33 19 -66.5t40 -52.5q-43 49 -57 123q12 18 20 35q8 14 14.5 27.5t8.5 19.5q-20 -18 -32.5 -40.5t-12.5 -45.5zM68 928q0 -33 19 -65t40 -52 q-41 45 -57 123q12 18 20 35q8 14 14.5 27.5t8.5 19.5q-20 -20 -32.5 -43t-12.5 -45zM131 504q0 -23 25.5 -48.5t63.5 -53t83 -54t84 -51.5v29q-41 18 -81 37.5t-73.5 43t-58.5 53t-33 68.5q-2 6 -2 13q-4 -10 -6 -19.5t-2 -17.5zM131 952q0 -20 24.5 -44.5t63.5 -52.5 t83 -56.5t85 -53.5v29q-41 18 -81 39t-73.5 44.5t-58.5 53t-33 68.5q-2 6 -2 12q-4 -10 -6 -19t-2 -20zM180 561q0 -6 2 -8q27 -66 83.5 -105.5t119.5 -70.5l-31 22q-43 31 -71.5 48.5t-45 29.5t-21.5 23.5t-5 29.5q0 16 3 41t7 66q-2 0 -9 -10.5t-14.5 -23.5t-12.5 -25.5 t-5 -16.5zM180 1012q0 -6 2 -8q27 -66 83.5 -106t119.5 -71l-31 23q-43 31 -71.5 48t-45 29.5t-21.5 24t-5 29.5q0 16 3 40.5t7 65.5q-2 0 -9 -10t-14.5 -23.5t-12.5 -25.5t-5 -16zM246 563q0 -18 10 -32.5t29 -30.5q-10 16 -18.5 33.5t-14.5 35.5l-4 11q0 -4 -1 -8.5 t-1 -8.5zM246 1014q0 -18 10 -32.5t29 -31.5q-10 16 -18.5 32.5t-14.5 37.5l-4 10q0 -4 -1 -8t-1 -8zM262 657q0 -6 2 -10l6 12q-4 -2 -8 -2zM262 1106q0 -4 2 -8l6 12q-4 -4 -8 -4zM430 266q47 -29 86 -58.5t64 -57.5q0 8 -2.5 15t-4.5 15q-16 41 -55 70t-88 53v-37z M430 717q47 -29 86 -58.5t64 -58.5q0 6 -2.5 14.5t-4.5 16.5q-16 41 -55 68.5t-88 54.5v-37zM432 195q35 -29 60.5 -61t25.5 -60v-8l17 6l20 12q-2 -4 -2 -10q0 -14 16 -15q-16 41 -53 78t-84 70v-12zM432 645q35 -29 60.5 -61.5t25.5 -61.5v-8l17 8l20 13q-2 -4 -2 -11 q0 -14 16 -14q-16 41 -53 78t-84 69v-12zM631 188q10 -18 16 -38.5t12 -43.5q8 10 13.5 17.5t9.5 17.5zM631 637q10 -16 16 -36.5t12 -45.5q16 20 23 37z" />
<glyph unicode="&#xa8;" horiz-adv-x="489" d="M41 1511q0 35 27.5 65t62.5 30q23 0 49.5 -16.5t26.5 -51.5t-30 -69.5t-64 -34.5q-15 0 -31 10q-41 27 -41 67zM92 1507q6 -25 31 -24q10 0 16 4q-37 2 -47 20zM125 1544q0 -14 35 -14l-6 14q-16 4 -21 4q-8 0 -8 -4zM276 1532q0 31 25.5 57.5t54.5 38.5h4 q35 0 57.5 -24.5t22.5 -40.5q0 -35 -32.5 -65t-67.5 -30t-49.5 25t-14.5 39zM319 1532q13 -16 29 -16q-10 4 -16 8t-13 8zM358 1563q8 -6 16.5 -8.5t18.5 -4.5q-4 20 -16 21q-9 0 -19 -8z" />
<glyph unicode="&#xad;" d="M29 551q0 10 8 20.5t18 14.5q25 2 89.5 7t140 9t149.5 8t117 6q16 -2 16 -16q0 -16 -34.5 -26.5t-88 -17.5t-116 -11t-116.5 -6t-92 -3t-42 -1h-31q-18 0 -18 16z" />
<glyph unicode="&#xaf;" horiz-adv-x="589" d="M25 1452q0 10 8 21.5t18 13.5q23 4 87.5 8t141 9t150.5 8.5t117 5.5q16 -4 16 -15q0 -16 -35.5 -26.5t-89 -18.5t-116 -12t-117.5 -6t-94 -3t-43 -1h-25q-18 0 -18 16z" />
<glyph unicode="&#xb4;" horiz-adv-x="425" d="M35 1395q0 6 26.5 42t64.5 84t81 100t74 89q8 6 18 6q14 0 31.5 -12t31 -27.5t22.5 -33t9 -25.5q0 -6 -8 -14q-61 -57 -121.5 -101.5t-106.5 -73t-74 -44t-24 -15.5q-10 0 -17 7t-7 18zM223 1536q64 39 121 90q-2 0 -5 3l-5 5q-31 -20 -57.5 -45.5t-53.5 -52.5z" />
<glyph unicode="&#xb7;" horiz-adv-x="247" d="M41 618q0 35 27.5 65t62.5 30q23 0 49.5 -16.5t26.5 -51.5t-30 -69.5t-64 -34.5q-15 0 -31 10q-41 27 -41 67zM92 614q6 -25 31 -24q4 0 16 4q-37 2 -47 20zM125 651q0 -4 8.5 -8t26.5 -6l-6 14q-16 4 -21 4q-8 0 -8 -4z" />
<glyph unicode="&#xb8;" horiz-adv-x="325" d="M18 -319q0 10 9.5 18t21.5 8q8 0 16.5 -2t16.5 -2q43 0 65.5 33t22.5 67q0 18 -7.5 34t-21.5 22q-59 23 -72.5 54.5t-13.5 84.5v43t15 27q14 0 20 -21.5t13.5 -49.5t22.5 -51.5t50 -27.5q14 -2 35.5 -3t41 -8t33 -22.5t13.5 -46.5q-4 -41 -22.5 -73.5t-48 -56t-66.5 -37 t-76 -13.5q-16 0 -42 3t-26 20zM195 -266q25 14 38 37.5t13 50.5v14z" />
<glyph unicode="&#xbf;" horiz-adv-x="802" d="M33 299q0 59 28.5 105.5t71.5 84t93 68.5t94.5 61.5t75 64.5t32.5 75q0 18 -8 32.5t-12 30.5l-25 -6q-18 2 -18 14t19 22.5t46 18t56.5 10.5t48.5 3h25t28.5 -2t24 -7.5t10.5 -13.5t-6.5 -15t-14.5 -7q29 -63 29 -121q0 -61 -30 -110.5t-73 -91.5t-95 -78t-97 -71.5 t-77 -73.5t-34 -83v-16q0 -47 14.5 -78t32.5 -56q0 -8 16.5 -13t40 -8t47 -5t40.5 -2q45 0 95 5t94 12t81 16.5t57 15.5h7q20 0 20 -17q0 -14 -35 -27t-86 -23.5t-109.5 -16.5t-105.5 -6q-74 0 -145.5 15t-129 51t-92 95.5t-34.5 147.5zM78 285q0 -43 19.5 -81t52.5 -71 q-16 35 -33 81t-17 85q0 35 11.5 67.5t29.5 63.5q-10 -10 -17.5 -22.5t-17.5 -24.5q-29 -49 -28 -98zM164 385q31 45 58.5 66.5t55 39t58.5 38t67 63.5q14 12 19.5 28.5t9.5 34.5q-27 -41 -67.5 -70.5t-81.5 -58t-75 -61.5t-44 -80zM174 289q10 43 39.5 87t60.5 75 q-45 -33 -70.5 -72t-29.5 -90zM188 100l19 -12l-2 4l-8 8l-2 -2l-2 2h-5zM248 346q53 55 109.5 91t102.5 72t74.5 82t28.5 120q0 4 -1 7t-1 7q0 -29 -9 -63.5t-28 -57.5q0 -6 -1 -9t-1 -5q-4 -10 -12 -16.5t-18 -6.5q-35 -31 -67 -52t-60.5 -43.5t-57 -51.5t-59.5 -74z M313 1047q0 29 12.5 57.5t34 51t50 36.5t59.5 14t66 -18q25 -10 35 -26.5t10 -39.5q0 -29 -16.5 -62.5t-41 -61t-53.5 -46t-53 -18.5q-29 0 -48.5 12t-31.5 30.5t-17.5 38t-5.5 32.5zM377 1085q4 -10 14.5 -20t20.5 -14q-6 10 -14.5 19t-20.5 15zM395 1004l2 2h-2v-2z M395 1126q23 -10 45.5 -33.5t22.5 -50.5v-6q-4 -4 -6 -8t-6 -8q20 0 23 20.5t3 36.5q0 41 -16.5 49.5t-36.5 8.5q-16 0 -29 -9zM418 981l4 -2q4 0 5 1t3 1h-12zM453 592l30 31v22v30.5t-2 24.5q-4 -23 -10 -54.5t-18 -53.5zM485 813q10 -18 19.5 -35.5t15.5 -40.5v19 q0 20 -7 40.5t-24 43.5zM549 848h2h-2z" />
<glyph unicode="&#xc0;" horiz-adv-x="1097" d="M14 37q0 27 28 34t54 7q20 0 40 -2t40 -6l10 55q11 55 27 145t36.5 205t43 238t46.5 241.5t44 216.5q-10 0 -27.5 3.5t-17.5 13.5q0 12 45 23.5t102.5 20.5t112.5 14t76 7q16 -2 16 -14q0 -14 -14 -25q20 -115 48 -258t59.5 -296.5t63.5 -307t58 -289.5q37 2 76 3.5 t78 1.5q16 -4 16 -15q0 -10 -9 -19t-22 -9q-29 0 -51 -3.5t-45.5 -6.5t-51.5 -5t-65 -2h-32.5t-46 2t-42 6t-18.5 13q0 8 8.5 17t18.5 11q12 0 24.5 -1t24.5 -1q6 0 12 1t13 1q-12 35 -25.5 90.5t-26 120t-20.5 131t-10 123.5h-11q-12 -4 -26.5 -6t-28.5 -2l-125 -16 q-29 -119 -50 -227.5t-38 -213.5q0 -25 -6 -35t-57 -10q-8 0 -64.5 2t-121 5.5t-117 7.5t-52.5 10zM340 713l104 452q-6 -2 -10 -4t-6 -14zM344 332l152 663q-16 -45 -37 -93t-41 -99q-16 -92 -34 -187.5t-30 -183.5q-2 -4 -3 -18.5t-7 -81.5zM371 63q8 49 21.5 121 t25.5 138.5t20 114.5t11 55q-6 0 -12.5 -1.5t-12.5 -1.5q-12 -78 -31.5 -187.5t-21.5 -238.5zM373 1626q0 8 9 25.5t23.5 33t31 27.5t30.5 12q6 0 28.5 -21.5t52.5 -54t62.5 -71.5t60 -75t45 -63.5t17.5 -35.5q0 -10 -8 -17.5t-20 -7.5q-6 0 -9 2q-8 4 -39.5 24.5 t-76.5 51.5t-97.5 71t-101.5 85q-8 8 -8 14zM422 1634q57 -51 121 -90q-25 27 -52.5 52.5t-58.5 45.5l-5 -5t-5 -3zM438 551l13 8h12q23 125 52.5 254t39.5 262q-37 -129 -65.5 -270t-51.5 -254zM479 1114q11 32 25 57q-25 -6 -25 -20v-37zM535 559q41 2 76.5 0t64.5 2l31 4 q-4 33 -12.5 84t-18.5 108.5t-19.5 115t-11.5 102.5q-20 -78 -41.5 -156t-42.5 -155zM539 721q23 96 47 189.5t45 189.5q-2 8 -2 16v17zM545 1163l6 17zM606 1192l4 -25q10 0 15 -2q-2 6 -2 14.5v16.5zM770 412q6 -66 13 -139.5t30 -139.5q-4 70 -15.5 140.5t-27.5 142.5v-4 zM852 59h10q0 23 -2 46.5t-6 46.5v-46.5t-2 -46.5z" />
<glyph unicode="&#xc1;" horiz-adv-x="1097" d="M14 37q0 27 28 34t54 7q20 0 40 -2t40 -6l10 55q11 55 27 145t36.5 205t43 238t46.5 241.5t44 216.5q-10 0 -27.5 3.5t-17.5 13.5q0 12 45 23.5t102.5 20.5t112.5 14t76 7q16 -2 16 -14q0 -14 -14 -25q20 -115 48 -258t59.5 -296.5t63.5 -307t58 -289.5q37 2 76 3.5 t78 1.5q16 -4 16 -15q0 -10 -9 -19t-22 -9q-29 0 -51 -3.5t-45.5 -6.5t-51.5 -5t-65 -2h-32.5t-46 2t-42 6t-18.5 13q0 8 8.5 17t18.5 11q12 0 24.5 -1t24.5 -1q6 0 12 1t13 1q-12 35 -25.5 90.5t-26 120t-20.5 131t-10 123.5h-11q-12 -4 -26.5 -6t-28.5 -2l-125 -16 q-29 -119 -50 -227.5t-38 -213.5q0 -25 -6 -35t-57 -10q-8 0 -64.5 2t-121 5.5t-117 7.5t-52.5 10zM340 713l104 452q-6 -2 -10 -4t-6 -14zM344 332l152 663q-16 -45 -37 -93t-41 -99q-16 -92 -34 -187.5t-30 -183.5q-2 -4 -3 -18.5t-7 -81.5zM363 1403q0 6 26.5 42t64.5 84 t81 100t74 89q8 6 18 6q14 0 31.5 -12t31 -27.5t22.5 -33t9 -25.5q0 -6 -8 -14q-61 -57 -121.5 -101.5t-106.5 -73t-74 -44t-24 -15.5q-10 0 -17 7t-7 18zM371 63q8 49 21.5 121t25.5 138.5t20 114.5t11 55q-6 0 -12.5 -1.5t-12.5 -1.5q-12 -78 -31.5 -187.5t-21.5 -238.5z M438 551l13 8h12q23 125 52.5 254t39.5 262q-37 -129 -65.5 -270t-51.5 -254zM479 1114q11 32 25 57q-25 -6 -25 -20v-37zM535 559q41 2 76.5 0t64.5 2l31 4q-4 33 -12.5 84t-18.5 108.5t-19.5 115t-11.5 102.5q-20 -78 -41.5 -156t-42.5 -155zM539 721q23 96 47 189.5 t45 189.5q-2 8 -2 16v17zM545 1163l6 17zM551 1544q64 39 121 90q-2 0 -5 3l-5 5q-31 -20 -57.5 -45.5t-53.5 -52.5zM606 1192l4 -25q10 0 15 -2q-2 6 -2 14.5v16.5zM770 412q6 -66 13 -139.5t30 -139.5q-4 70 -15.5 140.5t-27.5 142.5v-4zM852 59h10q0 23 -2 46.5t-6 46.5 v-46.5t-2 -46.5z" />
<glyph unicode="&#xc2;" horiz-adv-x="1097" d="M14 37q0 27 28 34t54 7q20 0 40 -2t40 -6l10 55q11 55 27 145t36.5 205t43 238t46.5 241.5t44 216.5q-10 0 -27.5 3.5t-17.5 13.5q0 12 45 23.5t102.5 20.5t112.5 14t76 7q16 -2 16 -14q0 -14 -14 -25q20 -115 48 -258t59.5 -296.5t63.5 -307t58 -289.5q37 2 76 3.5 t78 1.5q16 -4 16 -15q0 -10 -9 -19t-22 -9q-29 0 -51 -3.5t-45.5 -6.5t-51.5 -5t-65 -2h-32.5t-46 2t-42 6t-18.5 13q0 8 8.5 17t18.5 11q12 0 24.5 -1t24.5 -1q6 0 12 1t13 1q-12 35 -25.5 90.5t-26 120t-20.5 131t-10 123.5h-11q-12 -4 -26.5 -6t-28.5 -2l-125 -16 q-29 -119 -50 -227.5t-38 -213.5q0 -25 -6 -35t-57 -10q-8 0 -64.5 2t-121 5.5t-117 7.5t-52.5 10zM338 1425q0 6 6 18.5t10 20.5q23 23 41 44.5t36.5 47t39 56t47.5 69.5q0 -2 9 9.5t20 11.5q2 0 18 -20.5t42 -54.5t59.5 -77t72.5 -88q10 -10 10 -18q0 -23 -26 -23 q-8 0 -26.5 12.5t-42 31t-49.5 36.5t-46 31q-10 -2 -34.5 -17.5t-54.5 -36t-61 -40t-51 -27.5q-20 0 -20 14zM340 713l104 452q-6 -2 -10 -4t-6 -14zM344 332l152 663q-16 -45 -37 -93t-41 -99q-16 -92 -34 -187.5t-30 -183.5q-2 -4 -3 -18.5t-7 -81.5zM371 63 q8 49 21.5 121t25.5 138.5t20 114.5t11 55q-6 0 -12.5 -1.5t-12.5 -1.5q-12 -78 -31.5 -187.5t-21.5 -238.5zM438 551l13 8h12q23 125 52.5 254t39.5 262q-37 -129 -65.5 -270t-51.5 -254zM440 1499q12 14 25.5 25.5t25.5 21.5l-6 2q-23 -18 -37 -37zM479 1114q11 32 25 57 q-25 -6 -25 -20v-37zM524 1620l16 8q-4 4 -4 8zM535 559q41 2 76.5 0t64.5 2l31 4q-4 33 -12.5 84t-18.5 108.5t-19.5 115t-11.5 102.5q-20 -78 -41.5 -156t-42.5 -155zM536 1581q27 -6 47 -19l-26 37q-2 -6 -10 -10zM539 721q23 96 47 189.5t45 189.5q-2 8 -2 16v17z M545 1163l6 17zM606 1192l4 -25q10 0 15 -2q-2 6 -2 14.5v16.5zM770 412q6 -66 13 -139.5t30 -139.5q-4 70 -15.5 140.5t-27.5 142.5v-4zM852 59h10q0 23 -2 46.5t-6 46.5v-46.5t-2 -46.5z" />
<glyph unicode="&#xc3;" horiz-adv-x="1097" d="M14 37q0 27 28 34t54 7q20 0 40 -2t40 -6l10 55q11 55 27 145t36.5 205t43 238t46.5 241.5t44 216.5q-10 0 -27.5 3.5t-17.5 13.5q0 12 45 23.5t102.5 20.5t112.5 14t76 7q16 -2 16 -14q0 -14 -14 -25q20 -115 48 -258t59.5 -296.5t63.5 -307t58 -289.5q37 2 76 3.5 t78 1.5q16 -4 16 -15q0 -10 -9 -19t-22 -9q-29 0 -51 -3.5t-45.5 -6.5t-51.5 -5t-65 -2h-32.5t-46 2t-42 6t-18.5 13q0 8 8.5 17t18.5 11q12 0 24.5 -1t24.5 -1q6 0 12 1t13 1q-12 35 -25.5 90.5t-26 120t-20.5 131t-10 123.5h-11q-12 -4 -26.5 -6t-28.5 -2l-125 -16 q-29 -119 -50 -227.5t-38 -213.5q0 -25 -6 -35t-57 -10q-8 0 -64.5 2t-121 5.5t-117 7.5t-52.5 10zM328 1431q0 27 18.5 70t46 84t62.5 70.5t67 29.5q27 0 48.5 -25.5t39 -55t32.5 -55t34 -25.5q14 0 29.5 21.5t33.5 74.5q6 14 21 14q20 0 20 -20q0 -6 -2 -11 q-49 -143 -116 -143q-59 0 -127 111q-27 -16 -36 -50t-14 -61q16 -4 17 -16q0 -23 -25 -29q-23 -4 -47 -8t-49 -4q-16 0 -34.5 3t-18.5 25zM340 713l104 452q-6 -2 -10 -4t-6 -14zM344 332l152 663q-16 -45 -37 -93t-41 -99q-16 -92 -34 -187.5t-30 -183.5q-2 -4 -3 -18.5 t-7 -81.5zM371 63q8 49 21.5 121t25.5 138.5t20 114.5t11 55q-6 0 -12.5 -1.5t-12.5 -1.5q-12 -78 -31.5 -187.5t-21.5 -238.5zM377 1452h29q4 33 13 69.5t28 65.5q-29 -29 -47.5 -64.5t-22.5 -70.5zM438 551l13 8h12q23 125 52.5 254t39.5 262q-37 -129 -65.5 -270 t-51.5 -254zM465 1540q8 16 17.5 30.5t19.5 28.5q-12 -10 -21.5 -25.5t-15.5 -33.5zM479 1114q11 32 25 57q-25 -6 -25 -20v-37zM535 559q41 2 76.5 0t64.5 2l31 4q-4 33 -12.5 84t-18.5 108.5t-19.5 115t-11.5 102.5q-20 -78 -41.5 -156t-42.5 -155zM539 721 q23 96 47 189.5t45 189.5q-2 8 -2 16v17zM545 1163l6 17zM606 1192l4 -25q10 0 15 -2q-2 6 -2 14.5v16.5zM770 412q6 -66 13 -139.5t30 -139.5q-4 70 -15.5 140.5t-27.5 142.5v-4zM852 59h10q0 23 -2 46.5t-6 46.5v-46.5t-2 -46.5z" />
<glyph unicode="&#xc4;" horiz-adv-x="1097" d="M14 37q0 27 28 34t54 7q20 0 40 -2t40 -6l10 55q11 55 27 145t36.5 205t43 238t46.5 241.5t44 216.5q-10 0 -27.5 3.5t-17.5 13.5q0 12 45 23.5t102.5 20.5t112.5 14t76 7q16 -2 16 -14q0 -14 -14 -25q20 -115 48 -258t59.5 -296.5t63.5 -307t58 -289.5q37 2 76 3.5 t78 1.5q16 -4 16 -15q0 -10 -9 -19t-22 -9q-29 0 -51 -3.5t-45.5 -6.5t-51.5 -5t-65 -2h-32.5t-46 2t-42 6t-18.5 13q0 8 8.5 17t18.5 11q12 0 24.5 -1t24.5 -1q6 0 12 1t13 1q-12 35 -25.5 90.5t-26 120t-20.5 131t-10 123.5h-11q-12 -4 -26.5 -6t-28.5 -2l-125 -16 q-29 -119 -50 -227.5t-38 -213.5q0 -25 -6 -35t-57 -10q-8 0 -64.5 2t-121 5.5t-117 7.5t-52.5 10zM330 1519q0 35 27.5 65t62.5 30q23 0 49.5 -16.5t26.5 -51.5t-30 -69.5t-64 -34.5q-15 0 -31 10q-41 27 -41 67zM340 713l104 452q-6 -2 -10 -4t-6 -14zM344 332l152 663 q-16 -45 -37 -93t-41 -99q-16 -92 -34 -187.5t-30 -183.5q-2 -4 -3 -18.5t-7 -81.5zM371 63q8 49 21.5 121t25.5 138.5t20 114.5t11 55q-6 0 -12.5 -1.5t-12.5 -1.5q-12 -78 -31.5 -187.5t-21.5 -238.5zM381 1515q6 -25 31 -24q10 0 16 4q-37 2 -47 20zM414 1552 q0 -14 35 -14l-6 14q-16 4 -21 4q-8 0 -8 -4zM438 551l13 8h12q23 125 52.5 254t39.5 262q-37 -129 -65.5 -270t-51.5 -254zM479 1114q11 32 25 57q-25 -6 -25 -20v-37zM535 559q41 2 76.5 0t64.5 2l31 4q-4 33 -12.5 84t-18.5 108.5t-19.5 115t-11.5 102.5 q-20 -78 -41.5 -156t-42.5 -155zM539 721q23 96 47 189.5t45 189.5q-2 8 -2 16v17zM545 1163l6 17zM565 1540q0 31 25.5 57.5t54.5 38.5h4q35 0 57.5 -24.5t22.5 -40.5q0 -35 -32.5 -65t-67.5 -30t-49.5 25t-14.5 39zM606 1192l4 -25q10 0 15 -2q-2 6 -2 14.5v16.5z M608 1540q13 -16 29 -16q-10 4 -16 8t-13 8zM647 1571q8 -6 16.5 -8.5t18.5 -4.5q-4 20 -16 21q-9 0 -19 -8zM770 412q6 -66 13 -139.5t30 -139.5q-4 70 -15.5 140.5t-27.5 142.5v-4zM852 59h10q0 23 -2 46.5t-6 46.5v-46.5t-2 -46.5z" />
<glyph unicode="&#xc5;" horiz-adv-x="1097" d="M14 37q0 27 28 34t54 7q20 0 40 -2t40 -6l10 55q11 55 27 145t36.5 205t43 238t46.5 241.5t44 216.5q-10 0 -27.5 3.5t-17.5 13.5q0 12 45 23.5t102.5 20.5t112.5 14t76 7q16 -2 16 -14q0 -14 -14 -25q20 -115 48 -258t59.5 -296.5t63.5 -307t58 -289.5q37 2 76 3.5 t78 1.5q16 -4 16 -15q0 -10 -9 -19t-22 -9q-29 0 -51 -3.5t-45.5 -6.5t-51.5 -5t-65 -2h-32.5t-46 2t-42 6t-18.5 13q0 8 8.5 17t18.5 11q12 0 24.5 -1t24.5 -1q6 0 12 1t13 1q-12 35 -25.5 90.5t-26 120t-20.5 131t-10 123.5h-11q-12 -4 -26.5 -6t-28.5 -2l-125 -16 q-29 -119 -50 -227.5t-38 -213.5q0 -25 -6 -35t-57 -10q-8 0 -64.5 2t-121 5.5t-117 7.5t-52.5 10zM340 713l104 452q-6 -2 -10 -4t-6 -14zM344 332l152 663q-16 -45 -37 -93t-41 -99q-16 -92 -34 -187.5t-30 -183.5q-2 -4 -3 -18.5t-7 -81.5zM354 1462q0 37 18.5 78 t48 74.5t67.5 56.5t75 23q16 0 34.5 -4.5t22.5 -20.5q31 -2 53.5 -17.5t38 -37t22.5 -45t7 -39.5q0 -37 -19.5 -70t-52.5 -57.5t-73.5 -39t-85.5 -14.5q-63 0 -109.5 29t-46.5 84zM371 63q8 49 21.5 121t25.5 138.5t20 114.5t11 55q-6 0 -12.5 -1.5t-12.5 -1.5 q-12 -78 -31.5 -187.5t-21.5 -238.5zM432 1507q0 -31 26 -55q2 0 2 2q-2 10 -2 18.5v18.5q1 51 15 96q-41 -37 -41 -80zM438 551l13 8h12q23 125 52.5 254t39.5 262q-37 -129 -65.5 -270t-51.5 -254zM479 1114q11 32 25 57q-25 -6 -25 -20v-37zM499 1532q8 16 17.5 32.5 t19.5 30.5l-12 6q-10 -16 -15.5 -33.5t-9.5 -35.5zM534 1489q0 -41 22.5 -47.5t51.5 -6.5q8 0 14 1.5t14 1.5l9 6q6 8 16 8q39 39 39 84q0 27 -21.5 51.5t-58.5 30.5q-8 -23 -24 -23q-8 0 -15 6q-47 -47 -47 -112zM535 559q41 2 76.5 0t64.5 2l31 4q-4 33 -12.5 84 t-18.5 108.5t-19.5 115t-11.5 102.5q-20 -78 -41.5 -156t-42.5 -155zM539 721q23 96 47 189.5t45 189.5q-2 8 -2 16v17zM545 1163l6 17zM606 1192l4 -25q10 0 15 -2q-2 6 -2 14.5v16.5zM770 412q6 -66 13 -139.5t30 -139.5q-4 70 -15.5 140.5t-27.5 142.5v-4zM852 59h10 q0 23 -2 46.5t-6 46.5v-46.5t-2 -46.5z" />
<glyph unicode="&#xc6;" horiz-adv-x="1497" d="M14 37q0 27 28 34t54 7q20 0 40 -2t40 -6l10 55q11 55 27 145t36.5 205t43 238t46 241.5t44.5 216.5q-10 0 -27.5 3.5t-17.5 13.5q0 12 45 23.5t102.5 20.5t112.5 14t76 7q16 -2 16 -14q0 -14 -14 -25q0 -4 1 -10t1 -10l188 -12l580 -52q16 -4 16 -14t-9 -19.5t-21 -9.5 q-117 2 -235 14.5t-234 24.5q-2 -121 -3.5 -238.5t-1.5 -240.5v-22v-23q0 -66 2.5 -125t5.5 -120.5t8 -130t15 -152.5q51 4 119 13t132.5 19.5t117.5 18.5t80 8h10q2 0 3 1t3 1q10 0 10 -18q0 -10 -4 -17.5t-14 -7.5q-78 -10 -144.5 -21.5t-153.5 -24.5t-214 -29.5 t-324 -39.5q-4 -2 -10 -2q-14 0 -14 15q0 14 11 21t28.5 10.5t37 5.5t35.5 4q-6 160 -23.5 354.5t-17.5 386.5q0 53 2.5 103.5t6.5 99.5l-105 -311l-26 -105l-15 -61q-29 -119 -51.5 -227.5t-36.5 -213.5q0 -25 -6 -35t-57 -10q-8 0 -64.5 2t-121 5.5t-117 7.5t-52.5 10z M340 713l104 452q-6 -2 -10 -4t-6 -14zM344 332l152 663q-16 -45 -37 -93t-41 -99q-16 -92 -34 -187.5t-30 -183.5q-2 -4 -3 -18.5t-7 -81.5zM371 63l78 429q-6 0 -12.5 -1.5t-12.5 -1.5q-12 -78 -31.5 -187t-21.5 -239zM416 532q0 20 26 29q29 4 86.5 11.5t129 18.5 t153.5 22.5t161 22.5t149.5 21.5t121.5 18.5h6q16 0 17 -14q0 -8 -6.5 -16.5t-16.5 -10.5q-47 -8 -116.5 -19.5t-148.5 -23.5t-163 -24.5t-157.5 -22.5t-132 -17.5t-89.5 -9.5q-20 0 -20 14zM438 551l13 8h12q23 125 52.5 254t39.5 262q-37 -129 -65.5 -270t-51.5 -254z M479 1114q11 32 25 57q-25 -6 -25 -20v-37zM539 721q23 96 47 189.5t45 189.5q-2 8 -2 16v17zM545 1163l6 15l-2 2zM688 1133q2 -4 2 -5v2zM729 70l14 2v235l-10 -225q-2 -4 -2 -7t-2 -5zM733 623q4 2 12 2l-8 243zM797 1004l1 17q1 17 5 39.5t11.5 45.5t19.5 31 q-10 0 -18.5 -2t-18.5 -2v-129zM815 166l8 -78l17 4q-4 10 -12.5 32.5t-12.5 41.5zM850 322q2 -55 10 -111.5t25 -106.5l12 5q-16 39 -24.5 82.5t-14.5 84.5q-4 8 -5 20.5t-3 25.5zM866 1059q2 -47 3 -107.5t1 -152.5v-174l33 8q-4 72 -7 145.5t-11 145.5q-2 23 -6.5 51.5 t-12.5 83.5zM870 580q0 -104 6.5 -182.5t26.5 -159.5v190q-4 49 -4 79v81q-6 -2 -13 -5t-16 -3z" />
<glyph unicode="&#xc7;" horiz-adv-x="753" d="M35 623q0 129 25.5 246.5t93.5 240.5q39 68 102 101.5t131 33.5q43 0 85 -14t76 -44t56.5 -75t28.5 -104q-2 -10 -10.5 -18.5t-18.5 -8.5q-12 0 -14 14q-2 18 -14.5 51t-31 65t-42 54.5t-47.5 22.5q-39 0 -68 -54.5t-48.5 -136.5t-28.5 -178t-9 -180q0 -94 8 -184 t22.5 -164t34 -126t44.5 -71q43 -35 90 -35q41 0 72.5 21.5t56 48.5t41 48.5t26.5 21.5q14 0 17 -17q-12 -49 -40 -84t-65 -56.5t-80 -31.5t-88 -10q-92 0 -157.5 29.5t-110.5 80t-72.5 116t-42 134t-18.5 137t-4 126.5zM76 633q0 -47 3 -91t7 -87q0 51 2 112.5t8 126 t16.5 127t26.5 115.5q23 59 52.5 112.5t58.5 106.5q-16 -16 -32 -29.5t-28 -29.5q-66 -88 -90 -211t-24 -252zM129 573q0 -203 66 -395h2q12 0 12 -12q0 -4 -2 -9t-2 -16l20 -18q-16 49 -27.5 107.5t-19.5 118t-11 113.5t-3 95q0 49 5 97t13 101.5t16.5 115t12.5 135.5 q-45 -104 -63.5 -213t-18.5 -220zM207 504q0 -33 3 -69t11 -66.5t23 -34.5l14 -21q-4 49 -8 92.5t-9 84t-9.5 82.5t-8.5 90q-2 2 -2 6t2 8v2q-4 20 -4 43q-4 -51 -8 -92t-4 -82v-43zM256 178l2 -4q0 2 -1 2t-1 2zM258 1018q10 51 23.5 97t35.5 77l-43 -23h7q12 0 12 -14 l4 -2q-4 0 -4 -6q-16 -33 -24.5 -64.5t-10.5 -64.5zM260 633v37v-25v-12zM279 84l20 -10l-10 14zM301 221l18 -37q-4 27 -11 57.5t-7 65.5v-86zM333 -319q0 10 9.5 18t21.5 8q8 0 16.5 -2t16.5 -2q43 0 65.5 33t22.5 67q0 18 -7.5 34t-21.5 22q-59 23 -72.5 54.5t-13.5 84.5 v43t15 27q14 0 20 -21.5t13.5 -49.5t22.5 -51.5t50 -27.5q14 -2 35.5 -3t41 -8t33 -22.5t13.5 -46.5q-4 -41 -22.5 -73.5t-48 -56t-66.5 -37t-76 -13.5q-16 0 -42 3t-26 20zM342 127l12 -43q10 -14 11 -18q0 -2 -1.5 -3.5t-1.5 -3.5h11v4zM389 1206l6 -6l6 8q-4 0 -6 -1 t-6 -1zM510 -266q25 14 38 37.5t13 50.5v14z" />
<glyph unicode="&#xc8;" horiz-adv-x="937" d="M16 575q0 10 8.5 18.5t18.5 10.5h45l8 184q-2 100 -5 202t-3 202q-8 0 -16.5 -1t-16.5 -1q-35 0 -35 16q0 10 8.5 18.5t18.5 10.5h8q8 0 34 1t91.5 2t182 2t307.5 3q14 -2 14 -16q0 -20 -25 -27q-35 0 -77.5 1t-85.5 1q-94 0 -164 -6q4 -33 7 -65.5t3 -65.5 q0 -61 -4 -121.5t-6 -120.5l8 -202q66 6 130.5 15t129.5 19q16 -4 16 -16q0 -16 -32.5 -27.5t-76.5 -17.5t-91 -10t-76 -6q2 -68 3 -140.5t2 -140.5t2 -127t1 -102l-2 -13q70 6 137.5 11.5t134.5 5.5h29t32 -1t26.5 -4.5t11.5 -9.5q0 -16 -15.5 -22t-35.5 -6 q-53 0 -107.5 -3t-119 -7.5t-140.5 -9.5t-170 -9v-8q0 -23 -20 -23t-31 29l-27 4q-18 0 -18 14q0 8 8 16.5t18 10.5h13q-2 10 -2 31q0 23 1 46t3 46l12 395h-49q-20 0 -21 14zM137 305q0 -23 1 -43t1 -43q0 23 1 54.5t1 80.5v209h-4v-258zM139 43h58q-2 49 -2 98v99 q0 72 2 143t6 143q0 4 -1 14.5t-1 24.5h-8l-5 -170q0 -78 -2 -155.5t-4 -155.5l-2 -6q-6 -20 -26 -21q-10 0 -13 9q0 -6 -1 -11.5t-1 -11.5zM141 606v248v-55v-193zM195 608h6q-2 61 -3 153.5t-1 180.5v156v80q0 -6 -1 -46t-1 -98.5v-127v-130v-107.5v-61zM246 537 q0 -98 6 -199.5t6 -214.5v-38.5t-2 -39.5l47 6q-2 2 -2 12q0 4 -1 8.5t-1 10.5l-4 -2q-12 0 -20.5 18.5t-11.5 46t-4 58t-1 53.5v57v39l-10 215q-2 -10 -2 -16v-14zM256 965q0 -33 2 -53.5t6 -18.5q0 -20 -1 -39.5t-1 -40.5q6 29 10 53q0 51 -3 104.5t-3 106.5q0 31 2 61.5 t6 61.5l-18 -2q0 -16 1 -35.5t1 -40.5q0 -41 -1 -82t-1 -75zM295 1626q0 8 9 25.5t23.5 33t31 27.5t30.5 12q6 0 28.5 -21.5t52.5 -54t62.5 -71.5t60 -75t45 -63.5t17.5 -35.5q0 -10 -8 -17.5t-20 -7.5q-6 0 -9 2q-8 4 -39.5 24.5t-76.5 51.5t-97.5 71t-101.5 85q-8 8 -8 14 zM344 1634q57 -51 121 -90q-25 27 -52.5 52.5t-58.5 45.5l-5 -5t-5 -3z" />
<glyph unicode="&#xc9;" horiz-adv-x="937" d="M16 575q0 10 8.5 18.5t18.5 10.5h45l8 184q-2 100 -5 202t-3 202q-8 0 -16.5 -1t-16.5 -1q-35 0 -35 16q0 10 8.5 18.5t18.5 10.5h8q8 0 34 1t91.5 2t182 2t307.5 3q14 -2 14 -16q0 -20 -25 -27q-35 0 -77.5 1t-85.5 1q-94 0 -164 -6q4 -33 7 -65.5t3 -65.5 q0 -61 -4 -121.5t-6 -120.5l8 -202q66 6 130.5 15t129.5 19q16 -4 16 -16q0 -16 -32.5 -27.5t-76.5 -17.5t-91 -10t-76 -6q2 -68 3 -140.5t2 -140.5t2 -127t1 -102l-2 -13q70 6 137.5 11.5t134.5 5.5h29t32 -1t26.5 -4.5t11.5 -9.5q0 -16 -15.5 -22t-35.5 -6 q-53 0 -107.5 -3t-119 -7.5t-140.5 -9.5t-170 -9v-8q0 -23 -20 -23t-31 29l-27 4q-18 0 -18 14q0 8 8 16.5t18 10.5h13q-2 10 -2 31q0 23 1 46t3 46l12 395h-49q-20 0 -21 14zM137 305q0 -23 1 -43t1 -43q0 23 1 54.5t1 80.5v209h-4v-258zM139 43h58q-2 49 -2 98v99 q0 72 2 143t6 143q0 4 -1 14.5t-1 24.5h-8l-5 -170q0 -78 -2 -155.5t-4 -155.5l-2 -6q-6 -20 -26 -21q-10 0 -13 9q0 -6 -1 -11.5t-1 -11.5zM141 606v248v-55v-193zM195 608h6q-2 61 -3 153.5t-1 180.5v156v80q0 -6 -1 -46t-1 -98.5v-127v-130v-107.5v-61zM246 537 q0 -98 6 -199.5t6 -214.5v-38.5t-2 -39.5l47 6q-2 2 -2 12q0 4 -1 8.5t-1 10.5l-4 -2q-12 0 -20.5 18.5t-11.5 46t-4 58t-1 53.5v57v39l-10 215q-2 -10 -2 -16v-14zM256 965q0 -33 2 -53.5t6 -18.5q0 -20 -1 -39.5t-1 -40.5q6 29 10 53q0 51 -3 104.5t-3 106.5q0 31 2 61.5 t6 61.5l-18 -2q0 -16 1 -35.5t1 -40.5q0 -41 -1 -82t-1 -75zM283 1403q0 6 26.5 42t64.5 84t81 100t74 89q8 6 18 6q14 0 31.5 -12t31 -27.5t22.5 -33t9 -25.5q0 -6 -8 -14q-61 -57 -121.5 -101.5t-106.5 -73t-74 -44t-24 -15.5q-10 0 -17 7t-7 18zM471 1544q64 39 121 90 q-2 0 -5 3l-5 5q-31 -20 -57.5 -45.5t-53.5 -52.5z" />
<glyph unicode="&#xca;" horiz-adv-x="937" d="M16 575q0 10 8.5 18.5t18.5 10.5h45l8 184q-2 100 -5 202t-3 202q-8 0 -16.5 -1t-16.5 -1q-35 0 -35 16q0 10 8.5 18.5t18.5 10.5h8q8 0 34 1t91.5 2t182 2t307.5 3q14 -2 14 -16q0 -20 -25 -27q-35 0 -77.5 1t-85.5 1q-94 0 -164 -6q4 -33 7 -65.5t3 -65.5 q0 -61 -4 -121.5t-6 -120.5l8 -202q66 6 130.5 15t129.5 19q16 -4 16 -16q0 -16 -32.5 -27.5t-76.5 -17.5t-91 -10t-76 -6q2 -68 3 -140.5t2 -140.5t2 -127t1 -102l-2 -13q70 6 137.5 11.5t134.5 5.5h29t32 -1t26.5 -4.5t11.5 -9.5q0 -16 -15.5 -22t-35.5 -6 q-53 0 -107.5 -3t-119 -7.5t-140.5 -9.5t-170 -9v-8q0 -23 -20 -23t-31 29l-27 4q-18 0 -18 14q0 8 8 16.5t18 10.5h13q-2 10 -2 31q0 23 1 46t3 46l12 395h-49q-20 0 -21 14zM137 305q0 -23 1 -43t1 -43q0 23 1 54.5t1 80.5v209h-4v-258zM139 43h58q-2 49 -2 98v99 q0 72 2 143t6 143q0 4 -1 14.5t-1 24.5h-8l-5 -170q0 -78 -2 -155.5t-4 -155.5l-2 -6q-6 -20 -26 -21q-10 0 -13 9q0 -6 -1 -11.5t-1 -11.5zM141 606v248v-55v-193zM195 608h6q-2 61 -3 153.5t-1 180.5v156v80q0 -6 -1 -46t-1 -98.5v-127v-130v-107.5v-61zM246 537 q0 -98 6 -199.5t6 -214.5v-38.5t-2 -39.5l47 6q-2 2 -2 12q0 4 -1 8.5t-1 10.5l-4 -2q-12 0 -20.5 18.5t-11.5 46t-4 58t-1 53.5v57v39l-10 215q-2 -10 -2 -16v-14zM256 965q0 -33 2 -53.5t6 -18.5q0 -20 -1 -39.5t-1 -40.5q6 29 10 53q0 51 -3 104.5t-3 106.5q0 31 2 61.5 t6 61.5l-18 -2q0 -16 1 -35.5t1 -40.5q0 -41 -1 -82t-1 -75zM260 1425q0 6 6 18.5t10 20.5q23 23 41 44.5t36.5 47t39 56t47.5 69.5q0 -2 9 9.5t20 11.5q2 0 18 -20.5t42 -54.5t59.5 -77t72.5 -88q10 -10 10 -18q0 -23 -26 -23q-8 0 -26.5 12.5t-42 31t-49.5 36.5t-46 31 q-10 -2 -34.5 -17.5t-54.5 -36t-61 -40t-51 -27.5q-20 0 -20 14zM362 1499q12 14 25.5 25.5t25.5 21.5l-6 2q-23 -18 -37 -37zM446 1620l16 8q-4 4 -4 8zM458 1581q27 -6 47 -19l-26 37q-2 -6 -10 -10z" />
<glyph unicode="&#xcb;" horiz-adv-x="937" d="M16 575q0 10 8.5 18.5t18.5 10.5h45l8 184q-2 100 -5 202t-3 202q-8 0 -16.5 -1t-16.5 -1q-35 0 -35 16q0 10 8.5 18.5t18.5 10.5h8q8 0 34 1t91.5 2t182 2t307.5 3q14 -2 14 -16q0 -20 -25 -27q-35 0 -77.5 1t-85.5 1q-94 0 -164 -6q4 -33 7 -65.5t3 -65.5 q0 -61 -4 -121.5t-6 -120.5l8 -202q66 6 130.5 15t129.5 19q16 -4 16 -16q0 -16 -32.5 -27.5t-76.5 -17.5t-91 -10t-76 -6q2 -68 3 -140.5t2 -140.5t2 -127t1 -102l-2 -13q70 6 137.5 11.5t134.5 5.5h29t32 -1t26.5 -4.5t11.5 -9.5q0 -16 -15.5 -22t-35.5 -6 q-53 0 -107.5 -3t-119 -7.5t-140.5 -9.5t-170 -9v-8q0 -23 -20 -23t-31 29l-27 4q-18 0 -18 14q0 8 8 16.5t18 10.5h13q-2 10 -2 31q0 23 1 46t3 46l12 395h-49q-20 0 -21 14zM137 305q0 -23 1 -43t1 -43q0 23 1 54.5t1 80.5v209h-4v-258zM139 43h58q-2 49 -2 98v99 q0 72 2 143t6 143q0 4 -1 14.5t-1 24.5h-8l-5 -170q0 -78 -2 -155.5t-4 -155.5l-2 -6q-6 -20 -26 -21q-10 0 -13 9q0 -6 -1 -11.5t-1 -11.5zM141 606v248v-55v-193zM195 608h6q-2 61 -3 153.5t-1 180.5v156v80q0 -6 -1 -46t-1 -98.5v-127v-130v-107.5v-61zM246 537 q0 -98 6 -199.5t6 -214.5v-38.5t-2 -39.5l47 6q-2 2 -2 12q0 4 -1 8.5t-1 10.5l-4 -2q-12 0 -20.5 18.5t-11.5 46t-4 58t-1 53.5v57v39l-10 215q-2 -10 -2 -16v-14zM256 965q0 -33 2 -53.5t6 -18.5q0 -20 -1 -39.5t-1 -40.5q6 29 10 53q0 51 -3 104.5t-3 106.5q0 31 2 61.5 t6 61.5l-18 -2q0 -16 1 -35.5t1 -40.5q0 -41 -1 -82t-1 -75zM281 1519q0 35 27.5 65t62.5 30q23 0 49.5 -16.5t26.5 -51.5t-30 -69.5t-64 -34.5q-15 0 -31 10q-41 27 -41 67zM332 1515q6 -25 31 -24q10 0 16 4q-37 2 -47 20zM365 1552q0 -14 35 -14l-6 14q-16 4 -21 4 q-8 0 -8 -4zM516 1540q0 31 25.5 57.5t54.5 38.5h4q35 0 57.5 -24.5t22.5 -40.5q0 -35 -32.5 -65t-67.5 -30t-49.5 25t-14.5 39zM559 1540q13 -16 29 -16q-10 4 -16 8t-13 8zM598 1571q8 -6 16.5 -8.5t18.5 -4.5q-4 20 -16 21q-9 0 -19 -8z" />
<glyph unicode="&#xcc;" horiz-adv-x="661" d="M14 1208q0 8 8.5 17.5t18.5 11.5h6q14 0 50 3l84 7t104.5 7t115.5 3h35t40.5 -1t32.5 -5t13 -12t-7 -16.5t-17 -12.5h-88q0 -152 14.5 -282.5t30.5 -265.5q4 -84 9 -175.5t10 -173.5t9 -147.5t6 -97.5q12 0 37 -2.5t49.5 -8.5t43 -14t18.5 -20q0 -10 -8 -17.5t-19 -7.5 q-16 0 -55 8t-86 8q-43 0 -91 -2t-94 -5t-87 -5t-70 -2t-45 4h-4q-18 0 -19 12q0 14 23 31h10q29 -2 42 -4t20 -2q6 0 6 4t-3 13.5t-3 27.5q0 63 2 129t6 131q-2 31 -2 65.5v69.5q0 123 3 254t5 242q-4 55 -11 110.5t-20 106.5h-104q-18 0 -19 14zM109 1626q0 8 9 25.5 t23.5 33t31 27.5t30.5 12q6 0 28.5 -21.5t52.5 -54t62.5 -71.5t60 -75t45 -63.5t17.5 -35.5q0 -10 -8 -17.5t-20 -7.5q-6 0 -9 2q-8 4 -39.5 24.5t-76.5 51.5t-97.5 71t-101.5 85q-8 8 -8 14zM158 1634q57 -51 121 -90q-25 27 -52.5 52.5t-58.5 45.5l-5 -5t-5 -3zM211 220.5 q0 -15.5 4 -30.5q6 68 10 150t7.5 165t4.5 160.5t1 135.5q0 70 -4.5 138.5t-18.5 133.5v-78q4 -49 4 -100v-102v-121v-100.5t-1 -112t-3 -111.5t-4 -98v-29.5zM219 1198l12 -24l29 -168l-12 192h-29zM236 41q10 0 14 2l6 150q-2 -6 -5 -29t-6 -47.5t-5 -47t-4 -28.5z M287 311l6 -260l-2 -4l24 4q-4 6 -8 44t-8 83t-7 84t-5 49zM299 1200q2 -4 4 -35.5t4 -68.5t4 -69t2 -38l2 170q0 10 1 21.5t1 21.5zM313 578l4 -41q4 -47 8.5 -102.5t9.5 -113t9 -111.5t8 -95q-4 72 -8 154.5t-7 166.5t-6 167t-5 155zM360 1065q0 -53 3.5 -100.5t3.5 -98.5 q2 -43 4 -97t4 -110.5t4 -109.5t6 -96l14 28q-6 74 -11 159t-10 173t-8 174t-3 160q-4 -16 -5.5 -38t-1.5 -44zM383 59h14.5t16.5 4v39v80q0 35 -1 85t-5 128q-10 -14 -19 -18q4 -72 7 -145.5t3 -147.5q-2 -8 -7 -14.5t-9 -10.5z" />
<glyph unicode="&#xcd;" horiz-adv-x="661" d="M14 1208q0 8 8.5 17.5t18.5 11.5h6q14 0 50 3l84 7t104.5 7t115.5 3h35t40.5 -1t32.5 -5t13 -12t-7 -16.5t-17 -12.5h-88q0 -152 14.5 -282.5t30.5 -265.5q4 -84 9 -175.5t10 -173.5t9 -147.5t6 -97.5q12 0 37 -2.5t49.5 -8.5t43 -14t18.5 -20q0 -10 -8 -17.5t-19 -7.5 q-16 0 -55 8t-86 8q-43 0 -91 -2t-94 -5t-87 -5t-70 -2t-45 4h-4q-18 0 -19 12q0 14 23 31h10q29 -2 42 -4t20 -2q6 0 6 4t-3 13.5t-3 27.5q0 63 2 129t6 131q-2 31 -2 65.5v69.5q0 123 3 254t5 242q-4 55 -11 110.5t-20 106.5h-104q-18 0 -19 14zM98 1403q0 6 26.5 42 t64.5 84t81 100t74 89q8 6 18 6q14 0 31.5 -12t31 -27.5t22.5 -33t9 -25.5q0 -6 -8 -14q-61 -57 -121.5 -101.5t-106.5 -73t-74 -44t-24 -15.5q-10 0 -17 7t-7 18zM211 220.5q0 -15.5 4 -30.5q6 68 10 150t7.5 165t4.5 160.5t1 135.5q0 70 -4.5 138.5t-18.5 133.5v-78 q4 -49 4 -100v-102v-121v-100.5t-1 -112t-3 -111.5t-4 -98v-29.5zM219 1198l12 -24l29 -168l-12 192h-29zM236 41q10 0 14 2l6 150q-2 -6 -5 -29t-6 -47.5t-5 -47t-4 -28.5zM286 1544q64 39 121 90q-2 0 -5 3l-5 5q-31 -20 -57.5 -45.5t-53.5 -52.5zM287 311l6 -260l-2 -4 l24 4q-4 6 -8 44t-8 83t-7 84t-5 49zM299 1200q2 -4 4 -35.5t4 -68.5t4 -69t2 -38l2 170q0 10 1 21.5t1 21.5zM313 578l4 -41q4 -47 8.5 -102.5t9.5 -113t9 -111.5t8 -95q-4 72 -8 154.5t-7 166.5t-6 167t-5 155zM360 1065q0 -53 3.5 -100.5t3.5 -98.5q2 -43 4 -97t4 -110.5 t4 -109.5t6 -96l14 28q-6 74 -11 159t-10 173t-8 174t-3 160q-4 -16 -5.5 -38t-1.5 -44zM383 59h14.5t16.5 4v39v80q0 35 -1 85t-5 128q-10 -14 -19 -18q4 -72 7 -145.5t3 -147.5q-2 -8 -7 -14.5t-9 -10.5z" />
<glyph unicode="&#xce;" horiz-adv-x="661" d="M14 1208q0 8 8.5 17.5t18.5 11.5h6q14 0 50 3l84 7t104.5 7t115.5 3h35t40.5 -1t32.5 -5t13 -12t-7 -16.5t-17 -12.5h-88q0 -152 14.5 -282.5t30.5 -265.5q4 -84 9 -175.5t10 -173.5t9 -147.5t6 -97.5q12 0 37 -2.5t49.5 -8.5t43 -14t18.5 -20q0 -10 -8 -17.5t-19 -7.5 q-16 0 -55 8t-86 8q-43 0 -91 -2t-94 -5t-87 -5t-70 -2t-45 4h-4q-18 0 -19 12q0 14 23 31h10q29 -2 42 -4t20 -2q6 0 6 4t-3 13.5t-3 27.5q0 63 2 129t6 131q-2 31 -2 65.5v69.5q0 123 3 254t5 242q-4 55 -11 110.5t-20 106.5h-104q-18 0 -19 14zM72 1425q0 6 6 18.5 t10 20.5q23 23 41 44.5t36.5 47t39 56t47.5 69.5q0 -2 9 9.5t20 11.5q2 0 18 -20.5t42 -54.5t59.5 -77t72.5 -88q10 -10 10 -18q0 -23 -26 -23q-8 0 -26.5 12.5t-42 31t-49.5 36.5t-46 31q-10 -2 -34.5 -17.5t-54.5 -36t-61 -40t-51 -27.5q-20 0 -20 14zM174 1499 q12 14 25.5 25.5t25.5 21.5l-6 2q-23 -18 -37 -37zM211 220.5q0 -15.5 4 -30.5q6 68 10 150t7.5 165t4.5 160.5t1 135.5q0 70 -4.5 138.5t-18.5 133.5v-78q4 -49 4 -100v-102v-121v-100.5t-1 -112t-3 -111.5t-4 -98v-29.5zM219 1198l12 -24l29 -168l-12 192h-29zM236 41 q10 0 14 2l6 150q-2 -6 -5 -29t-6 -47.5t-5 -47t-4 -28.5zM258 1620l16 8q-4 4 -4 8zM270 1581q27 -6 47 -19l-26 37q-2 -6 -10 -10zM287 311l6 -260l-2 -4l24 4q-4 6 -8 44t-8 83t-7 84t-5 49zM299 1200q2 -4 4 -35.5t4 -68.5t4 -69t2 -38l2 170q0 10 1 21.5t1 21.5z M313 578l4 -41q4 -47 8.5 -102.5t9.5 -113t9 -111.5t8 -95q-4 72 -8 154.5t-7 166.5t-6 167t-5 155zM360 1065q0 -53 3.5 -100.5t3.5 -98.5q2 -43 4 -97t4 -110.5t4 -109.5t6 -96l14 28q-6 74 -11 159t-10 173t-8 174t-3 160q-4 -16 -5.5 -38t-1.5 -44zM383 59h14.5t16.5 4 v39v80q0 35 -1 85t-5 128q-10 -14 -19 -18q4 -72 7 -145.5t3 -147.5q-2 -8 -7 -14.5t-9 -10.5z" />
<glyph unicode="&#xcf;" horiz-adv-x="661" d="M14 1208q0 8 8.5 17.5t18.5 11.5h6q14 0 50 3l84 7t104.5 7t115.5 3h35t40.5 -1t32.5 -5t13 -12t-7 -16.5t-17 -12.5h-88q0 -152 14.5 -282.5t30.5 -265.5q4 -84 9 -175.5t10 -173.5t9 -147.5t6 -97.5q12 0 37 -2.5t49.5 -8.5t43 -14t18.5 -20q0 -10 -8 -17.5t-19 -7.5 q-16 0 -55 8t-86 8q-43 0 -91 -2t-94 -5t-87 -5t-70 -2t-45 4h-4q-18 0 -19 12q0 14 23 31h10q29 -2 42 -4t20 -2q6 0 6 4t-3 13.5t-3 27.5q0 63 2 129t6 131q-2 31 -2 65.5v69.5q0 123 3 254t5 242q-4 55 -11 110.5t-20 106.5h-104q-18 0 -19 14zM96 1519q0 35 27.5 65 t62.5 30q23 0 49.5 -16.5t26.5 -51.5t-30 -69.5t-64 -34.5q-15 0 -31 10q-41 27 -41 67zM147 1515q6 -25 31 -24q10 0 16 4q-37 2 -47 20zM180 1552q0 -14 35 -14l-6 14q-16 4 -21 4q-8 0 -8 -4zM211 220.5q0 -15.5 4 -30.5q6 68 10 150t7.5 165t4.5 160.5t1 135.5 q0 70 -4.5 138.5t-18.5 133.5v-78q4 -49 4 -100v-102v-121v-100.5t-1 -112t-3 -111.5t-4 -98v-29.5zM219 1198l12 -24l29 -168l-12 192h-29zM236 41q10 0 14 2l6 150q-2 -6 -5 -29t-6 -47.5t-5 -47t-4 -28.5zM287 311l6 -260l-2 -4l24 4q-4 6 -8 44t-8 83t-7 84t-5 49z M299 1200q2 -4 4 -35.5t4 -68.5t4 -69t2 -38l2 170q0 10 1 21.5t1 21.5zM313 578l4 -41q4 -47 8.5 -102.5t9.5 -113t9 -111.5t8 -95q-4 72 -8 154.5t-7 166.5t-6 167t-5 155zM331 1540q0 31 25.5 57.5t54.5 38.5h4q35 0 57.5 -24.5t22.5 -40.5q0 -35 -32.5 -65t-67.5 -30 t-49.5 25t-14.5 39zM360 1065q0 -53 3.5 -100.5t3.5 -98.5q2 -43 4 -97t4 -110.5t4 -109.5t6 -96l14 28q-6 74 -11 159t-10 173t-8 174t-3 160q-4 -16 -5.5 -38t-1.5 -44zM374 1540q13 -16 29 -16q-10 4 -16 8t-13 8zM383 59h14.5t16.5 4v39v80q0 35 -1 85t-5 128 q-10 -14 -19 -18q4 -72 7 -145.5t3 -147.5q-2 -8 -7 -14.5t-9 -10.5zM413 1571q8 -6 16.5 -8.5t18.5 -4.5q-4 20 -16 21q-9 0 -19 -8z" />
<glyph unicode="&#xd0;" horiz-adv-x="1050" d="M16 551q0 27 27 35q25 2 89.5 7t140 9t149.5 8t117 6q16 -2 16 -16q0 -16 -35 -26.5t-88 -17.5t-115.5 -11t-117 -6t-92 -3t-41.5 -1h-29q-20 0 -21 16zM16 1202q0 14 9.5 26.5t17.5 12.5h31q31 0 69.5 1t85.5 1q90 0 191.5 -14.5t193.5 -65.5q86 -41 161 -95t129 -118.5 t85 -135.5t31 -140q0 -98 -51 -185.5t-134 -161t-184.5 -133t-203 -100.5t-191.5 -63.5t-147 -22.5q-29 0 -48.5 4t-19.5 21q0 6 2 10l10 12q8 12 25 13q16 0 16 -13v-4l39 6q4 -2 5 15.5t5 36.5q-4 260 -18 538.5t-14 538.5q-16 -2 -33 -3t-31 -1t-20 2q-10 4 -11 18z M154 1186q4 -207 22.5 -429t18.5 -440q0 -106 -7 -206h13q-4 209 -9.5 439t-9.5 439l-8 197h-20zM217 1188q6 -2 8 -14v-220v-172l19 222q-4 45 -5 92t-3 96zM256 356q0 -14 2 -20l16 188q0 20 -1 63.5t-1 63.5zM279 115h10l-4 45zM299 877.5q0 -20.5 2 -43.5q8 88 15.5 179 t29.5 175q-10 0 -18.5 2t-16.5 2q0 -43 -6 -109.5t-6 -164.5v-40.5zM319 610q10 -59 19.5 -140t17.5 -140v98l-8 471q-4 -72 -12 -144.5t-17 -144.5zM410 119q92 31 190 93t179 138t134.5 157t53.5 146q0 33 -11.5 68t-30 68.5t-41 65t-42.5 56.5q-82 98 -186.5 165 t-227.5 104q0 -125 -3 -259.5t-6 -271.5t-6 -271t-3 -259z" />
<glyph unicode="&#xd1;" horiz-adv-x="1177" d="M14 53q0 10 7.5 17.5t17.5 7.5q4 0 41 -12.5t100 -12.5q0 293 5 573.5t5 575.5v10q-14 0 -37.5 -1t-46 0t-39 5.5t-16.5 12.5q0 23 27 31q109 0 216 -6.5t216 -6.5q16 -4 16 -16q0 -10 -9 -19.5t-21 -9.5h-19q39 -135 98.5 -292.5t126 -309t132 -285t116.5 -221.5 q-18 168 -16 335t2 321q0 117 1 231.5t1 218.5v6h-125q-14 0 -14 13q0 16 15 23t35.5 8t42 0t34.5 -1h62t82 -2t70.5 -7t30.5 -15q0 -16 -24 -27q-37 0 -77 2t-85 6q0 -106 -1 -220t-1 -228q0 -76 1 -174.5t3 -199.5t5 -196.5t7 -169.5v-6q0 -10 -7 -18t-17 -8t-17 10 q-39 63 -101 179t-130 252t-130 278.5t-103 259.5l6 -420v-66q0 -53 -1 -109.5t-3 -109.5t-3 -101t-1 -81q12 -6 12 -17q0 -12 -10 -18q-2 -18 -71 -25.5t-200 -7.5h-43h-24q-53 0 -97.5 10.5t-44.5 32.5zM223 53q10 0 18.5 1t18.5 1q-6 88 -8 194.5t-2 219.5q0 123 2 241.5 t4 218t4 170t2 95.5q0 6 2 8q-10 0 -14 2t-12 2q6 -158 6 -301q0 -139 -2 -263t-2 -228v-47q0 -82 -6.5 -155t-10.5 -159zM307 57q10 0 17.5 1t17.5 1q-6 20 -8 75.5t-2 133.5q0 70 1 150t3 155.5t3 142t1 109.5v39q-2 -35 -4 -101.5t-5 -148.5t-6 -171t-6.5 -166.5 t-6.5 -137t-5 -82.5zM401 1196q2 -25 2 -104.5t1.5 -189t1.5 -231.5t1 -228.5t4 -182.5t7 -92q0 14 -1 62.5t-1 117v151.5v171v171v157.5t1 125t1 74.5q-8 -4 -12 -4q-3 2 -5 2zM461 1431q0 27 18.5 70t46 84t62.5 70.5t67 29.5q27 0 48.5 -25.5t39 -55t32.5 -55t34 -25.5 q14 0 29.5 21.5t33.5 74.5q6 14 21 14q20 0 20 -20q0 -6 -2 -11q-49 -143 -116 -143q-59 0 -127 111q-27 -16 -36 -50t-14 -61q16 -4 17 -16q0 -23 -25 -29q-23 -4 -47 -8t-49 -4q-16 0 -34.5 3t-18.5 25zM510 1452h29q4 33 13 69.5t28 65.5q-29 -29 -47.5 -64.5 t-22.5 -70.5zM598 1540q8 16 17.5 30.5t19.5 28.5q-12 -10 -21.5 -25.5t-15.5 -33.5z" />
<glyph unicode="&#xd2;" horiz-adv-x="929" d="M35 606q0 47 2 102.5t9 108.5t18.5 101t29.5 83q59 117 154.5 188t206.5 71q53 0 104 -19.5t100 -60.5q53 -47 82 -110.5t52 -129.5q37 -109 65.5 -221.5t28.5 -222.5q0 -86 -30 -176.5t-90 -163t-149.5 -118.5t-207.5 -46q-78 0 -146 22q-63 23 -105 79.5t-67.5 124 t-37 133t-13.5 106.5q-2 10 -4 50t-2 99zM94 563q0 -98 15.5 -194.5t58.5 -184.5q16 -31 40.5 -50t51.5 -42q-43 27 -72.5 85.5t-49 127t-30 138t-14.5 120.5zM160 719q0 -43 6 -86t16 -94q-6 55 -6 108q0 117 27.5 217.5t87.5 194.5q6 10 10 17t10 14q-59 -23 -89 -82 t-42 -125q-20 -88 -20 -164zM162 1004q37 78 111.5 121.5t170.5 60.5q-16 4 -31.5 8t-31.5 4q-4 0 -9.5 -1t-9.5 -1q-31 -6 -61.5 -23.5t-57 -43t-48 -58.5t-33.5 -67zM252 348q12 -66 29 -119l22 -45l19 -16l-15 29q-16 31 -30.5 69.5t-24.5 81.5zM266 717q2 -74 5 -135.5 t11.5 -120t24 -115.5t39.5 -123q0 -4 2 -6q-6 35 -14 85t-15.5 108.5t-12.5 123t-5 130.5q0 129 24.5 243.5t92.5 182.5l6 6q-41 -18 -68.5 -65.5t-47 -105t-30 -114.5t-12.5 -94zM289 1626q0 8 9 25.5t23.5 33t31 27.5t30.5 12q6 0 28.5 -21.5t52.5 -54t62.5 -71.5t60 -75 t45 -63.5t17.5 -35.5q0 -10 -8 -17.5t-20 -7.5q-6 0 -9 2q-8 4 -39.5 24.5t-76.5 51.5t-97.5 71t-101.5 85q-8 8 -8 14zM338 1634q57 -51 121 -90q-25 27 -52.5 52.5t-58.5 45.5l-5 -5t-5 -3zM352 604q0 -127 14.5 -243.5t36.5 -194.5q8 -29 23.5 -51.5t24.5 -51.5 q86 31 151.5 87.5t108.5 129t64.5 155.5t21.5 169q0 88 -23 174q-8 31 -29.5 84t-53.5 105.5t-76 90.5t-99 38q-47 0 -77.5 -48.5t-50 -121t-28 -158.5t-8.5 -164zM573 1171q41 -35 69 -64.5t46.5 -57t31.5 -53t25 -50.5q-31 76 -72.5 138.5t-90.5 95.5h-2zM651 94 q16 10 30 21.5t26 25.5q68 70 100.5 160t36.5 188q-4 -18 -8.5 -34.5t-14.5 -26.5q-18 -82 -59 -156.5t-100 -134.5v-10q-2 -10 -4.5 -17.5t-6.5 -15.5zM745 946q2 -2 1.5 -4t1.5 -2v2q0 2 -1.5 2t-1.5 2z" />
<glyph unicode="&#xd3;" horiz-adv-x="929" d="M35 606q0 47 2 102.5t9 108.5t18.5 101t29.5 83q59 117 154.5 188t206.5 71q53 0 104 -19.5t100 -60.5q53 -47 82 -110.5t52 -129.5q37 -109 65.5 -221.5t28.5 -222.5q0 -86 -30 -176.5t-90 -163t-149.5 -118.5t-207.5 -46q-78 0 -146 22q-63 23 -105 79.5t-67.5 124 t-37 133t-13.5 106.5q-2 10 -4 50t-2 99zM94 563q0 -98 15.5 -194.5t58.5 -184.5q16 -31 40.5 -50t51.5 -42q-43 27 -72.5 85.5t-49 127t-30 138t-14.5 120.5zM160 719q0 -43 6 -86t16 -94q-6 55 -6 108q0 117 27.5 217.5t87.5 194.5q6 10 10 17t10 14q-59 -23 -89 -82 t-42 -125q-20 -88 -20 -164zM162 1004q37 78 111.5 121.5t170.5 60.5q-16 4 -31.5 8t-31.5 4q-4 0 -9.5 -1t-9.5 -1q-31 -6 -61.5 -23.5t-57 -43t-48 -58.5t-33.5 -67zM252 348q12 -66 29 -119l22 -45l19 -16l-15 29q-16 31 -30.5 69.5t-24.5 81.5zM266 717q2 -74 5 -135.5 t11.5 -120t24 -115.5t39.5 -123q0 -4 2 -6q-6 35 -14 85t-15.5 108.5t-12.5 123t-5 130.5q0 129 24.5 243.5t92.5 182.5l6 6q-41 -18 -68.5 -65.5t-47 -105t-30 -114.5t-12.5 -94zM279 1403q0 6 26.5 42t64.5 84t81 100t74 89q8 6 18 6q14 0 31.5 -12t31 -27.5t22.5 -33 t9 -25.5q0 -6 -8 -14q-61 -57 -121.5 -101.5t-106.5 -73t-74 -44t-24 -15.5q-10 0 -17 7t-7 18zM352 604q0 -127 14.5 -243.5t36.5 -194.5q8 -29 23.5 -51.5t24.5 -51.5q86 31 151.5 87.5t108.5 129t64.5 155.5t21.5 169q0 88 -23 174q-8 31 -29.5 84t-53.5 105.5t-76 90.5 t-99 38q-47 0 -77.5 -48.5t-50 -121t-28 -158.5t-8.5 -164zM467 1544q64 39 121 90q-2 0 -5 3l-5 5q-31 -20 -57.5 -45.5t-53.5 -52.5zM573 1171q41 -35 69 -64.5t46.5 -57t31.5 -53t25 -50.5q-31 76 -72.5 138.5t-90.5 95.5h-2zM651 94q16 10 30 21.5t26 25.5 q68 70 100.5 160t36.5 188q-4 -18 -8.5 -34.5t-14.5 -26.5q-18 -82 -59 -156.5t-100 -134.5v-10q-2 -10 -4.5 -17.5t-6.5 -15.5zM745 946q2 -2 1.5 -4t1.5 -2v2q0 2 -1.5 2t-1.5 2z" />
<glyph unicode="&#xd4;" horiz-adv-x="929" d="M35 606q0 47 2 102.5t9 108.5t18.5 101t29.5 83q59 117 154.5 188t206.5 71q53 0 104 -19.5t100 -60.5q53 -47 82 -110.5t52 -129.5q37 -109 65.5 -221.5t28.5 -222.5q0 -86 -30 -176.5t-90 -163t-149.5 -118.5t-207.5 -46q-78 0 -146 22q-63 23 -105 79.5t-67.5 124 t-37 133t-13.5 106.5q-2 10 -4 50t-2 99zM94 563q0 -98 15.5 -194.5t58.5 -184.5q16 -31 40.5 -50t51.5 -42q-43 27 -72.5 85.5t-49 127t-30 138t-14.5 120.5zM160 719q0 -43 6 -86t16 -94q-6 55 -6 108q0 117 27.5 217.5t87.5 194.5q6 10 10 17t10 14q-59 -23 -89 -82 t-42 -125q-20 -88 -20 -164zM162 1004q37 78 111.5 121.5t170.5 60.5q-16 4 -31.5 8t-31.5 4q-4 0 -9.5 -1t-9.5 -1q-31 -6 -61.5 -23.5t-57 -43t-48 -58.5t-33.5 -67zM252 348q12 -66 29 -119l22 -45l19 -16l-15 29q-16 31 -30.5 69.5t-24.5 81.5zM254 1425q0 6 6 18.5 t10 20.5q23 23 41 44.5t36.5 47t39 56t47.5 69.5q0 -2 9 9.5t20 11.5q2 0 18 -20.5t42 -54.5t59.5 -77t72.5 -88q10 -10 10 -18q0 -23 -26 -23q-8 0 -26.5 12.5t-42 31t-49.5 36.5t-46 31q-10 -2 -34.5 -17.5t-54.5 -36t-61 -40t-51 -27.5q-20 0 -20 14zM266 717 q2 -74 5 -135.5t11.5 -120t24 -115.5t39.5 -123q0 -4 2 -6q-6 35 -14 85t-15.5 108.5t-12.5 123t-5 130.5q0 129 24.5 243.5t92.5 182.5l6 6q-41 -18 -68.5 -65.5t-47 -105t-30 -114.5t-12.5 -94zM352 604q0 -127 14.5 -243.5t36.5 -194.5q8 -29 23.5 -51.5t24.5 -51.5 q86 31 151.5 87.5t108.5 129t64.5 155.5t21.5 169q0 88 -23 174q-8 31 -29.5 84t-53.5 105.5t-76 90.5t-99 38q-47 0 -77.5 -48.5t-50 -121t-28 -158.5t-8.5 -164zM356 1499q12 14 25.5 25.5t25.5 21.5l-6 2q-23 -18 -37 -37zM440 1620l16 8q-4 4 -4 8zM452 1581 q27 -6 47 -19l-26 37q-2 -6 -10 -10zM573 1171q41 -35 69 -64.5t46.5 -57t31.5 -53t25 -50.5q-31 76 -72.5 138.5t-90.5 95.5h-2zM651 94q16 10 30 21.5t26 25.5q68 70 100.5 160t36.5 188q-4 -18 -8.5 -34.5t-14.5 -26.5q-18 -82 -59 -156.5t-100 -134.5v-10 q-2 -10 -4.5 -17.5t-6.5 -15.5zM745 946q2 -2 1.5 -4t1.5 -2v2q0 2 -1.5 2t-1.5 2z" />
<glyph unicode="&#xd5;" horiz-adv-x="929" d="M35 606q0 47 2 102.5t9 108.5t18.5 101t29.5 83q59 117 154.5 188t206.5 71q53 0 104 -19.5t100 -60.5q53 -47 82 -110.5t52 -129.5q37 -109 65.5 -221.5t28.5 -222.5q0 -86 -30 -176.5t-90 -163t-149.5 -118.5t-207.5 -46q-78 0 -146 22q-63 23 -105 79.5t-67.5 124 t-37 133t-13.5 106.5q-2 10 -4 50t-2 99zM94 563q0 -98 15.5 -194.5t58.5 -184.5q16 -31 40.5 -50t51.5 -42q-43 27 -72.5 85.5t-49 127t-30 138t-14.5 120.5zM160 719q0 -43 6 -86t16 -94q-6 55 -6 108q0 117 27.5 217.5t87.5 194.5q6 10 10 17t10 14q-59 -23 -89 -82 t-42 -125q-20 -88 -20 -164zM162 1004q37 78 111.5 121.5t170.5 60.5q-16 4 -31.5 8t-31.5 4q-4 0 -9.5 -1t-9.5 -1q-31 -6 -61.5 -23.5t-57 -43t-48 -58.5t-33.5 -67zM242 1431q0 27 18.5 70t46 84t62.5 70.5t67 29.5q27 0 48.5 -25.5t39 -55t32.5 -55t34 -25.5 q14 0 29.5 21.5t33.5 74.5q6 14 21 14q20 0 20 -20q0 -6 -2 -11q-49 -143 -116 -143q-59 0 -127 111q-27 -16 -36 -50t-14 -61q16 -4 17 -16q0 -23 -25 -29q-23 -4 -47 -8t-49 -4q-16 0 -34.5 3t-18.5 25zM252 348q12 -66 29 -119l22 -45l19 -16l-15 29q-16 31 -30.5 69.5 t-24.5 81.5zM266 717q2 -74 5 -135.5t11.5 -120t24 -115.5t39.5 -123q0 -4 2 -6q-6 35 -14 85t-15.5 108.5t-12.5 123t-5 130.5q0 129 24.5 243.5t92.5 182.5l6 6q-41 -18 -68.5 -65.5t-47 -105t-30 -114.5t-12.5 -94zM291 1452h29q4 33 13 69.5t28 65.5 q-29 -29 -47.5 -64.5t-22.5 -70.5zM352 604q0 -127 14.5 -243.5t36.5 -194.5q8 -29 23.5 -51.5t24.5 -51.5q86 31 151.5 87.5t108.5 129t64.5 155.5t21.5 169q0 88 -23 174q-8 31 -29.5 84t-53.5 105.5t-76 90.5t-99 38q-47 0 -77.5 -48.5t-50 -121t-28 -158.5t-8.5 -164z M379 1540q8 16 17.5 30.5t19.5 28.5q-12 -10 -21.5 -25.5t-15.5 -33.5zM573 1171q41 -35 69 -64.5t46.5 -57t31.5 -53t25 -50.5q-31 76 -72.5 138.5t-90.5 95.5h-2zM651 94q16 10 30 21.5t26 25.5q68 70 100.5 160t36.5 188q-4 -18 -8.5 -34.5t-14.5 -26.5 q-18 -82 -59 -156.5t-100 -134.5v-10q-2 -10 -4.5 -17.5t-6.5 -15.5zM745 946q2 -2 1.5 -4t1.5 -2v2q0 2 -1.5 2t-1.5 2z" />
<glyph unicode="&#xd6;" horiz-adv-x="929" d="M35 606q0 47 2 102.5t9 108.5t18.5 101t29.5 83q59 117 154.5 188t206.5 71q53 0 104 -19.5t100 -60.5q53 -47 82 -110.5t52 -129.5q37 -109 65.5 -221.5t28.5 -222.5q0 -86 -30 -176.5t-90 -163t-149.5 -118.5t-207.5 -46q-78 0 -146 22q-63 23 -105 79.5t-67.5 124 t-37 133t-13.5 106.5q-2 10 -4 50t-2 99zM94 563q0 -98 15.5 -194.5t58.5 -184.5q16 -31 40.5 -50t51.5 -42q-43 27 -72.5 85.5t-49 127t-30 138t-14.5 120.5zM160 719q0 -43 6 -86t16 -94q-6 55 -6 108q0 117 27.5 217.5t87.5 194.5q6 10 10 17t10 14q-59 -23 -89 -82 t-42 -125q-20 -88 -20 -164zM162 1004q37 78 111.5 121.5t170.5 60.5q-16 4 -31.5 8t-31.5 4q-4 0 -9.5 -1t-9.5 -1q-31 -6 -61.5 -23.5t-57 -43t-48 -58.5t-33.5 -67zM252 348q12 -66 29 -119l22 -45l19 -16l-15 29q-16 31 -30.5 69.5t-24.5 81.5zM266 717q2 -74 5 -135.5 t11.5 -120t24 -115.5t39.5 -123q0 -4 2 -6q-6 35 -14 85t-15.5 108.5t-12.5 123t-5 130.5q0 129 24.5 243.5t92.5 182.5l6 6q-41 -18 -68.5 -65.5t-47 -105t-30 -114.5t-12.5 -94zM277 1519q0 35 27.5 65t62.5 30q23 0 49.5 -16.5t26.5 -51.5t-30 -69.5t-64 -34.5 q-15 0 -31 10q-41 27 -41 67zM328 1515q6 -25 31 -24q10 0 16 4q-37 2 -47 20zM352 604q0 -127 14.5 -243.5t36.5 -194.5q8 -29 23.5 -51.5t24.5 -51.5q86 31 151.5 87.5t108.5 129t64.5 155.5t21.5 169q0 88 -23 174q-8 31 -29.5 84t-53.5 105.5t-76 90.5t-99 38 q-47 0 -77.5 -48.5t-50 -121t-28 -158.5t-8.5 -164zM361 1552q0 -14 35 -14l-6 14q-16 4 -21 4q-8 0 -8 -4zM512 1540q0 31 25.5 57.5t54.5 38.5h4q35 0 57.5 -24.5t22.5 -40.5q0 -35 -32.5 -65t-67.5 -30t-49.5 25t-14.5 39zM555 1540q13 -16 29 -16q-10 4 -16 8t-13 8z M573 1171q41 -35 69 -64.5t46.5 -57t31.5 -53t25 -50.5q-31 76 -72.5 138.5t-90.5 95.5h-2zM594 1571q8 -6 16.5 -8.5t18.5 -4.5q-4 20 -16 21q-9 0 -19 -8zM651 94q16 10 30 21.5t26 25.5q68 70 100.5 160t36.5 188q-4 -18 -8.5 -34.5t-14.5 -26.5q-18 -82 -59 -156.5 t-100 -134.5v-10q-2 -10 -4.5 -17.5t-6.5 -15.5zM745 946q2 -2 1.5 -4t1.5 -2v2q0 2 -1.5 2t-1.5 2z" />
<glyph unicode="&#xd7;" d="M70 817q0 10 10 15.5t20 5.5q6 0 33 -26t66 -68t87 -96t96 -108.5t92 -106.5t75 -91q8 -12 8 -18q0 -10 -16 -11q-12 0 -27 6q-14 12 -47 49.5t-76 84.5t-91 101l-92 103.5t-79 88.5t-51 57q-8 8 -8 14zM76 332q0 6 2 10q33 39 84 103.5t108.5 134t111.5 132t91 97.5 q6 6 19 6q27 0 26 -18q0 -6 -6 -13q-27 -29 -63.5 -74.5t-78.5 -99t-84 -105.5t-79 -95t-64.5 -70t-40.5 -27q-27 0 -26 19z" />
<glyph unicode="&#xd8;" horiz-adv-x="929" d="M35 606q0 47 2 102.5t9 108.5t18.5 101t29.5 83q59 117 154.5 188t206.5 71q53 0 104 -19.5t100 -60.5q53 -47 82 -110.5t52 -129.5q37 -109 65.5 -221.5t28.5 -222.5q0 -86 -30 -176.5t-90 -163t-149.5 -118.5t-207.5 -46q-78 0 -146 22q-63 23 -105 79.5t-67.5 124 t-37 133t-13.5 106.5q-2 10 -4 50t-2 99zM94 563q0 -98 15.5 -194.5t58.5 -184.5q16 -31 40.5 -50t51.5 -42q-43 27 -72.5 85.5t-49 127t-30 138t-14.5 120.5zM148 -96q0 4 2 8q25 66 66.5 169t92 228t106.5 262.5t108.5 269.5t96 249.5t72.5 203.5q4 10 12.5 16.5t16.5 6.5 q12 0 12 -14q0 -18 -9 -40t-13 -40l28 57q10 14 27 14q12 0 12 -14v-6q-43 -92 -98 -219t-114.5 -266.5t-119 -280.5t-109.5 -263t-89 -213t-57 -128h-2q-10 -16 -25 -17q-16 0 -16 17zM160 719q0 -43 6 -86t16 -94q-6 55 -6 108q0 117 27.5 217.5t87.5 194.5q6 10 10 17 t10 14q-59 -23 -89 -82t-42 -125q-20 -88 -20 -164zM162 1004q37 78 111.5 121.5t170.5 60.5q-16 4 -31.5 8t-31.5 4q-4 0 -9.5 -1t-9.5 -1q-31 -6 -61.5 -23.5t-57 -43t-48 -58.5t-33.5 -67zM252 348q12 -66 29 -119l22 -45l19 -16l-15 29q-16 31 -30.5 69.5t-24.5 81.5z M266 717q2 -74 5 -135.5t11.5 -120t24 -115.5t39.5 -123q0 -4 2 -6q-6 35 -14 85t-15.5 108.5t-12.5 123t-5 130.5q0 129 24.5 243.5t92.5 182.5l6 6q-41 -18 -68.5 -65.5t-47 -105t-30 -114.5t-12.5 -94zM352 604q0 -127 14.5 -243.5t36.5 -194.5q8 -29 23.5 -51.5 t24.5 -51.5q86 31 151.5 87.5t108.5 129t64.5 155.5t21.5 169q0 88 -23 174q-8 31 -29.5 84t-53.5 105.5t-76 90.5t-99 38q-47 0 -77.5 -48.5t-50 -121t-28 -158.5t-8.5 -164zM573 1171q41 -35 69 -64.5t46.5 -57t31.5 -53t25 -50.5q-31 76 -72.5 138.5t-90.5 95.5h-2z M651 94q16 10 30 21.5t26 25.5q68 70 100.5 160t36.5 188q-4 -18 -8.5 -34.5t-14.5 -26.5q-18 -82 -59 -156.5t-100 -134.5v-10q-2 -10 -4.5 -17.5t-6.5 -15.5zM745 946q2 -2 1.5 -4t1.5 -2v2q0 2 -1.5 2t-1.5 2z" />
<glyph unicode="&#xd9;" horiz-adv-x="1015" d="M14 1171q0 8 8.5 17.5t18.5 11.5q8 0 24.5 2t60.5 7t130 13.5t236 24.5h6q16 0 16 -14q0 -8 -6 -16.5t-16 -10.5q-31 -8 -46.5 -47t-20.5 -97t-5 -130v-144q0 -111 8 -234.5t34.5 -228t77 -172t134.5 -67.5q55 0 88 35t49 93t21.5 132t5.5 152q0 86 -5.5 177t-12.5 179 t-14 169t-11 148q-49 -8 -78 -26q-4 -2 -10 -2q-16 0 -17 16q0 25 36 39t84 22.5t96 11.5t71 3q16 -2 16 -16t-13 -21.5t-34.5 -10.5t-50.5 -5t-57 -4q10 -154 26.5 -312.5t16.5 -318.5q0 -98 -8.5 -191.5t-30.5 -185.5q-8 -37 -45 -69.5t-89.5 -55t-117 -36t-127.5 -13.5 q-90 0 -167 27.5t-112 91.5q-55 125 -75.5 260t-20.5 276q0 131 11.5 261t19.5 253l-86 -8q-18 0 -19 14zM145 618q0 -45 3.5 -88t11.5 -86q2 4 8 5q-12 53 -16.5 112.5t-4.5 120.5q-2 -16 -2 -31.5v-32.5zM150 1026l30 141l-18 2zM176 240q10 -27 21.5 -50.5t25.5 -46.5 q33 -47 80 -73q-37 31 -59.5 55.5t-34.5 43.5t-19.5 35.5t-13.5 35.5zM188 776q0 -68 4.5 -139.5t16.5 -140t32.5 -129t51.5 -101.5l-4 23q-31 51 -50.5 123.5t-29.5 151.5t-13 158t-6 140q0 -20 -1 -41.5t-1 -44.5zM233 999q0 -59 3.5 -129.5t7.5 -137t9 -122t11 -82.5 q2 -12 4 -23t6 -24v66q-6 37 -11 87t-10 103.5t-8 104.5t-5 90l-7 69v-2zM262 244q27 -45 58.5 -81t66.5 -59l-6 11q-16 20 -40 37.5t-34 42.5q-20 18 -45 49zM272 1104q0 -72 5.5 -126t9.5 -79q4 66 7 130.5t3 129.5q0 9 6 21h-16q-6 -23 -10.5 -36.5t-4.5 -39.5zM313 674 q0 -49 3 -88t12 -64q-4 23 -4 49.5v55.5q0 66 3 135t7 127q0 8 4 46t12 86t17.5 94t21.5 73l-55 -6l6 -8v-11q-2 -37 -6 -95t-9.5 -124.5t-8.5 -137.5t-3 -132zM362 586q0 -113 22 -201t58 -162l-12 37q-37 84 -47 198.5t-10 231.5v51q-4 -41 -7.5 -79.5t-3.5 -75.5z M383 1626q0 8 9 25.5t23.5 33t31 27.5t30.5 12q6 0 28.5 -21.5t52.5 -54t62.5 -71.5t60 -75t45 -63.5t17.5 -35.5q0 -10 -8 -17.5t-20 -7.5q-6 0 -9 2q-8 4 -39.5 24.5t-76.5 51.5t-97.5 71t-101.5 85q-8 8 -8 14zM432 1634q57 -51 121 -90q-25 27 -52.5 52.5t-58.5 45.5 l-5 -5t-5 -3zM442 223q0 -4 2 -6q0 4 -2 6z" />
<glyph unicode="&#xda;" horiz-adv-x="1015" d="M14 1171q0 8 8.5 17.5t18.5 11.5q8 0 24.5 2t60.5 7t130 13.5t236 24.5h6q16 0 16 -14q0 -8 -6 -16.5t-16 -10.5q-31 -8 -46.5 -47t-20.5 -97t-5 -130v-144q0 -111 8 -234.5t34.5 -228t77 -172t134.5 -67.5q55 0 88 35t49 93t21.5 132t5.5 152q0 86 -5.5 177t-12.5 179 t-14 169t-11 148q-49 -8 -78 -26q-4 -2 -10 -2q-16 0 -17 16q0 25 36 39t84 22.5t96 11.5t71 3q16 -2 16 -16t-13 -21.5t-34.5 -10.5t-50.5 -5t-57 -4q10 -154 26.5 -312.5t16.5 -318.5q0 -98 -8.5 -191.5t-30.5 -185.5q-8 -37 -45 -69.5t-89.5 -55t-117 -36t-127.5 -13.5 q-90 0 -167 27.5t-112 91.5q-55 125 -75.5 260t-20.5 276q0 131 11.5 261t19.5 253l-86 -8q-18 0 -19 14zM145 618q0 -45 3.5 -88t11.5 -86q2 4 8 5q-12 53 -16.5 112.5t-4.5 120.5q-2 -16 -2 -31.5v-32.5zM150 1026l30 141l-18 2zM176 240q10 -27 21.5 -50.5t25.5 -46.5 q33 -47 80 -73q-37 31 -59.5 55.5t-34.5 43.5t-19.5 35.5t-13.5 35.5zM188 776q0 -68 4.5 -139.5t16.5 -140t32.5 -129t51.5 -101.5l-4 23q-31 51 -50.5 123.5t-29.5 151.5t-13 158t-6 140q0 -20 -1 -41.5t-1 -44.5zM233 999q0 -59 3.5 -129.5t7.5 -137t9 -122t11 -82.5 q2 -12 4 -23t6 -24v66q-6 37 -11 87t-10 103.5t-8 104.5t-5 90l-7 69v-2zM262 244q27 -45 58.5 -81t66.5 -59l-6 11q-16 20 -40 37.5t-34 42.5q-20 18 -45 49zM272 1104q0 -72 5.5 -126t9.5 -79q4 66 7 130.5t3 129.5q0 9 6 21h-16q-6 -23 -10.5 -36.5t-4.5 -39.5zM313 674 q0 -49 3 -88t12 -64q-4 23 -4 49.5v55.5q0 66 3 135t7 127q0 8 4 46t12 86t17.5 94t21.5 73l-55 -6l6 -8v-11q-2 -37 -6 -95t-9.5 -124.5t-8.5 -137.5t-3 -132zM362 586q0 -113 22 -201t58 -162l-12 37q-37 84 -47 198.5t-10 231.5v51q-4 -41 -7.5 -79.5t-3.5 -75.5z M442 223q0 -4 2 -6q0 4 -2 6zM445 1403q0 6 26.5 42t64.5 84t81 100t74 89q8 6 18 6q14 0 31.5 -12t31 -27.5t22.5 -33t9 -25.5q0 -6 -8 -14q-61 -57 -121.5 -101.5t-106.5 -73t-74 -44t-24 -15.5q-10 0 -17 7t-7 18zM633 1544q64 39 121 90q-2 0 -5 3l-5 5 q-31 -20 -57.5 -45.5t-53.5 -52.5z" />
<glyph unicode="&#xdb;" horiz-adv-x="1015" d="M14 1171q0 8 8.5 17.5t18.5 11.5q8 0 24.5 2t60.5 7t130 13.5t236 24.5h6q16 0 16 -14q0 -8 -6 -16.5t-16 -10.5q-31 -8 -46.5 -47t-20.5 -97t-5 -130v-144q0 -111 8 -234.5t34.5 -228t77 -172t134.5 -67.5q55 0 88 35t49 93t21.5 132t5.5 152q0 86 -5.5 177t-12.5 179 t-14 169t-11 148q-49 -8 -78 -26q-4 -2 -10 -2q-16 0 -17 16q0 25 36 39t84 22.5t96 11.5t71 3q16 -2 16 -16t-13 -21.5t-34.5 -10.5t-50.5 -5t-57 -4q10 -154 26.5 -312.5t16.5 -318.5q0 -98 -8.5 -191.5t-30.5 -185.5q-8 -37 -45 -69.5t-89.5 -55t-117 -36t-127.5 -13.5 q-90 0 -167 27.5t-112 91.5q-55 125 -75.5 260t-20.5 276q0 131 11.5 261t19.5 253l-86 -8q-18 0 -19 14zM145 618q0 -45 3.5 -88t11.5 -86q2 4 8 5q-12 53 -16.5 112.5t-4.5 120.5q-2 -16 -2 -31.5v-32.5zM150 1026l30 141l-18 2zM176 240q10 -27 21.5 -50.5t25.5 -46.5 q33 -47 80 -73q-37 31 -59.5 55.5t-34.5 43.5t-19.5 35.5t-13.5 35.5zM188 776q0 -68 4.5 -139.5t16.5 -140t32.5 -129t51.5 -101.5l-4 23q-31 51 -50.5 123.5t-29.5 151.5t-13 158t-6 140q0 -20 -1 -41.5t-1 -44.5zM233 999q0 -59 3.5 -129.5t7.5 -137t9 -122t11 -82.5 q2 -12 4 -23t6 -24v66q-6 37 -11 87t-10 103.5t-8 104.5t-5 90l-7 69v-2zM262 244q27 -45 58.5 -81t66.5 -59l-6 11q-16 20 -40 37.5t-34 42.5q-20 18 -45 49zM272 1104q0 -72 5.5 -126t9.5 -79q4 66 7 130.5t3 129.5q0 9 6 21h-16q-6 -23 -10.5 -36.5t-4.5 -39.5zM313 674 q0 -49 3 -88t12 -64q-4 23 -4 49.5v55.5q0 66 3 135t7 127q0 8 4 46t12 86t17.5 94t21.5 73l-55 -6l6 -8v-11q-2 -37 -6 -95t-9.5 -124.5t-8.5 -137.5t-3 -132zM362 586q0 -113 22 -201t58 -162l-12 37q-37 84 -47 198.5t-10 231.5v51q-4 -41 -7.5 -79.5t-3.5 -75.5z M404 1425q0 6 6 18.5t10 20.5q23 23 41 44.5t36.5 47t39 56t47.5 69.5q0 -2 9 9.5t20 11.5q2 0 18 -20.5t42 -54.5t59.5 -77t72.5 -88q10 -10 10 -18q0 -23 -26 -23q-8 0 -26.5 12.5t-42 31t-49.5 36.5t-46 31q-10 -2 -34.5 -17.5t-54.5 -36t-61 -40t-51 -27.5q-20 0 -20 14 zM442 223q0 -4 2 -6q0 4 -2 6zM506 1499q12 14 25.5 25.5t25.5 21.5l-6 2q-23 -18 -37 -37zM590 1620l16 8q-4 4 -4 8zM602 1581q27 -6 47 -19l-26 37q-2 -6 -10 -10z" />
<glyph unicode="&#xdc;" horiz-adv-x="1015" d="M14 1171q0 8 8.5 17.5t18.5 11.5q8 0 24.5 2t60.5 7t130 13.5t236 24.5h6q16 0 16 -14q0 -8 -6 -16.5t-16 -10.5q-31 -8 -46.5 -47t-20.5 -97t-5 -130v-144q0 -111 8 -234.5t34.5 -228t77 -172t134.5 -67.5q55 0 88 35t49 93t21.5 132t5.5 152q0 86 -5.5 177t-12.5 179 t-14 169t-11 148q-49 -8 -78 -26q-4 -2 -10 -2q-16 0 -17 16q0 25 36 39t84 22.5t96 11.5t71 3q16 -2 16 -16t-13 -21.5t-34.5 -10.5t-50.5 -5t-57 -4q10 -154 26.5 -312.5t16.5 -318.5q0 -98 -8.5 -191.5t-30.5 -185.5q-8 -37 -45 -69.5t-89.5 -55t-117 -36t-127.5 -13.5 q-90 0 -167 27.5t-112 91.5q-55 125 -75.5 260t-20.5 276q0 131 11.5 261t19.5 253l-86 -8q-18 0 -19 14zM145 618q0 -45 3.5 -88t11.5 -86q2 4 8 5q-12 53 -16.5 112.5t-4.5 120.5q-2 -16 -2 -31.5v-32.5zM150 1026l30 141l-18 2zM176 240q10 -27 21.5 -50.5t25.5 -46.5 q33 -47 80 -73q-37 31 -59.5 55.5t-34.5 43.5t-19.5 35.5t-13.5 35.5zM188 776q0 -68 4.5 -139.5t16.5 -140t32.5 -129t51.5 -101.5l-4 23q-31 51 -50.5 123.5t-29.5 151.5t-13 158t-6 140q0 -20 -1 -41.5t-1 -44.5zM233 999q0 -59 3.5 -129.5t7.5 -137t9 -122t11 -82.5 q2 -12 4 -23t6 -24v66q-6 37 -11 87t-10 103.5t-8 104.5t-5 90l-7 69v-2zM262 244q27 -45 58.5 -81t66.5 -59l-6 11q-16 20 -40 37.5t-34 42.5q-20 18 -45 49zM272 1104q0 -72 5.5 -126t9.5 -79q4 66 7 130.5t3 129.5q0 9 6 21h-16q-6 -23 -10.5 -36.5t-4.5 -39.5zM313 674 q0 -49 3 -88t12 -64q-4 23 -4 49.5v55.5q0 66 3 135t7 127q0 8 4 46t12 86t17.5 94t21.5 73l-55 -6l6 -8v-11q-2 -37 -6 -95t-9.5 -124.5t-8.5 -137.5t-3 -132zM362 586q0 -113 22 -201t58 -162l-12 37q-37 84 -47 198.5t-10 231.5v51q-4 -41 -7.5 -79.5t-3.5 -75.5z M416 1519q0 35 27.5 65t62.5 30q23 0 49.5 -16.5t26.5 -51.5t-30 -69.5t-64 -34.5q-15 0 -31 10q-41 27 -41 67zM442 223q0 -4 2 -6q0 4 -2 6zM467 1515q6 -25 31 -24q10 0 16 4q-37 2 -47 20zM500 1552q0 -14 35 -14l-6 14q-16 4 -21 4q-8 0 -8 -4zM651 1540 q0 31 25.5 57.5t54.5 38.5h4q35 0 57.5 -24.5t22.5 -40.5q0 -35 -32.5 -65t-67.5 -30t-49.5 25t-14.5 39zM694 1540q13 -16 29 -16q-10 4 -16 8t-13 8zM733 1571q8 -6 16.5 -8.5t18.5 -4.5q-4 20 -16 21q-9 0 -19 -8z" />
<glyph unicode="&#xdd;" horiz-adv-x="1128" d="M-25 1245q0 14 15 19l493 -15q16 -4 17 -16q0 -10 -9.5 -17.5t-21.5 -7.5h-20q23 -47 64.5 -130t86.5 -166t82 -148.5t49 -77.5l205 520q-41 0 -81 -2t-75 -18q-4 -2 -10 -2q-14 0 -14 12q0 18 23.5 28.5t63.5 15.5t92 7t109 2q35 0 56.5 -1t21.5 -17q0 -12 -11 -18.5 t-26.5 -9.5t-33 -3h-31.5q-10 0 -20.5 1t-20.5 1l-223 -624l14 -531q59 0 117.5 2t118.5 2q16 -6 16 -16q0 -20 -17.5 -24.5t-58.5 -4.5q-23 0 -52.5 1t-66.5 1q-82 0 -198.5 -2t-274.5 -10q-20 0 -20 16q0 8 8 16.5t18 10.5q35 0 69 -1t69 -1l-39 545q-12 18 -38 65 t-57.5 107.5t-67.5 129t-72 131t-66.5 114t-53.5 77.5l-10 4q-12 2 -12 13l-92 2q-14 6 -15 20zM246 1196q12 -10 32.5 -44t46 -81t54.5 -103.5t58.5 -109.5t56 -99t47.5 -75q-4 4 -22.5 44t-45.5 95.5t-56.5 119t-56 116.5t-46 89t-23.5 36q-6 6 -21 6h-8q-8 0 -16 6z M250 1085q12 -16 28.5 -45.5t34 -62.5t34 -65t28.5 -50q-12 20 -27.5 52t-33 65t-34 61.5t-30.5 44.5zM422 1147q57 -127 101 -219t77 -156.5t55.5 -104.5t36.5 -65l2 -2q4 0 5 15.5t1 29.5q-6 10 -36.5 62.5t-71.5 126t-86 158.5t-84 159v-4zM475 1403q0 6 26.5 42t64.5 84 t81 100t74 89q8 6 18 6q14 0 31.5 -12t31 -27.5t22.5 -33t9 -25.5q0 -6 -8 -14q-61 -57 -121.5 -101.5t-106.5 -73t-74 -44t-24 -15.5q-10 0 -17 7t-7 18zM532 553q6 -82 11.5 -160t7.5 -164q0 92 1 143.5t3 79t3 41t1 29.5zM580 39l24 2q-4 12 -5 45t-2 72t-2 77t-1 56 q-2 -16 -3 -51t-3 -74t-4 -75t-4 -52zM657 57l29 9q-4 4 -6 37.5t-4 83t-3 106.5t-2 107.5t-2 88t-3 46.5q0 -4 1 -15.5t1 -30.5q0 -43 -2 -109.5t-3 -131t-3.5 -115.5t-2.5 -61v-15zM663 1544q64 39 121 90q-2 0 -5 3l-5 5q-31 -20 -57.5 -45.5t-53.5 -52.5z" />
<glyph unicode="&#xde;" horiz-adv-x="976" d="M14 1153q0 8 8.5 17.5t18.5 11.5h6q14 0 50 3l84 7t104.5 7t115.5 3h35t40.5 -1t32.5 -5t13 -12t-7 -16.5t-17 -12.5h-88q0 -152 14.5 -283t30.5 -266q4 -84 9 -164t10 -148.5t9 -122.5t6 -87q12 0 37 -2t49.5 -7t43 -13.5t18.5 -22.5q0 -10 -8 -17.5t-19 -7.5 q-18 0 -56 8.5t-87 8.5q-84 0 -179 -6.5t-155 -6.5h-31.5t-19.5 5h-4q-18 0 -19 10q0 14 23 33h10q29 -4 43.5 -6.5t18.5 -2.5q6 0 6 4t-3 14.5t-3 28.5q0 63 2 128t6 130q-2 31 -2 63v62q0 111 3 217.5t5 217.5q-4 55 -11 110t-20 107h-104q-18 0 -19 14zM211 236.5 q0 -15.5 4 -29.5q12 135 17.5 269t5.5 269q0 70 -4.5 138.5t-18.5 134.5v-78q4 -49 4 -100.5v-102.5v-121q0 -90 -1 -176t-7 -174v-29.5zM219 1143l12 -25l60 -168l-43 193h-29zM236 57q10 0 14 2l6 150q-2 -6 -5 -28.5t-6 -47t-5 -46t-4 -30.5zM287 328l6 -260l-2 -2l24 2 q-4 6 -8 44t-8 83t-7 83.5t-5 49.5zM299 909q0 -10 14 -16q29 -2 79 -3t109.5 -6t122 -14.5t112.5 -29t82 -49t32 -74.5q-4 -102 -58.5 -173t-127 -115t-149.5 -64.5t-122 -20.5q-20 0 -26.5 6t-14.5 6q-10 0 -17 -11t-7 -26q0 -27 59 -26q37 0 89 11t109.5 34.5t115 57.5 t102.5 79t72.5 100.5t27.5 122.5q0 76 -45 123t-113.5 74t-151.5 36t-159 9h-46t-42.5 -2t-33 -8t-13.5 -21zM299 1145q2 -4 4 -36t4 -68.5t4 -68.5t2 -38l2 170q0 10 1 21.5t1 21.5zM313 594l4 -41q4 -47 8.5 -102.5t9.5 -112.5t9 -110.5t8 -94.5q-10 141 -16 283.5 t-10 285.5zM360 1010q0 -53 3.5 -100.5t3.5 -98.5q6 -174 18 -342l14 29q-12 150 -21 297t-11 297q-4 -16 -5.5 -38t-1.5 -44zM383 78h14.5t16.5 2v39v80q0 35 -1 85t-5 128q-10 -14 -19 -17q4 -72 7 -145.5t3 -149.5q-4 -14 -16 -22z" />
<glyph unicode="&#xdf;" horiz-adv-x="933" d="M27 12q0 8 8 17.5t18 11.5h33q-4 104 -9 223t-5 230q0 113 6 214t32.5 187t81 155.5t152.5 118.5q41 14 94.5 27.5t124.5 13.5q53 0 101.5 -21.5t84 -56t57 -78.5t21.5 -89q0 -35 -21.5 -78t-50 -86t-57 -80t-43.5 -57q-16 -25 -36.5 -54.5t-26.5 -62.5q25 -23 74 -39 t99 -48t88 -89.5t38 -163.5q-6 -55 -34 -94t-67.5 -64.5t-90 -38t-103.5 -12.5q-16 0 -46 2t-57.5 7t-48 13.5t-20.5 20.5q0 10 8 17.5t21 7.5q10 0 43.5 -10.5t74.5 -10.5q104 0 170 46t66 145q0 63 -41 102t-90 69.5t-90 60.5t-41 77q0 31 26.5 76t62.5 93t71.5 94 t52.5 81q10 18 16 35.5t6 38.5q0 25 -15 54.5t-41 57t-60.5 46t-73.5 18.5q-29 0 -61.5 -16.5t-55.5 -37.5q-55 -47 -87 -108.5t-48 -130t-20.5 -140t-6.5 -139.5q-2 -23 -2 -47v-51q0 -104 4 -218t9 -212q12 -4 12 -14t-9.5 -18.5t-21.5 -8.5h-258q-18 0 -18 14zM129 43 l4 -2zM129 360l10 39v100.5t4 100.5q-4 -25 -6 -56.5t-3 -64.5t-2 -63.5t-3 -55.5zM137 807q35 119 88 213l19 27q-47 -51 -70.5 -113t-36.5 -127zM143 164q0 -18 11.5 -44.5t15.5 -49.5q0 -2 1 -4.5t1 -4.5q0 -16 -12 -20h20q-10 43 -18 92t-12 103q-2 -18 -4.5 -37 t-2.5 -35zM190 623q12 61 29 127.5t38.5 131t51 124t72.5 108.5q10 12 21.5 14.5t27.5 22.5q-18 0 -32.5 -9t-26 -21.5t-18.5 -24t-11 -15.5q-72 -80 -106.5 -201.5t-45.5 -256.5zM193 291q2 -51 10 -82t16 -72q2 10 3 21.5t1 23.5q0 43 -7 88t-9 82q0 12 -1 33t-1 42.5 v41.5v35q-6 -41 -9 -95.5t-3 -93.5v-24zM225 41h54q-2 10 -2.5 19.5t-0.5 19.5q-4 -10 -12 -17.5t-16 -7.5q-14 0 -15 19v8q-4 -4 -8 -4v-37zM688 457q53 -37 101.5 -87t58.5 -126q-4 51 -18.5 87t-37 59.5t-50 38.5t-54.5 28z" />
<glyph unicode="&#xe0;" horiz-adv-x="917" d="M8 20q0 23 27 23q4 0 10 -1t10 -1q10 0 26.5 1t57.5 3v8q0 25 11.5 92.5t29 160.5t39 207t42 230.5t38.5 231.5t29 211q-6 -2 -21 -2q-16 0 -32.5 6t-16.5 20q0 29 27 29q4 0 12 -4l2 -6q16 6 51 11t77 9t87 6t80 2q47 0 59.5 -3t12.5 -13q0 -18 -21 -29h-4q6 -2 8 -14 q2 -74 9.5 -154.5t17.5 -162.5t23.5 -163t27.5 -151l51 11h8q12 0 13 -13q0 -8 -5.5 -16t-15.5 -12l-45 -11l90 -467h58q16 -4 16 -14q0 -20 -22.5 -25.5t-54.5 -5.5t-66 -1t-54 -13q-8 -4 -10 -4q-16 0 -16 20q0 8 13 15.5t29.5 12.5t34 9t23.5 4l-98 461q-41 -6 -89 -10 t-89 -4l-19 -117v12q-6 -37 -13 -82t-14.5 -91t-13.5 -91t-8 -82h23q16 -4 16 -16q0 -20 -25 -27l-16 -6h-414q-6 6 -6 16zM182 43h19q8 92 22.5 194.5t32.5 207t42 205t50 190.5q20 92 21.5 178t5.5 176h-4zM246 41h12q2 45 11.5 102.5t20.5 110.5t21.5 95t14.5 59l14 188 l-10 -61q-23 -127 -39.5 -248t-44.5 -246zM332 41l16 80l-12 -8zM334 1618q0 8 9 25.5t23.5 33t31 27.5t30.5 12q6 0 28.5 -21.5t52.5 -54t62.5 -71.5t60 -75t45 -63.5t17.5 -35.5q0 -10 -8 -17.5t-20 -7.5q-6 0 -9 2q-8 4 -39.5 24.5t-76.5 51.5t-97.5 71t-101.5 85 q-8 8 -8 14zM360 373q0 -2 2 -2l3 2v-2q0 -2 1 -3t1 -3v-7q18 63 25 124t16 126l-27 -141l-19 -80q0 -4 -1 -6t-1 -4v-4zM375 45l8 2q2 45 12 92v11q-4 -29 -9 -54.5t-11 -50.5zM383 1626q57 -51 121 -90q-25 27 -52.5 52.5t-58.5 45.5l-5 -5t-5 -3zM389 711q4 25 11.5 58.5 t14.5 70.5t13 72.5t10 62.5q-8 -31 -15 -60.5t-15 -60.5zM416 1133h10l4 59q0 4 3 7t5 7h-10q-6 0 -9 -8t-3 -20.5v-24.5v-20zM436 401q4 27 8.5 51.5t4.5 51.5zM453 537l12 8l33 184q6 41 11 93t11 106.5t14.5 106.5t20.5 93v11q-16 -49 -30.5 -108.5t-26 -121t-20.5 -121 t-15 -110.5q6 -4 6 -12q0 -18 -6 -53t-10 -76zM471 1202v4v-4zM496 1081q8 23 16 46.5t16 46.5q10 14 23 14v12q-10 -4 -22.5 -10t-22.5 -10q0 -2 1 -2t1 -4zM508 547q35 2 80 6t78 8q-12 57 -22.5 125t-20 137.5t-16.5 137t-13 126.5q-4 -31 -9 -60.5t-7 -55.5l-15 -101 l-22 -133q-6 -49 -14.5 -96t-18.5 -94z" />
<glyph unicode="&#xe1;" horiz-adv-x="917" d="M8 20q0 23 27 23q4 0 10 -1t10 -1q10 0 26.5 1t57.5 3v8q0 25 11.5 92.5t29 160.5t39 207t42 230.5t38.5 231.5t29 211q-6 -2 -21 -2q-16 0 -32.5 6t-16.5 20q0 29 27 29q4 0 12 -4l2 -6q16 6 51 11t77 9t87 6t80 2q47 0 59.5 -3t12.5 -13q0 -18 -21 -29h-4q6 -2 8 -14 q2 -74 9.5 -154.5t17.5 -162.5t23.5 -163t27.5 -151l51 11h8q12 0 13 -13q0 -8 -5.5 -16t-15.5 -12l-45 -11l90 -467h58q16 -4 16 -14q0 -20 -22.5 -25.5t-54.5 -5.5t-66 -1t-54 -13q-8 -4 -10 -4q-16 0 -16 20q0 8 13 15.5t29.5 12.5t34 9t23.5 4l-98 461q-41 -6 -89 -10 t-89 -4l-19 -117v12q-6 -37 -13 -82t-14.5 -91t-13.5 -91t-8 -82h23q16 -4 16 -16q0 -20 -25 -27l-16 -6h-414q-6 6 -6 16zM182 43h19q8 92 22.5 194.5t32.5 207t42 205t50 190.5q20 92 21.5 178t5.5 176h-4zM246 41h12q2 45 11.5 102.5t20.5 110.5t21.5 95t14.5 59l14 188 l-10 -61q-23 -127 -39.5 -248t-44.5 -246zM322 1395q0 6 26.5 42t64.5 84t81 100t74 89q8 6 18 6q14 0 31.5 -12t31 -27.5t22.5 -33t9 -25.5q0 -6 -8 -14q-61 -57 -121.5 -101.5t-106.5 -73t-74 -44t-24 -15.5q-10 0 -17 7t-7 18zM332 41l16 80l-12 -8zM360 373q0 -2 2 -2 l3 2v-2q0 -2 1 -3t1 -3v-7q18 63 25 124t16 126l-27 -141l-19 -80q0 -4 -1 -6t-1 -4v-4zM375 45l8 2q2 45 12 92v11q-4 -29 -9 -54.5t-11 -50.5zM389 711q4 25 11.5 58.5t14.5 70.5t13 72.5t10 62.5q-8 -31 -15 -60.5t-15 -60.5zM416 1133h10l4 59q0 4 3 7t5 7h-10 q-6 0 -9 -8t-3 -20.5v-24.5v-20zM436 401q4 27 8.5 51.5t4.5 51.5zM453 537l12 8l33 184q6 41 11 93t11 106.5t14.5 106.5t20.5 93v11q-16 -49 -30.5 -108.5t-26 -121t-20.5 -121t-15 -110.5q6 -4 6 -12q0 -18 -6 -53t-10 -76zM471 1202v4v-4zM496 1081q8 23 16 46.5 t16 46.5q10 14 23 14v12q-10 -4 -22.5 -10t-22.5 -10q0 -2 1 -2t1 -4zM508 547q35 2 80 6t78 8q-12 57 -22.5 125t-20 137.5t-16.5 137t-13 126.5q-4 -31 -9 -60.5t-7 -55.5l-15 -101l-22 -133q-6 -49 -14.5 -96t-18.5 -94zM510 1536q64 39 121 90q-2 0 -5 3l-5 5 q-31 -20 -57.5 -45.5t-53.5 -52.5z" />
<glyph unicode="&#xe2;" horiz-adv-x="917" d="M8 20q0 23 27 23q4 0 10 -1t10 -1q10 0 26.5 1t57.5 3v8q0 25 11.5 92.5t29 160.5t39 207t42 230.5t38.5 231.5t29 211q-6 -2 -21 -2q-16 0 -32.5 6t-16.5 20q0 29 27 29q4 0 12 -4l2 -6q16 6 51 11t77 9t87 6t80 2q47 0 59.5 -3t12.5 -13q0 -18 -21 -29h-4q6 -2 8 -14 q2 -74 9.5 -154.5t17.5 -162.5t23.5 -163t27.5 -151l51 11h8q12 0 13 -13q0 -8 -5.5 -16t-15.5 -12l-45 -11l90 -467h58q16 -4 16 -14q0 -20 -22.5 -25.5t-54.5 -5.5t-66 -1t-54 -13q-8 -4 -10 -4q-16 0 -16 20q0 8 13 15.5t29.5 12.5t34 9t23.5 4l-98 461q-41 -6 -89 -10 t-89 -4l-19 -117v12q-6 -37 -13 -82t-14.5 -91t-13.5 -91t-8 -82h23q16 -4 16 -16q0 -20 -25 -27l-16 -6h-414q-6 6 -6 16zM182 43h19q8 92 22.5 194.5t32.5 207t42 205t50 190.5q20 92 21.5 178t5.5 176h-4zM246 41h12q2 45 11.5 102.5t20.5 110.5t21.5 95t14.5 59l14 188 l-10 -61q-23 -127 -39.5 -248t-44.5 -246zM295 1417q0 6 6 18.5t10 20.5q23 23 41 44.5t36.5 47t39 56t47.5 69.5q0 -2 9 9.5t20 11.5q2 0 18 -20.5t42 -54.5t59.5 -77t72.5 -88q10 -10 10 -18q0 -23 -26 -23q-8 0 -26.5 12.5t-42 31t-49.5 36.5t-46 31q-10 -2 -34.5 -17.5 t-54.5 -36t-61 -40t-51 -27.5q-20 0 -20 14zM332 41l16 80l-12 -8zM360 373q0 -2 2 -2l3 2v-2q0 -2 1 -3t1 -3v-7q18 63 25 124t16 126l-27 -141l-19 -80q0 -4 -1 -6t-1 -4v-4zM375 45l8 2q2 45 12 92v11q-4 -29 -9 -54.5t-11 -50.5zM389 711q4 25 11.5 58.5t14.5 70.5 t13 72.5t10 62.5q-8 -31 -15 -60.5t-15 -60.5zM397 1491q12 14 25.5 25.5t25.5 21.5l-6 2q-23 -18 -37 -37zM416 1133h10l4 59q0 4 3 7t5 7h-10q-6 0 -9 -8t-3 -20.5v-24.5v-20zM436 401q4 27 8.5 51.5t4.5 51.5zM453 537l12 8l33 184q6 41 11 93t11 106.5t14.5 106.5 t20.5 93v11q-16 -49 -30.5 -108.5t-26 -121t-20.5 -121t-15 -110.5q6 -4 6 -12q0 -18 -6 -53t-10 -76zM471 1202v4v-4zM481 1612l16 8q-4 4 -4 8zM493 1573q27 -6 47 -19l-26 37q-2 -6 -10 -10zM496 1081q8 23 16 46.5t16 46.5q10 14 23 14v12q-10 -4 -22.5 -10t-22.5 -10 q0 -2 1 -2t1 -4zM508 547q35 2 80 6t78 8q-12 57 -22.5 125t-20 137.5t-16.5 137t-13 126.5q-4 -31 -9 -60.5t-7 -55.5l-15 -101l-22 -133q-6 -49 -14.5 -96t-18.5 -94z" />
<glyph unicode="&#xe3;" horiz-adv-x="917" d="M8 20q0 23 27 23q4 0 10 -1t10 -1q10 0 26.5 1t57.5 3v8q0 25 11.5 92.5t29 160.5t39 207t42 230.5t38.5 231.5t29 211q-6 -2 -21 -2q-16 0 -32.5 6t-16.5 20q0 29 27 29q4 0 12 -4l2 -6q16 6 51 11t77 9t87 6t80 2q47 0 59.5 -3t12.5 -13q0 -18 -21 -29h-4q6 -2 8 -14 q2 -74 9.5 -154.5t17.5 -162.5t23.5 -163t27.5 -151l51 11h8q12 0 13 -13q0 -8 -5.5 -16t-15.5 -12l-45 -11l90 -467h58q16 -4 16 -14q0 -20 -22.5 -25.5t-54.5 -5.5t-66 -1t-54 -13q-8 -4 -10 -4q-16 0 -16 20q0 8 13 15.5t29.5 12.5t34 9t23.5 4l-98 461q-41 -6 -89 -10 t-89 -4l-19 -117v12q-6 -37 -13 -82t-14.5 -91t-13.5 -91t-8 -82h23q16 -4 16 -16q0 -20 -25 -27l-16 -6h-414q-6 6 -6 16zM182 43h19q8 92 22.5 194.5t32.5 207t42 205t50 190.5q20 92 21.5 178t5.5 176h-4zM246 41h12q2 45 11.5 102.5t20.5 110.5t21.5 95t14.5 59l14 188 l-10 -61q-23 -127 -39.5 -248t-44.5 -246zM283 1423q0 27 18.5 70t46 84t62.5 70.5t67 29.5q27 0 48.5 -25.5t39 -55t32.5 -55t34 -25.5q14 0 29.5 21.5t33.5 74.5q6 14 21 14q20 0 20 -20q0 -6 -2 -11q-49 -143 -116 -143q-59 0 -127 111q-27 -16 -36 -50t-14 -61 q16 -4 17 -16q0 -23 -25 -29q-23 -4 -47 -8t-49 -4q-16 0 -34.5 3t-18.5 25zM332 41l16 80l-12 -8zM332 1444h29q4 33 13 69.5t28 65.5q-29 -29 -47.5 -64.5t-22.5 -70.5zM360 373q0 -2 2 -2l3 2v-2q0 -2 1 -3t1 -3v-7q18 63 25 124t16 126l-27 -141l-19 -80q0 -4 -1 -6 t-1 -4v-4zM375 45l8 2q2 45 12 92v11q-4 -29 -9 -54.5t-11 -50.5zM389 711q4 25 11.5 58.5t14.5 70.5t13 72.5t10 62.5q-8 -31 -15 -60.5t-15 -60.5zM416 1133h10l4 59q0 4 3 7t5 7h-10q-6 0 -9 -8t-3 -20.5v-24.5v-20zM420 1532q8 16 17.5 30.5t19.5 28.5 q-12 -10 -21.5 -25.5t-15.5 -33.5zM436 401q4 27 8.5 51.5t4.5 51.5zM453 537l12 8l33 184q6 41 11 93t11 106.5t14.5 106.5t20.5 93v11q-16 -49 -30.5 -108.5t-26 -121t-20.5 -121t-15 -110.5q6 -4 6 -12q0 -18 -6 -53t-10 -76zM471 1202v4v-4zM496 1081q8 23 16 46.5 t16 46.5q10 14 23 14v12q-10 -4 -22.5 -10t-22.5 -10q0 -2 1 -2t1 -4zM508 547q35 2 80 6t78 8q-12 57 -22.5 125t-20 137.5t-16.5 137t-13 126.5q-4 -31 -9 -60.5t-7 -55.5l-15 -101l-22 -133q-6 -49 -14.5 -96t-18.5 -94z" />
<glyph unicode="&#xe4;" horiz-adv-x="917" d="M8 20q0 23 27 23q4 0 10 -1t10 -1q10 0 26.5 1t57.5 3v8q0 25 11.5 92.5t29 160.5t39 207t42 230.5t38.5 231.5t29 211q-6 -2 -21 -2q-16 0 -32.5 6t-16.5 20q0 29 27 29q4 0 12 -4l2 -6q16 6 51 11t77 9t87 6t80 2q47 0 59.5 -3t12.5 -13q0 -18 -21 -29h-4q6 -2 8 -14 q2 -74 9.5 -154.5t17.5 -162.5t23.5 -163t27.5 -151l51 11h8q12 0 13 -13q0 -8 -5.5 -16t-15.5 -12l-45 -11l90 -467h58q16 -4 16 -14q0 -20 -22.5 -25.5t-54.5 -5.5t-66 -1t-54 -13q-8 -4 -10 -4q-16 0 -16 20q0 8 13 15.5t29.5 12.5t34 9t23.5 4l-98 461q-41 -6 -89 -10 t-89 -4l-19 -117v12q-6 -37 -13 -82t-14.5 -91t-13.5 -91t-8 -82h23q16 -4 16 -16q0 -20 -25 -27l-16 -6h-414q-6 6 -6 16zM182 43h19q8 92 22.5 194.5t32.5 207t42 205t50 190.5q20 92 21.5 178t5.5 176h-4zM246 41h12q2 45 11.5 102.5t20.5 110.5t21.5 95t14.5 59l14 188 l-10 -61q-23 -127 -39.5 -248t-44.5 -246zM320 1511q0 35 27.5 65t62.5 30q23 0 49.5 -16.5t26.5 -51.5t-30 -69.5t-64 -34.5q-15 0 -31 10q-41 27 -41 67zM332 41l16 80l-12 -8zM360 373q0 -2 2 -2l3 2v-2q0 -2 1 -3t1 -3v-7q18 63 25 124t16 126l-27 -141l-19 -80 q0 -4 -1 -6t-1 -4v-4zM371 1507q6 -25 31 -24q10 0 16 4q-37 2 -47 20zM375 45l8 2q2 45 12 92v11q-4 -29 -9 -54.5t-11 -50.5zM389 711q4 25 11.5 58.5t14.5 70.5t13 72.5t10 62.5q-8 -31 -15 -60.5t-15 -60.5zM404 1544q0 -14 35 -14l-6 14q-16 4 -21 4q-8 0 -8 -4z M416 1133h10l4 59q0 4 3 7t5 7h-10q-6 0 -9 -8t-3 -20.5v-24.5v-20zM436 401q4 27 8.5 51.5t4.5 51.5zM453 537l12 8l33 184q6 41 11 93t11 106.5t14.5 106.5t20.5 93v11q-16 -49 -30.5 -108.5t-26 -121t-20.5 -121t-15 -110.5q6 -4 6 -12q0 -18 -6 -53t-10 -76zM471 1202v4 v-4zM496 1081q8 23 16 46.5t16 46.5q10 14 23 14v12q-10 -4 -22.5 -10t-22.5 -10q0 -2 1 -2t1 -4zM508 547q35 2 80 6t78 8q-12 57 -22.5 125t-20 137.5t-16.5 137t-13 126.5q-4 -31 -9 -60.5t-7 -55.5l-15 -101l-22 -133q-6 -49 -14.5 -96t-18.5 -94zM555 1532 q0 31 25.5 57.5t54.5 38.5h4q35 0 57.5 -24.5t22.5 -40.5q0 -35 -32.5 -65t-67.5 -30t-49.5 25t-14.5 39zM598 1532q13 -16 29 -16q-10 4 -16 8t-13 8zM637 1563q8 -6 16.5 -8.5t18.5 -4.5q-4 20 -16 21q-9 0 -19 -8z" />
<glyph unicode="&#xe5;" horiz-adv-x="917" d="M8 20q0 23 27 23q4 0 10 -1t10 -1q10 0 26.5 1t57.5 3v8q0 25 11.5 92.5t29 160.5t39 207t42 230.5t38.5 231.5t29 211q-6 -2 -21 -2q-16 0 -32.5 6t-16.5 20q0 29 27 29q4 0 12 -4l2 -6q16 6 51 11t77 9t87 6t80 2q47 0 59.5 -3t12.5 -13q0 -18 -21 -29h-4q6 -2 8 -14 q2 -74 9.5 -154.5t17.5 -162.5t23.5 -163t27.5 -151l51 11h8q12 0 13 -13q0 -8 -5.5 -16t-15.5 -12l-45 -11l90 -467h58q16 -4 16 -14q0 -20 -22.5 -25.5t-54.5 -5.5t-66 -1t-54 -13q-8 -4 -10 -4q-16 0 -16 20q0 8 13 15.5t29.5 12.5t34 9t23.5 4l-98 461q-41 -6 -89 -10 t-89 -4l-19 -117v12q-6 -37 -13 -82t-14.5 -91t-13.5 -91t-8 -82h23q16 -4 16 -16q0 -20 -25 -27l-16 -6h-414q-6 6 -6 16zM182 43h19q8 92 22.5 194.5t32.5 207t42 205t50 190.5q20 92 21.5 178t5.5 176h-4zM246 41h12q2 45 11.5 102.5t20.5 110.5t21.5 95t14.5 59l14 188 l-10 -61q-23 -127 -39.5 -248t-44.5 -246zM311 1454q0 37 18.5 78t48 74.5t67.5 56.5t75 23q16 0 34.5 -4.5t22.5 -20.5q31 -2 53.5 -17.5t38 -37t22.5 -45t7 -39.5q0 -37 -19.5 -70t-52.5 -57.5t-73.5 -39t-85.5 -14.5q-63 0 -109.5 29t-46.5 84zM332 41l16 80l-12 -8z M360 373q0 -2 2 -2l3 2v-2q0 -2 1 -3t1 -3v-7q18 63 25 124t16 126l-27 -141l-19 -80q0 -4 -1 -6t-1 -4v-4zM375 45l8 2q2 45 12 92v11q-4 -29 -9 -54.5t-11 -50.5zM389 711q4 25 11.5 58.5t14.5 70.5t13 72.5t10 62.5q-8 -31 -15 -60.5t-15 -60.5zM389 1499q0 -31 26 -55 q2 0 2 2q-2 10 -2 18.5v18.5q1 51 15 96q-41 -37 -41 -80zM416 1133h10l4 59q0 4 3 7t5 7h-10q-6 0 -9 -8t-3 -20.5v-24.5v-20zM436 401q4 27 8.5 51.5t4.5 51.5zM453 537l12 8l33 184q6 41 11 93t11 106.5t14.5 106.5t20.5 93v11q-16 -49 -30.5 -108.5t-26 -121t-20.5 -121 t-15 -110.5q6 -4 6 -12q0 -18 -6 -53t-10 -76zM456 1524q8 16 17.5 32.5t19.5 30.5l-12 6q-10 -16 -15.5 -33.5t-9.5 -35.5zM471 1202v4v-4zM491 1481q0 -41 22.5 -47.5t51.5 -6.5q8 0 14 1.5t14 1.5l9 6q6 8 16 8q39 39 39 84q0 27 -21.5 51.5t-58.5 30.5q-8 -23 -24 -23 q-8 0 -15 6q-47 -47 -47 -112zM496 1081q8 23 16 46.5t16 46.5q10 14 23 14v12q-10 -4 -22.5 -10t-22.5 -10q0 -2 1 -2t1 -4zM508 547q35 2 80 6t78 8q-12 57 -22.5 125t-20 137.5t-16.5 137t-13 126.5q-4 -31 -9 -60.5t-7 -55.5l-15 -101l-22 -133q-6 -49 -14.5 -96 t-18.5 -94z" />
<glyph unicode="&#xe6;" horiz-adv-x="1376" d="M8 20q0 23 27 23q4 0 10 -1t10 -1q10 0 26.5 1t57.5 3v8q0 25 11.5 92.5t29 160.5t39 207t42 230.5t38.5 231.5t29 211q-6 -2 -21 -2q-16 0 -32.5 6t-16.5 20q0 29 27 29q4 0 12 -4l2 -6q16 6 51 11t77 9t87 6t80 2q72 0 72 -10v-6h4q16 0 29.5 -1t31.5 -1q-2 2 -2 6 q0 10 7 15.5t18 5.5q8 0 15 -5.5t9 -21.5q86 -2 176 -7t164 -11.5t121 -14.5t47 -16q0 -10 -9 -18.5t-22 -8.5q-66 2 -135 6.5t-139 8.5l-6 -123v-441l190 11q18 -2 19 -19q0 -18 -17 -24l-204 -15v-96q0 -10 2 -76.5t2 -148.5q0 -53 -2 -102.5t-7 -88.5q94 6 187.5 9.5 t187.5 5.5q16 -4 17 -15q0 -23 -25 -28l-653 -23q-20 0 -21 14q0 8 8.5 17.5t18.5 11.5h24v160t3 166l-29 145q-41 -6 -89 -10t-89 -4l-19 -117v12q-6 -37 -13 -82t-14.5 -91t-13.5 -91t-8 -82h23q16 -4 16 -16q0 -20 -25 -27l-16 -6h-414q-6 6 -6 16zM182 43h19 q8 92 22.5 194.5t32.5 207t42 205t50 190.5q20 92 21.5 178t5.5 176h-4zM246 41h12q2 45 11.5 102.5t20.5 110.5t21.5 95t14.5 59l14 188l-10 -61q-23 -127 -39.5 -248t-44.5 -246zM332 41l16 80l-12 -8zM360 373q0 -2 2 -2l3 2v-2q0 -2 1 -3t1 -3v-7q18 63 25 124t16 126 l-27 -141l-19 -80q0 -4 -1 -6t-1 -4v-4zM375 45l8 2q2 25 5 47t7 49q-4 -27 -9 -51t-11 -47zM389 711q4 25 11.5 58.5t14.5 70.5t13 72.5t10 62.5q-8 -31 -15 -60.5t-15 -60.5zM416 1133h10l4 59q0 4 3 7t5 7h-10q-6 0 -9 -8t-3 -20.5v-24.5v-20zM436 416q4 23 8.5 44 t4.5 44zM436 416l35 -15zM453 537l12 8l33 184q6 41 11 93t11 106.5t14.5 106.5t20.5 93v11q-16 -49 -30.5 -108.5t-26 -121t-20.5 -121t-15 -110.5q6 -4 6 -12q0 -18 -6 -53t-10 -76zM471 1202v4v-4zM496 1081q8 23 16 46.5t16 46.5q10 14 23 14v12q-10 -4 -22.5 -10 t-22.5 -10q0 -2 1 -2t1 -4zM508 547q35 2 80 6t78 8q-12 57 -22.5 125t-20 137.5t-16.5 137t-13 126.5q-4 -31 -9 -60.5t-7 -55.5l-15 -101l-22 -133q-6 -49 -14.5 -96t-18.5 -94zM641 1212q6 -2 8 -14q2 -66 8.5 -136.5t14.5 -144t18 -145.5t23 -139l8 221q6 166 6 338v4 h-51.5t-28.5 16h-6zM745 47l17 6v19q0 51 3 113.5t7 125t7 124t3 114.5h-26q-2 -53 -4 -115.5t-3 -128t-2.5 -129t-1.5 -117.5v-12zM766 592h16q-2 76 -2 171v184t-1 156.5t-5 88.5l-8 -399v-201zM829 799q8 90 14.5 193.5t8.5 189.5l-23 2q4 0 5 -4q0 -88 -2.5 -191.5 t-2.5 -189.5zM874 507.5q0 -18.5 1.5 -36.5t1.5 -29v-68.5t1 -79.5t2 -102.5t1 -138.5q0 -2 1 34t3 91t3 121t2 123t2 97t1 42q-10 -4 -14.5 -19.5t-4.5 -34zM883 602q8 0 12 2q6 63 12 155.5t12.5 179.5t10.5 150.5t4 69.5v2q0 2 4 10v3h-16q0 -53 -6.5 -141.5 t-13.5 -177.5t-13 -159.5t-6 -89.5v-4z" />
<glyph unicode="&#xe7;" horiz-adv-x="737" d="M29 600q0 102 22.5 216t68.5 209t115.5 156.5t161.5 61.5q33 0 74 -11t81 -32.5t73.5 -52.5t56.5 -70v-8q0 -14 -11.5 -21.5t-21.5 -7.5q-12 0 -14 7q-41 43 -77 73.5t-77 53.5q-45 -18 -76.5 -83t-53 -154t-32 -195.5t-10.5 -209.5q0 -113 11.5 -209t33.5 -153 q47 -70 73 -86t42 -16q18 4 55 24.5t74 44.5q43 29 92 64q12 0 12 -17q0 -12 -27.5 -39.5t-67.5 -58.5t-83 -56.5t-71 -29.5q-14 -2 -27.5 -3t-30.5 -1q-53 0 -106 17.5t-88 60.5l-17 20q-53 61 -84.5 147.5t-46.5 172.5q-25 76 -24 186zM72 643q8 57 25.5 125t41 136.5 t51 131t58.5 109.5q-49 -43 -81 -102.5t-52.5 -126t-29.5 -137t-13 -136.5zM158 503.5q0 -24.5 2 -46.5q2 25 6 77t9 110t11.5 110.5t14.5 72.5q0 49 13.5 104.5t25.5 108.5q-49 -111 -65.5 -237.5t-16.5 -251.5v-47.5zM174 354q6 -74 33 -139t86 -102q-45 35 -69.5 99 t-49.5 142zM244 635q0 -61 5 -135t21 -119q-6 49 -10 102.5t-4 108.5q0 137 24.5 271t77.5 233v4q-16 -25 -30 -64l-29 -73q0 -2 -4 -7q-2 -2 -2 -4q-27 -86 -38 -163.5t-11 -153.5zM376 -319q0 10 9.5 18t21.5 8q8 0 16.5 -2t16.5 -2q43 0 65.5 33t22.5 67q0 18 -7.5 34 t-21.5 22q-59 23 -72.5 54.5t-13.5 84.5v43t15 27q14 0 20 -21.5t13.5 -49.5t22.5 -51.5t50 -27.5q14 -2 35.5 -3t41 -8t33 -22.5t13.5 -46.5q-4 -41 -22.5 -73.5t-48 -56t-66.5 -37t-76 -13.5q-16 0 -42 3t-26 20zM553 -266q25 14 38 37.5t13 50.5v14z" />
<glyph unicode="&#xe8;" horiz-adv-x="747" d="M18 1217q0 10 6.5 17t16.5 7q18 0 31.5 -1t31.5 -1q-2 2 -2 6q0 10 7.5 15.5t15.5 5.5t15 -5.5t10 -21.5q86 -2 176 -7t164.5 -11.5t121.5 -14.5t47 -16q0 -10 -9 -18.5t-21 -8.5q-68 2 -137.5 6.5t-137.5 8.5l-8 -123v-441l191 11q20 -2 20 -21q0 -14 -18 -22l-205 -15 v-96q0 -10 2 -76.5t2 -148.5q0 -53 -2 -102.5t-6 -88.5q94 6 187 9.5t188 5.5q16 -2 16 -17q0 -18 -23 -26l-655 -23q-18 0 -18 14q0 8 8 17.5t18 11.5h23q0 143 4 291.5t8 294t8 287t4 272.5v4h-51.5t-28.5 21zM119 47l16 6v19q0 51 3 113.5l6 125t6.5 124t3.5 114.5h-27 q-2 -53 -3 -115.5t-2 -128t-2 -129t-1 -117.5v-12zM137 592h17q-2 76 -2 172v184t-1 155.5t-4 88.5l-10 -399v-201zM201 1618q0 8 9 25.5t23.5 33t31 27.5t30.5 12q6 0 28.5 -21.5t52.5 -54t62.5 -71.5t60 -75t45 -63.5t17.5 -35.5q0 -10 -8 -17.5t-20 -7.5q-6 0 -9 2 q-8 4 -39.5 24.5t-76.5 51.5t-97.5 71t-101.5 85q-8 8 -8 14zM203 799q6 90 12 193.5t8 189.5l-20 2q2 0 2 -4q0 -88 -1 -191.5t-1 -189.5zM247 471q1 -18 1 -29v-68.5t1 -79.5t2 -102.5t1 -138.5q0 -2 2 34t3 91t2 121t2 123t2 97t1 42q-10 -4 -13 -19.5t-4 -34t0 -36.5z M250 1626q57 -51 121 -90q-25 27 -52.5 52.5t-58.5 45.5l-5 -5t-5 -3zM256 602q6 0 10 2q6 63 12.5 155.5t12.5 179.5t10 150.5t4 69.5v2q0 4 6 10v3h-18q0 -51 -6 -137.5t-13.5 -173.5t-12.5 -158.5t-5 -94.5v-8z" />
<glyph unicode="&#xe9;" horiz-adv-x="747" d="M18 1217q0 10 6.5 17t16.5 7q18 0 31.5 -1t31.5 -1q-2 2 -2 6q0 10 7.5 15.5t15.5 5.5t15 -5.5t10 -21.5q86 -2 176 -7t164.5 -11.5t121.5 -14.5t47 -16q0 -10 -9 -18.5t-21 -8.5q-68 2 -137.5 6.5t-137.5 8.5l-8 -123v-441l191 11q20 -2 20 -21q0 -14 -18 -22l-205 -15 v-96q0 -10 2 -76.5t2 -148.5q0 -53 -2 -102.5t-6 -88.5q94 6 187 9.5t188 5.5q16 -2 16 -17q0 -18 -23 -26l-655 -23q-18 0 -18 14q0 8 8 17.5t18 11.5h23q0 143 4 291.5t8 294t8 287t4 272.5v4h-51.5t-28.5 21zM119 47l16 6v19q0 51 3 113.5l6 125t6.5 124t3.5 114.5h-27 q-2 -53 -3 -115.5t-2 -128t-2 -129t-1 -117.5v-12zM137 592h17q-2 76 -2 172v184t-1 155.5t-4 88.5l-10 -399v-201zM189 1395q0 6 26.5 42t64.5 84t81 100t74 89q8 6 18 6q14 0 31.5 -12t31 -27.5t22.5 -33t9 -25.5q0 -6 -8 -14q-61 -57 -121.5 -101.5t-106.5 -73t-74 -44 t-24 -15.5q-10 0 -17 7t-7 18zM203 799q6 90 12 193.5t8 189.5l-20 2q2 0 2 -4q0 -88 -1 -191.5t-1 -189.5zM247 471q1 -18 1 -29v-68.5t1 -79.5t2 -102.5t1 -138.5q0 -2 2 34t3 91t2 121t2 123t2 97t1 42q-10 -4 -13 -19.5t-4 -34t0 -36.5zM256 602q6 0 10 2 q6 63 12.5 155.5t12.5 179.5t10 150.5t4 69.5v2q0 4 6 10v3h-18q0 -51 -6 -137.5t-13.5 -173.5t-12.5 -158.5t-5 -94.5v-8zM377 1536q64 39 121 90q-2 0 -5 3l-5 5q-31 -20 -57.5 -45.5t-53.5 -52.5z" />
<glyph unicode="&#xea;" horiz-adv-x="747" d="M18 1217q0 10 6.5 17t16.5 7q18 0 31.5 -1t31.5 -1q-2 2 -2 6q0 10 7.5 15.5t15.5 5.5t15 -5.5t10 -21.5q86 -2 176 -7t164.5 -11.5t121.5 -14.5t47 -16q0 -10 -9 -18.5t-21 -8.5q-68 2 -137.5 6.5t-137.5 8.5l-8 -123v-441l191 11q20 -2 20 -21q0 -14 -18 -22l-205 -15 v-96q0 -10 2 -76.5t2 -148.5q0 -53 -2 -102.5t-6 -88.5q94 6 187 9.5t188 5.5q16 -2 16 -17q0 -18 -23 -26l-655 -23q-18 0 -18 14q0 8 8 17.5t18 11.5h23q0 143 4 291.5t8 294t8 287t4 272.5v4h-51.5t-28.5 21zM119 47l16 6v19q0 51 3 113.5l6 125t6.5 124t3.5 114.5h-27 q-2 -53 -3 -115.5t-2 -128t-2 -129t-1 -117.5v-12zM137 592h17q-2 76 -2 172v184t-1 155.5t-4 88.5l-10 -399v-201zM164 1417q0 6 6 18.5t10 20.5q23 23 41 44.5t36.5 47t39 56t47.5 69.5q0 -2 9 9.5t20 11.5q2 0 18 -20.5t42 -54.5t59.5 -77t72.5 -88q10 -10 10 -18 q0 -23 -26 -23q-8 0 -26.5 12.5t-42 31t-49.5 36.5t-46 31q-10 -2 -34.5 -17.5t-54.5 -36t-61 -40t-51 -27.5q-20 0 -20 14zM203 799q6 90 12 193.5t8 189.5l-20 2q2 0 2 -4q0 -88 -1 -191.5t-1 -189.5zM247 471q1 -18 1 -29v-68.5t1 -79.5t2 -102.5t1 -138.5q0 -2 2 34 t3 91t2 121t2 123t2 97t1 42q-10 -4 -13 -19.5t-4 -34t0 -36.5zM256 602q6 0 10 2q6 63 12.5 155.5t12.5 179.5t10 150.5t4 69.5v2q0 4 6 10v3h-18q0 -51 -6 -137.5t-13.5 -173.5t-12.5 -158.5t-5 -94.5v-8zM266 1491q12 14 25.5 25.5t25.5 21.5l-6 2q-23 -18 -37 -37z M350 1612l16 8q-4 4 -4 8zM362 1573q27 -6 47 -19l-26 37q-2 -6 -10 -10z" />
<glyph unicode="&#xeb;" horiz-adv-x="747" d="M18 1217q0 10 6.5 17t16.5 7q18 0 31.5 -1t31.5 -1q-2 2 -2 6q0 10 7.5 15.5t15.5 5.5t15 -5.5t10 -21.5q86 -2 176 -7t164.5 -11.5t121.5 -14.5t47 -16q0 -10 -9 -18.5t-21 -8.5q-68 2 -137.5 6.5t-137.5 8.5l-8 -123v-441l191 11q20 -2 20 -21q0 -14 -18 -22l-205 -15 v-96q0 -10 2 -76.5t2 -148.5q0 -53 -2 -102.5t-6 -88.5q94 6 187 9.5t188 5.5q16 -2 16 -17q0 -18 -23 -26l-655 -23q-18 0 -18 14q0 8 8 17.5t18 11.5h23q0 143 4 291.5t8 294t8 287t4 272.5v4h-51.5t-28.5 21zM119 47l16 6v19q0 51 3 113.5l6 125t6.5 124t3.5 114.5h-27 q-2 -53 -3 -115.5t-2 -128t-2 -129t-1 -117.5v-12zM137 592h17q-2 76 -2 172v184t-1 155.5t-4 88.5l-10 -399v-201zM188 1511q0 35 27.5 65t62.5 30q23 0 49.5 -16.5t26.5 -51.5t-30 -69.5t-64 -34.5q-15 0 -31 10q-41 27 -41 67zM203 799q6 90 12 193.5t8 189.5l-20 2 q2 0 2 -4q0 -88 -1 -191.5t-1 -189.5zM239 1507q6 -25 31 -24q10 0 16 4q-37 2 -47 20zM247 471q1 -18 1 -29v-68.5t1 -79.5t2 -102.5t1 -138.5q0 -2 2 34t3 91t2 121t2 123t2 97t1 42q-10 -4 -13 -19.5t-4 -34t0 -36.5zM256 602q6 0 10 2q6 63 12.5 155.5t12.5 179.5 t10 150.5t4 69.5v2q0 4 6 10v3h-18q0 -51 -6 -137.5t-13.5 -173.5t-12.5 -158.5t-5 -94.5v-8zM272 1544q0 -14 35 -14l-6 14q-16 4 -21 4q-8 0 -8 -4zM423 1532q0 31 25.5 57.5t54.5 38.5h4q35 0 57.5 -24.5t22.5 -40.5q0 -35 -32.5 -65t-67.5 -30t-49.5 25t-14.5 39z M466 1532q13 -16 29 -16q-10 4 -16 8t-13 8zM505 1563q8 -6 16.5 -8.5t18.5 -4.5q-4 20 -16 21q-9 0 -19 -8z" />
<glyph unicode="&#xec;" horiz-adv-x="616" d="M16 1198q0 8 8.5 16.5t18.5 10.5q33 4 88 9t117.5 9t124 7t108.5 3q29 0 49.5 -1t20.5 -17q0 -8 -7 -16.5t-18 -10.5l-53 -8q-10 -182 -16 -378.5t-6 -389.5q0 -184 6 -352q14 0 36.5 -1t43 -3t35 -7.5t14.5 -13.5q0 -16 -13 -24q-18 -4 -79.5 -8.5t-135 -7.5t-146.5 -5 t-112 -2q-18 0 -18 12q0 23 31 27q29 4 44 6t22 3t12.5 3t13.5 4q-23 281 -27 563.5t-4 557.5v2q-35 -2 -68.5 -3t-68.5 -1q-20 0 -21 16zM133 1618q0 8 9 25.5t23.5 33t31 27.5t30.5 12q6 0 28.5 -21.5t52.5 -54t62.5 -71.5t60 -75t45 -63.5t17.5 -35.5q0 -10 -8 -17.5 t-20 -7.5q-6 0 -9 2q-8 4 -39.5 24.5t-76.5 51.5t-97.5 71t-101.5 85q-8 8 -8 14zM182 1626q57 -51 121 -90q-25 27 -52.5 52.5t-58.5 45.5l-5 -5t-5 -3zM219 1188q4 -31 4 -63.5v-65.5v-74v-49q4 -109 11.5 -217.5t13.5 -218.5q0 -4 5 -44t9 -97.5t8 -122t4 -115.5 q0 -12 -1 -24.5t-1 -22.5l7 4q-8 281 -27 559t-23 551h-10zM272 1141q4 -135 14.5 -273.5t18.5 -273.5q8 -127 9 -251t8 -249q4 -2 4 -5t2 -7v-4h4q0 43 2 85t6 83q-10 180 -27.5 358.5t-25.5 356.5q0 33 -1 85t-14 95zM340 1171q2 -4 4 -44t4 -97t4 -123.5t4 -125t4 -99.5 t2 -45l-6 537zM377 80q10 -2 19.5 -2h19.5q-4 141 -10.5 279.5t-10.5 279.5q-18 -276 -18 -557zM416 891q0 -21 2 -41q4 82 8 161t4 160q-8 -59 -11 -118.5t-3 -120.5v-41z" />
<glyph unicode="&#xed;" horiz-adv-x="616" d="M16 1198q0 8 8.5 16.5t18.5 10.5q33 4 88 9t117.5 9t124 7t108.5 3q29 0 49.5 -1t20.5 -17q0 -8 -7 -16.5t-18 -10.5l-53 -8q-10 -182 -16 -378.5t-6 -389.5q0 -184 6 -352q14 0 36.5 -1t43 -3t35 -7.5t14.5 -13.5q0 -16 -13 -24q-18 -4 -79.5 -8.5t-135 -7.5t-146.5 -5 t-112 -2q-18 0 -18 12q0 23 31 27q29 4 44 6t22 3t12.5 3t13.5 4q-23 281 -27 563.5t-4 557.5v2q-35 -2 -68.5 -3t-68.5 -1q-20 0 -21 16zM146 1395q0 6 26.5 42t64.5 84t81 100t74 89q8 6 18 6q14 0 31.5 -12t31 -27.5t22.5 -33t9 -25.5q0 -6 -8 -14q-61 -57 -121.5 -101.5 t-106.5 -73t-74 -44t-24 -15.5q-10 0 -17 7t-7 18zM219 1188q4 -31 4 -63.5v-65.5v-74v-49q4 -109 11.5 -217.5t13.5 -218.5q0 -4 5 -44t9 -97.5t8 -122t4 -115.5q0 -12 -1 -24.5t-1 -22.5l7 4q-8 281 -27 559t-23 551h-10zM272 1141q4 -135 14.5 -273.5t18.5 -273.5 q8 -127 9 -251t8 -249q4 -2 4 -5t2 -7v-4h4q0 43 2 85t6 83q-10 180 -27.5 358.5t-25.5 356.5q0 33 -1 85t-14 95zM334 1536q64 39 121 90q-2 0 -5 3l-5 5q-31 -20 -57.5 -45.5t-53.5 -52.5zM340 1171q2 -4 4 -44t4 -97t4 -123.5t4 -125t4 -99.5t2 -45l-6 537zM377 80 q10 -2 19.5 -2h19.5q-4 141 -10.5 279.5t-10.5 279.5q-18 -276 -18 -557zM416 891q0 -21 2 -41q4 82 8 161t4 160q-8 -59 -11 -118.5t-3 -120.5v-41z" />
<glyph unicode="&#xee;" horiz-adv-x="616" d="M16 1198q0 8 8.5 16.5t18.5 10.5q33 4 88 9t117.5 9t124 7t108.5 3q29 0 49.5 -1t20.5 -17q0 -8 -7 -16.5t-18 -10.5l-53 -8q-10 -182 -16 -378.5t-6 -389.5q0 -184 6 -352q14 0 36.5 -1t43 -3t35 -7.5t14.5 -13.5q0 -16 -13 -24q-18 -4 -79.5 -8.5t-135 -7.5t-146.5 -5 t-112 -2q-18 0 -18 12q0 23 31 27q29 4 44 6t22 3t12.5 3t13.5 4q-23 281 -27 563.5t-4 557.5v2q-35 -2 -68.5 -3t-68.5 -1q-20 0 -21 16zM99 1417q0 6 6 18.5t10 20.5q23 23 41 44.5t36.5 47t39 56t47.5 69.5q0 -2 9 9.5t20 11.5q2 0 18 -20.5t42 -54.5t59.5 -77t72.5 -88 q10 -10 10 -18q0 -23 -26 -23q-8 0 -26.5 12.5t-42 31t-49.5 36.5t-46 31q-10 -2 -34.5 -17.5t-54.5 -36t-61 -40t-51 -27.5q-20 0 -20 14zM201 1491q12 14 25.5 25.5t25.5 21.5l-6 2q-23 -18 -37 -37zM219 1188q4 -31 4 -63.5v-65.5v-74v-49q4 -109 11.5 -217.5 t13.5 -218.5q0 -4 5 -44t9 -97.5t8 -122t4 -115.5q0 -12 -1 -24.5t-1 -22.5l7 4q-8 281 -27 559t-23 551h-10zM272 1141q4 -135 14.5 -273.5t18.5 -273.5q8 -127 9 -251t8 -249q4 -2 4 -5t2 -7v-4h4q0 43 2 85t6 83q-10 180 -27.5 358.5t-25.5 356.5q0 33 -1 85t-14 95z M285 1612l16 8q-4 4 -4 8zM297 1573q27 -6 47 -19l-26 37q-2 -6 -10 -10zM340 1171q2 -4 4 -44t4 -97t4 -123.5t4 -125t4 -99.5t2 -45l-6 537zM377 80q10 -2 19.5 -2h19.5q-4 141 -10.5 279.5t-10.5 279.5q-18 -276 -18 -557zM416 891q0 -21 2 -41q4 82 8 161t4 160 q-8 -59 -11 -118.5t-3 -120.5v-41z" />
<glyph unicode="&#xef;" horiz-adv-x="616" d="M16 1198q0 8 8.5 16.5t18.5 10.5q33 4 88 9t117.5 9t124 7t108.5 3q29 0 49.5 -1t20.5 -17q0 -8 -7 -16.5t-18 -10.5l-53 -8q-10 -182 -16 -378.5t-6 -389.5q0 -184 6 -352q14 0 36.5 -1t43 -3t35 -7.5t14.5 -13.5q0 -16 -13 -24q-18 -4 -79.5 -8.5t-135 -7.5t-146.5 -5 t-112 -2q-18 0 -18 12q0 23 31 27q29 4 44 6t22 3t12.5 3t13.5 4q-23 281 -27 563.5t-4 557.5v2q-35 -2 -68.5 -3t-68.5 -1q-20 0 -21 16zM121 1511q0 35 27.5 65t62.5 30q23 0 49.5 -16.5t26.5 -51.5t-30 -69.5t-64 -34.5q-15 0 -31 10q-41 27 -41 67zM172 1507 q6 -25 31 -24q10 0 16 4q-37 2 -47 20zM205 1544q0 -14 35 -14l-6 14q-16 4 -21 4q-8 0 -8 -4zM219 1188q4 -31 4 -63.5v-65.5v-74v-49q4 -109 11.5 -217.5t13.5 -218.5q0 -4 5 -44t9 -97.5t8 -122t4 -115.5q0 -12 -1 -24.5t-1 -22.5l7 4q-8 281 -27 559t-23 551h-10z M272 1141q4 -135 14.5 -273.5t18.5 -273.5q8 -127 9 -251t8 -249q4 -2 4 -5t2 -7v-4h4q0 43 2 85t6 83q-10 180 -27.5 358.5t-25.5 356.5q0 33 -1 85t-14 95zM340 1171q2 -4 4 -44t4 -97t4 -123.5t4 -125t4 -99.5t2 -45l-6 537zM356 1532q0 31 25.5 57.5t54.5 38.5h4 q35 0 57.5 -24.5t22.5 -40.5q0 -35 -32.5 -65t-67.5 -30t-49.5 25t-14.5 39zM377 80q10 -2 19.5 -2h19.5q-4 141 -10.5 279.5t-10.5 279.5q-18 -276 -18 -557zM399 1532q13 -16 29 -16q-10 4 -16 8t-13 8zM416 891q0 -21 2 -41q4 82 8 161t4 160q-8 -59 -11 -118.5 t-3 -120.5v-41zM438 1563q8 -6 16.5 -8.5t18.5 -4.5q-4 20 -16 21q-9 0 -19 -8z" />
<glyph unicode="&#xf0;" horiz-adv-x="964" d="M16 551q0 27 27 35q25 2 89.5 7t140 9t149.5 8t117 6q16 -2 16 -16q0 -16 -35 -26.5t-88 -17.5t-115.5 -11t-117 -6t-92 -3t-41.5 -1h-29q-20 0 -21 16zM18 1214q0 14 12.5 20.5t31 9.5t39 3h34.5q92 0 191.5 -23.5t193.5 -64.5t177 -100.5t141 -128.5q92 -143 92 -281 q0 -92 -36 -174t-96.5 -152.5t-139 -127t-165.5 -96.5t-176.5 -61.5t-169.5 -21.5q-20 0 -30.5 2t-10.5 13q0 23 18.5 23.5t37.5 8.5q-8 27 -12.5 59t-6.5 63.5t-2 58v43.5q0 35 1 69.5t1 75.5q0 92 -2 194.5t-4 204t-4 198.5t-4 177l-100 -10q-4 0 -7.5 6t-3.5 12zM182 240 q0 -23 2 -41.5t6 -28.5l7 -61q0 82 -13 161q0 -8 -1 -15t-1 -15zM197 909q0 -43 1 -108.5t3 -135t4 -135t6 -108.5q6 -66 17.5 -139.5t11.5 -145.5q10 0 10 -16q0 -6 -1 -9t-3 -14q4 -4 10 -7t16 -5q-14 76 -24 173t-18.5 205.5t-16.5 222.5t-16 222zM219 1192 q2 -84 7 -190.5t11.5 -219t15.5 -220t19 -189.5v92v34.5v61.5t1 61.5t1 34.5l-2 35t-6 89.5t-8 119t-8 122.5t-7 102t-3 59zM285 1169q2 -74 12 -151l4 147q-4 0 -16 4zM312 248.5q-1 -19.5 3 -39.5q0 -12 1 -25.5t3 -29.5q-6 74 -6 137q0 -23 -1 -42.5zM326 104l2 -6 q-2 2 -2 6zM340 729q-2 -106 2 -206.5t12 -182.5v311q0 70 -1 131.5t-1 122v120.5v126h-6q-2 -88 -4 -197.5t-2 -224.5zM387 639q0 -49 1 -103.5t2 -104.5t3 -77q0 27 -1 77t-2 104.5t-2 104.5t-1 77v-78zM416 1151q10 -33 14 -98.5t4 -151.5q0 -76 -2 -160t-5 -166.5 t-5 -160.5t-2 -140q0 -57 3 -96t9 -51q88 25 169 78t142.5 125.5t97.5 157.5t36 171q0 84 -40 160t-104.5 140.5t-147.5 113.5t-169 78z" />
</font>
</defs>
</svg>
